<?xml version="1.0" encoding="UTF-8" standalone="no"?>
<!DOCTYPE svg  PUBLIC '-//W3C//DTD SVG 1.1//EN'  'http://www.w3.org/Graphics/SVG/1.1/DTD/svg11.dtd'>
<svg xmlns="http://www.w3.org/2000/svg">
<defs>
<font id="SSTPro-Bold" horiz-adv-x="553">
<font-face underline-position="125" font-weight="700" descent="-200" panose-1="2 11 8 4 3 5 4 2 2 4" units-per-em="1000" unicode-range="U+0020-25CA" bbox="-193 -217 1164 949" x-height="528" underline-thickness="50" font-family="SSTPro" ascent="800" cap-height="714"/>
<missing-glyph horiz-adv-x="1000"/>
<glyph glyph-name=".notdef" horiz-adv-x="1000"/>
<glyph glyph-name=".null" horiz-adv-x="0"/>
<glyph glyph-name="nonmarkingreturn" horiz-adv-x="333"/>
<glyph glyph-name="space" horiz-adv-x="260" unicode=" "/>
<glyph glyph-name="exclam" horiz-adv-x="317" unicode="!" d="M80 0v151h153v-151h-153zM241 714l-19 -466h-126l-19 466h164z"/>
<glyph glyph-name="quotedbl" horiz-adv-x="449" unicode='&quot;' d="M275 491l-25 245h134l-24 -245h-85zM88 491l-24 245h135l-25 -245h-86z"/>
<glyph glyph-name="numbersign" horiz-adv-x="605" unicode="#" d="M264 425l-18 -136h105l19 136h-106zM206 0h-110l26 188h-92v101h106l18 136h-106v101h120l26 188h111l-27 -188h105l26 188h110l-26 -188h81v-101h-95l-18 -136h93v-101h-107l-26 -188h-111l27 188h-104z"/>
<glyph glyph-name="dollar" horiz-adv-x="569" unicode="$" d="M185 524q0 -29 15.5 -47.5t53.5 -35.5v157q-32 -6 -50.5 -25.5t-18.5 -48.5zM381 197q0 29 -16 48t-52 37v-167q68 12 68 82zM478 682l-25 -109q-64 23 -130 26v-183q48 -19 79 -36t58.5 -41.5t40.5 -58t13 -77.5q0 -84 -56 -135t-145 -62v-84h-70v81q-106 5 -190 36 l26 112q84 -35 164 -38v195q-92 36 -139 82.5t-47 120.5q0 87 56.5 136.5t140.5 59.5v76h69v-74q89 -3 155 -27z"/>
<glyph glyph-name="percent" horiz-adv-x="848" unicode="%" d="M697 195q0 106 -50 106q-24 0 -36.5 -29t-12.5 -77t12.5 -76.5t36.5 -28.5q50 0 50 105zM805 195q0 -91 -41 -143t-117 -52q-74 0 -115 52t-41 143q0 92 41 144.5t115 52.5q76 0 117 -52.5t41 -144.5zM251 519q0 48 -13 77t-38 29q-24 0 -36.5 -29t-12.5 -77 q0 -47 12.5 -76t36.5 -29q25 0 38 29t13 76zM357 519q0 -91 -40.5 -143t-116.5 -52q-74 0 -115 52t-41 143q0 92 41 144.5t115 52.5q76 0 116.5 -52t40.5 -145zM684 714l-416 -714h-102l419 714h99z"/>
<glyph glyph-name="ampersand" horiz-adv-x="730" unicode="&amp;" d="M562 167l144 -167h-176l-58 69q-67 -80 -196 -80q-102 0 -168 52.5t-66 148.5q0 139 143 207q-71 71 -71 153q0 88 60.5 132t144.5 44q85 0 141.5 -41t56.5 -127q0 -122 -142 -188l97 -108q29 50 53 117h146q-54 -128 -109 -212zM392 162l-135 155q-78 -37 -78 -111 q0 -45 28.5 -72t74.5 -27q70 0 110 55zM388 552q0 32 -18.5 51.5t-50.5 19.5q-34 0 -53.5 -21t-19.5 -53q0 -52 54 -101q88 36 88 104z"/>
<glyph glyph-name="quotesingle" horiz-adv-x="263" unicode="&apos;" d="M88 491l-24 245h135l-25 -245h-86z"/>
<glyph glyph-name="parenleft" horiz-adv-x="333" unicode="(" d="M166 302q0 -132 34.5 -262t98.5 -235h-129q-60 98 -95 227t-35 270q0 279 130 495h129q-64 -105 -98.5 -234.5t-34.5 -260.5z"/>
<glyph glyph-name="parenright" horiz-adv-x="333" unicode=")" d="M167 299q0 132 -35 262t-98 235h128q130 -214 130 -497q0 -282 -130 -495h-128q63 105 98 235t35 260z"/>
<glyph glyph-name="asterisk" horiz-adv-x="444" unicode="*" d="M268 714v-118l109 41l33 -87l-111 -37l72 -104l-76 -51l-74 107l-73 -107l-75 51l72 104l-111 37l33 87l109 -41v118h92z"/>
<glyph glyph-name="plus" d="M224 69v195h-189v100h189v190h104v-190h189v-100h-189v-195h-104z" unicode="+"/>
<glyph glyph-name="comma" horiz-adv-x="305" unicode="," d="M54 -128l41 284h146l-89 -284h-98z"/>
<glyph glyph-name="hyphen" horiz-adv-x="396" unicode="-" d="M69 243v115h258v-115h-258z"/>
<glyph glyph-name="period" horiz-adv-x="305" unicode="." d="M76 0v157h154v-157h-154z"/>
<glyph glyph-name="slash" horiz-adv-x="489" unicode="/" d="M23 0l323 714h120l-323 -714h-120z"/>
<glyph glyph-name="zero" horiz-adv-x="631" unicode="0" d="M315 609q-125 0 -125 -256q0 -248 125 -248q126 0 126 248q0 119 -30.5 187.5t-95.5 68.5zM315 726q132 0 201.5 -98.5t69.5 -274.5q0 -175 -69 -270t-202 -95t-201.5 95t-68.5 270q0 176 68.5 274.5t201.5 98.5z"/>
<glyph glyph-name="one" horiz-adv-x="446" unicode="1" d="M338 714v-714h-146v576l-133 -79l-52 109l183 108h148z"/>
<glyph glyph-name="two" horiz-adv-x="557" unicode="2" d="M513 117v-117h-479v119q193 169 258.5 247.5t65.5 142.5q0 46 -31 73t-80 27q-75 0 -163 -55l-46 104q96 68 220 68q113 0 179.5 -56t66.5 -158q0 -91 -61 -171.5t-227 -223.5h297z"/>
<glyph glyph-name="three" horiz-adv-x="558" unicode="3" d="M118 306v117h78q153 0 153 97q0 44 -30.5 66.5t-82.5 22.5q-79 0 -158 -39l-36 113q90 43 210 43q105 0 174 -47t69 -141q0 -125 -122 -165v-2q68 -15 103.5 -60.5t35.5 -106.5q0 -107 -76 -161.5t-195 -54.5q-122 0 -218 47l35 111q90 -41 176 -41q60 0 96.5 26t36.5 77 q0 98 -173 98h-76z"/>
<glyph glyph-name="four" horiz-adv-x="598" unicode="4" d="M347 266v317h-2l-195 -317h197zM493 714v-448h78v-117h-78v-149h-146v149h-330v141l273 424h203z"/>
<glyph glyph-name="five" horiz-adv-x="561" unicode="5" d="M376 220q0 63 -50 89.5t-124 26.5q-56 0 -134 -10l21 388h400v-117h-271l-11 -151q27 3 61 3q108 0 180.5 -59t72.5 -162q0 -116 -77 -178t-194 -62q-121 0 -219 44l35 111q85 -38 169 -38q62 0 101.5 27.5t39.5 87.5z"/>
<glyph glyph-name="six" horiz-adv-x="603" unicode="6" d="M189 253q0 -59 31.5 -104t91.5 -45q52 0 84.5 37t32.5 97q0 54 -30 90.5t-85 36.5q-56 0 -90.5 -34t-34.5 -78zM370 609q-83 0 -127.5 -52.5t-54.5 -141.5h2q26 29 66.5 45t81.5 16q110 0 171.5 -65.5t61.5 -172.5q0 -109 -72.5 -179.5t-189.5 -70.5q-61 0 -109 20.5 t-77 53t-48 78t-26 90.5t-7 95q0 179 80.5 290t237.5 111q73 0 141 -21l-23 -116q-55 20 -108 20z"/>
<glyph glyph-name="seven" horiz-adv-x="523" unicode="7" d="M30 597v117h473v-117q-96 -142 -151 -297.5t-66 -299.5h-149q12 142 69.5 307t140.5 290h-317z"/>
<glyph glyph-name="eight" horiz-adv-x="609" unicode="8" d="M304 422q46 0 77.5 25.5t31.5 73.5q0 44 -29.5 68.5t-79.5 24.5q-47 0 -77.5 -25t-30.5 -68q0 -48 31.5 -73.5t76.5 -25.5zM304 726q103 0 175 -51t72 -141q0 -119 -107 -159v-2q130 -52 130 -182q0 -96 -76 -149.5t-194 -53.5q-117 0 -192.5 53.5t-75.5 149.5 q0 131 127 177v2q-106 48 -106 164q0 90 72 141t175 51zM304 311q-46 0 -84.5 -28t-38.5 -79q0 -49 34 -75.5t89 -26.5t89.5 26.5t34.5 75.5q0 51 -38.5 79t-85.5 28z"/>
<glyph glyph-name="nine" horiz-adv-x="603" unicode="9" d="M413 460q0 59 -31.5 104t-91.5 45q-52 0 -84.5 -37t-32.5 -97q0 -54 30 -90.5t86 -36.5t90 34t34 78zM232 104q85 0 129.5 53t52.5 141h-2q-50 -61 -148 -61q-110 0 -171.5 65.5t-61.5 172.5q0 109 72.5 180t189.5 71q61 0 109 -20.5t77 -53.5t48 -78.5t26 -90.5t7 -95 q0 -179 -80.5 -289.5t-239.5 -110.5q-81 0 -151 20l22 116q58 -20 121 -20z"/>
<glyph glyph-name="colon" horiz-adv-x="361" unicode=":" d="M104 371v157h154v-157h-154zM104 0v157h154v-157h-154z"/>
<glyph glyph-name="semicolon" horiz-adv-x="361" unicode=";" d="M71 -128l42 284h145l-89 -284h-98zM104 371v157h154v-157h-154z"/>
<glyph glyph-name="less" d="M518 433l-379 -122v-2l379 -126v-105l-483 159v142l483 159v-105z" unicode="&lt;"/>
<glyph glyph-name="equal" d="M35 163v100h482v-100h-482zM35 365v100h482v-100h-482z" unicode="="/>
<glyph glyph-name="greater" d="M35 183l378 123v2l-378 125v105l483 -159v-142l-483 -159v105z" unicode="&gt;"/>
<glyph glyph-name="question" horiz-adv-x="497" unicode="?" d="M151 0v150h156v-150h-156zM237 609q-71 0 -151 -44l-41 106q89 55 205 55q100 0 165.5 -46.5t65.5 -146.5q0 -109 -86 -171l-37 -27q-39 -28 -52 -47.5t-12 -48.5v-16h-135v26q0 49 16.5 81t56.5 64q5 4 19 14.5t18.5 14.5t16 13t15.5 14t12 13.5t11 15t7 15t5.5 17 t1.5 18.5q0 80 -101 80z"/>
<glyph glyph-name="at" horiz-adv-x="959" unicode="@" d="M732 -43l24 -94q-114 -48 -255 -48q-210 0 -331.5 122t-121.5 324q0 206 131 337t332 131q179 0 290 -96.5t111 -285.5q0 -146 -68 -234t-173 -88q-50 0 -76.5 23.5t-27.5 61.5h-2q-18 -38 -54 -61.5t-79 -23.5q-83 0 -124 59.5t-41 149.5q0 117 62 202.5t164 85.5 q39 0 65.5 -19.5t37.5 -47.5h2l9 42h108l-44 -233q-14 -66 -14 -96q0 -45 36 -45q46 0 77.5 65t31.5 149q0 142 -77 217t-215 75q-155 0 -249 -103.5t-94 -266.5q0 -161 89.5 -251.5t249.5 -90.5q126 0 226 40zM500 423q-50 0 -80 -60.5t-30 -130.5q0 -40 15 -71t49 -31 q38 0 64.5 34.5t36.5 75.5t10 81q0 102 -65 102z"/>
<glyph glyph-name="A" horiz-adv-x="717" unicode="A" d="M357 600l-104 -308h207zM219 174l-62 -174h-155l257 714h200l256 -714h-157l-64 174h-275z"/>
<glyph glyph-name="B" horiz-adv-x="659" unicode="B" d="M224 306v-189h118q61 0 93 20.5t32 73.5t-37.5 74t-105.5 21h-100zM224 597v-174h103q122 0 122 90q0 84 -114 84h-111zM78 0v714h298q100 0 159.5 -44.5t59.5 -135.5q0 -119 -115 -162v-2q133 -37 133 -171q0 -86 -58.5 -142.5t-172.5 -56.5h-304z"/>
<glyph glyph-name="C" horiz-adv-x="622" unicode="C" d="M582 698l-27 -114q-63 25 -128 25q-110 0 -169.5 -72.5t-59.5 -182.5q0 -104 60.5 -176.5t167.5 -72.5q75 0 135 27l25 -113q-75 -31 -177 -31q-161 0 -259 102t-98 265q0 165 97 268t265 103q100 0 168 -28z"/>
<glyph glyph-name="D" horiz-adv-x="733" unicode="D" d="M224 597v-480h76q118 0 176.5 64t58.5 177q0 112 -58.5 175.5t-176.5 63.5h-76zM78 0v714h243q174 0 267 -93.5t93 -260.5q0 -168 -93.5 -264t-266.5 -96h-243z"/>
<glyph glyph-name="E" horiz-adv-x="559" unicode="E" d="M78 0v714h430v-117h-284v-174h261v-117h-261v-189h293v-117h-439z"/>
<glyph glyph-name="F" horiz-adv-x="537" unicode="F" d="M78 0v714h428v-117h-282v-174h258v-117h-258v-306h-146z"/>
<glyph glyph-name="G" horiz-adv-x="735" unicode="G" d="M643 685l-40 -118q-70 42 -163 42q-110 0 -176 -68.5t-66 -188.5q0 -106 62.5 -176.5t170.5 -70.5q55 0 87 14v178h-121v117h266v-376q-101 -50 -243 -50q-167 0 -267.5 102t-100.5 265q0 166 101.5 268.5t285.5 102.5q114 0 204 -41z"/>
<glyph glyph-name="H" horiz-adv-x="721" unicode="H" d="M78 0v714h146v-291h274v291h146v-714h-146v306h-274v-306h-146z"/>
<glyph glyph-name="I" horiz-adv-x="302" unicode="I" d="M78 0v714h146v-714h-146z"/>
<glyph glyph-name="J" horiz-adv-x="360" unicode="J" d="M291 714v-535q0 -97 -51 -144t-158 -47q-44 0 -82 5v117q30 -5 59 -5q44 0 65 20.5t21 69.5v519h146z"/>
<glyph glyph-name="K" horiz-adv-x="650" unicode="K" d="M461 714h174l-254 -345l267 -369h-180l-242 355h-2v-355h-146v714h146v-335h2z"/>
<glyph glyph-name="L" horiz-adv-x="521" unicode="L" d="M78 0v714h146v-597h284v-117h-430z"/>
<glyph glyph-name="M" horiz-adv-x="925" unicode="M" d="M322 714l138 -575h3l138 575h246v-714h-138v592h-2l-157 -592h-182l-154 592h-2v-592h-134v714h244z"/>
<glyph glyph-name="N" horiz-adv-x="737" unicode="N" d="M303 714l217 -570h2v570h137v-714h-218l-225 578h-2v-578h-136v714h225z"/>
<glyph glyph-name="O" horiz-adv-x="777" unicode="O" d="M577 356q0 111 -48 182t-141 71t-141 -71t-48 -182q0 -110 48.5 -180.5t141.5 -70.5q94 0 141 70t47 181zM723 356q0 -165 -88.5 -266.5t-246.5 -101.5t-246.5 101.5t-88.5 266.5q0 166 88 268t247 102t247 -102t88 -268z"/>
<glyph glyph-name="P" horiz-adv-x="637" unicode="P" d="M224 597v-218h107q127 0 127 109q0 60 -34.5 84.5t-99.5 24.5h-100zM78 0v714h268q116 0 187 -52t71 -169q0 -119 -71.5 -175.5t-185.5 -56.5h-123v-261h-146z"/>
<glyph glyph-name="Q" horiz-adv-x="777" unicode="Q" d="M578 356q0 111 -48.5 182t-141.5 71t-141 -71t-48 -182q0 -110 48.5 -180.5t141.5 -70.5q94 0 141.5 70t47.5 181zM723 356q0 -231 -156 -321l109 -152h-161l-75 109q-34 -4 -52 -4q-158 0 -246.5 101.5t-88.5 266.5q0 166 88 268t247 102t247 -102t88 -268z"/>
<glyph glyph-name="R" horiz-adv-x="653" unicode="R" d="M224 597v-192h96q137 0 137 96t-133 96h-100zM78 0v714h277q51 0 93.5 -10t78 -32t56 -60.5t20.5 -91.5q0 -125 -121 -166v-2q34 -12 52.5 -38.5t37.5 -90.5q19 -66 66 -223h-157q-40 159 -48 187q-17 61 -42.5 81t-98.5 20h-68v-288h-146z"/>
<glyph glyph-name="S" horiz-adv-x="568" unicode="S" d="M485 700l-25 -117q-72 26 -153 26q-114 0 -114 -76q0 -36 30 -59.5t105 -53.5q102 -42 150 -89t48 -133q0 -102 -75.5 -156t-188.5 -54q-116 0 -217 36l26 119q94 -38 186 -38q123 0 123 83q0 38 -31.5 63t-108.5 55q-95 38 -144 87t-49 126q0 70 38.5 118.5t93 68.5 t119.5 20q107 0 187 -26z"/>
<glyph glyph-name="T" horiz-adv-x="543" unicode="T" d="M200 0v597h-190v117h522v-117h-186v-597h-146z"/>
<glyph glyph-name="U" horiz-adv-x="710" unicode="U" d="M640 714v-503q0 -106 -79.5 -164.5t-206.5 -58.5q-126 0 -205 58.5t-79 164.5v503h146v-485q0 -63 37 -93.5t100 -30.5t102 31t39 93v485h146z"/>
<glyph glyph-name="V" horiz-adv-x="679" unicode="V" d="M248 0l-245 714h160l176 -574h2l177 574h158l-246 -714h-182z"/>
<glyph glyph-name="W" horiz-adv-x="980" unicode="W" d="M590 0l-98 581h-2l-100 -581h-205l-155 714h159l102 -584h2l92 584h215l89 -584h2l105 584h155l-155 -714h-206z"/>
<glyph glyph-name="X" horiz-adv-x="656" unicode="X" d="M471 714h167l-210 -343l226 -371h-172l-153 268l-156 -268h-172l228 371l-209 343h170l139 -245z"/>
<glyph glyph-name="Y" horiz-adv-x="673" unicode="Y" d="M264 0v272l-263 442h171l166 -304l167 304h167l-262 -442v-272h-146z"/>
<glyph glyph-name="Z" horiz-adv-x="603" unicode="Z" d="M37 117l345 480h-317v117h491v-117l-345 -480h352v-117h-526v117z"/>
<glyph glyph-name="bracketleft" horiz-adv-x="333" unicode="[" d="M281 797v-98h-102v-795h102v-99h-221v992h221z"/>
<glyph glyph-name="backslash" horiz-adv-x="489" unicode="\" d="M144 714l323 -714h-122l-323 714h122z"/>
<glyph glyph-name="bracketright" horiz-adv-x="333" unicode="]" d="M53 -195v98h109v795h-109v99h226v-992h-226z"/>
<glyph glyph-name="asciicircum" d="M274 600l-102 -301h-115l153 401h132l152 -401h-115l-103 301h-2z" unicode="^"/>
<glyph glyph-name="underscore" horiz-adv-x="488" unicode="_" d="M0 -80h488v-77h-488v77z"/>
<glyph glyph-name="grave" horiz-adv-x="461" unicode="`" d="M226 604l-133 164h149l91 -164h-107z"/>
<glyph glyph-name="a" horiz-adv-x="583" unicode="a" d="M373 244h-19q-83 0 -129.5 -18.5t-46.5 -67.5q0 -34 21 -53t57 -19q58 0 87.5 35.5t29.5 85.5v37zM373 332v13q0 88 -117 88q-68 0 -136 -26l-26 102q84 31 172 31q249 0 249 -202v-218q0 -77 8 -120h-126q-9 30 -11 65h-2q-21 -36 -61 -56.5t-92 -20.5q-79 0 -135 40 t-56 124q0 56 25.5 93t74.5 55.5t103 25t130 6.5z"/>
<glyph glyph-name="b" horiz-adv-x="642" unicode="b" d="M454 264q0 76 -30 122.5t-89 46.5q-61 0 -96.5 -47t-35.5 -122t35.5 -122.5t96.5 -47.5q59 0 89 47t30 123zM209 58v-58h-139v735h142v-275h2q58 80 159 80q105 0 164 -78t59 -198t-60.5 -198t-165.5 -78q-107 0 -159 70h-2z"/>
<glyph glyph-name="c" horiz-adv-x="479" unicode="c" d="M450 523l-24 -106q-39 16 -85 16q-73 0 -113 -48t-40 -122t39.5 -121t116.5 -47q51 0 86 15l22 -104q-53 -18 -120 -18q-137 0 -211.5 76.5t-74.5 198.5q0 123 76.5 200t208.5 77q69 0 119 -17z"/>
<glyph glyph-name="d" horiz-adv-x="643" unicode="d" d="M188 264q0 -76 30 -123t90 -47t95.5 47.5t35.5 123.5q0 74 -35.5 121t-95.5 47t-90 -46.5t-30 -122.5zM431 469v266h142v-735h-139v67h-2q-56 -79 -163 -79q-105 0 -164 78t-59 198t60.5 198t165.5 78q104 0 157 -71h2z"/>
<glyph glyph-name="e" horiz-adv-x="590" unicode="e" d="M308 444q-50 0 -83 -34t-39 -89h229q1 56 -28.5 89.5t-78.5 33.5zM548 222h-362q6 -64 53.5 -96t120.5 -32q70 0 126 19l16 -104q-76 -21 -159 -21q-140 0 -219 75.5t-79 199.5q0 122 71.5 199.5t193.5 77.5q114 0 176 -70t62 -191v-57z"/>
<glyph glyph-name="f" horiz-adv-x="350" unicode="f" d="M380 727l-10 -105q-24 6 -60 6q-40 0 -58.5 -17.5t-18.5 -57.5v-25h111v-107h-111v-421h-142v421h-85v107h85v35q0 172 200 172q44 0 89 -8z"/>
<glyph glyph-name="g" horiz-adv-x="641" unicode="g" d="M432 46v37h-2q-53 -69 -153 -69q-106 0 -169 74.5t-63 189.5t63.5 188.5t168.5 73.5q99 0 153 -70h2v58h139v-479q0 -68 -24.5 -117t-67.5 -76t-91.5 -39t-105.5 -12q-92 0 -166 21l17 105q61 -19 133 -19q85 0 125.5 33t40.5 101zM187 278q0 -71 30.5 -114.5t88.5 -43.5 q59 0 95 45t36 113q0 67 -35.5 111t-95.5 44q-59 0 -89 -42.5t-30 -112.5z"/>
<glyph glyph-name="h" horiz-adv-x="632" unicode="h" d="M70 735h142v-278h2q21 40 63 61.5t94 21.5q89 0 142 -52.5t53 -139.5v-348h-142v295q0 69 -21.5 103.5t-76.5 34.5q-47 0 -80.5 -36t-33.5 -111v-286h-142v735z"/>
<glyph glyph-name="i" horiz-adv-x="282" unicode="i" d="M70 732h142v-123h-142v123zM70 528h142v-528h-142v528z"/>
<glyph glyph-name="j" horiz-adv-x="282" unicode="j" d="M70 732h142v-123h-142v123zM212 528v-552q0 -84 -42 -127.5t-141 -43.5q-40 0 -68 4v107q24 -4 45 -4q37 0 50.5 18.5t13.5 62.5v535h142z"/>
<glyph glyph-name="k" horiz-adv-x="573" unicode="k" d="M389 528h169l-195 -236l207 -292h-171l-185 277h-2v-277h-142v735h142v-435h2z"/>
<glyph glyph-name="l" horiz-adv-x="282" unicode="l" d="M70 735h142v-735h-142v735z"/>
<glyph glyph-name="m" horiz-adv-x="946" unicode="m" d="M70 528h139v-72h2q19 39 60 61.5t92 22.5q117 0 155 -86h2q50 86 164 86q98 0 147 -51.5t49 -140.5v-348h-142v295q0 72 -17.5 105t-71.5 33q-42 0 -71.5 -27.5t-29.5 -85.5v-320h-142v297q0 71 -17.5 103.5t-72.5 32.5q-45 0 -74.5 -35.5t-29.5 -109.5v-288h-142v528z "/>
<glyph glyph-name="n" horiz-adv-x="632" unicode="n" d="M70 528h139v-71h2q20 39 63.5 61t96.5 22q89 0 142 -52.5t53 -139.5v-348h-142v295q0 69 -21.5 103.5t-76.5 34.5q-47 0 -80.5 -36t-33.5 -111v-286h-142v528z"/>
<glyph glyph-name="o" horiz-adv-x="630" unicode="o" d="M442 265q0 77 -32 122.5t-95 45.5t-95 -45.5t-32 -122.5q0 -79 32.5 -124.5t94.5 -45.5q63 0 95 45t32 125zM584 265q0 -128 -73.5 -202.5t-195.5 -74.5q-124 0 -196.5 74.5t-72.5 202.5t72.5 201.5t196.5 73.5t196.5 -73.5t72.5 -201.5z"/>
<glyph glyph-name="p" horiz-adv-x="642" unicode="p" d="M454 264q0 76 -30 122.5t-89 46.5q-61 0 -96.5 -47t-35.5 -122t35.5 -122.5t96.5 -47.5q59 0 89 47t30 123zM212 58v-253h-142v723h139v-68h2q58 80 162 80q105 0 164 -78t59 -198t-60.5 -198t-165.5 -78q-104 0 -156 70h-2z"/>
<glyph glyph-name="q" horiz-adv-x="642" unicode="q" d="M188 264q0 -76 30 -123t90 -47t95.5 47.5t35.5 123.5q0 74 -35.5 121t-95.5 47t-90 -46.5t-30 -122.5zM434 469v59h139v-723h-142v262h-2q-56 -79 -159 -79q-106 0 -165 77t-59 197q0 121 60.5 199.5t166.5 78.5t159 -71h2z"/>
<glyph glyph-name="r" horiz-adv-x="397" unicode="r" d="M388 538l-7 -109q-17 4 -41 4q-58 0 -93 -42t-35 -136v-255h-142v528h139v-69h2q38 81 138 81q15 0 39 -2z"/>
<glyph glyph-name="s" horiz-adv-x="492" unicode="s" d="M425 510l-31 -105q-69 28 -144 28q-70 0 -70 -43q0 -22 20.5 -36.5t77.5 -32.5q90 -28 133 -67t43 -105q0 -83 -64.5 -122t-154.5 -39q-110 0 -198 37l28 108q88 -38 169 -38q85 0 85 47q0 23 -23.5 38t-87.5 35q-85 28 -123.5 66.5t-38.5 94.5q0 81 60.5 122.5 t145.5 41.5q95 0 173 -30z"/>
<glyph glyph-name="t" horiz-adv-x="367" unicode="t" d="M10 421v107h81v140h142v-140h110v-107h-110v-236q0 -53 11 -68t49 -15q19 0 47 4v-106q-45 -5 -92 -5q-94 0 -125.5 36t-31.5 117v273h-81z"/>
<glyph glyph-name="u" horiz-adv-x="632" unicode="u" d="M562 0h-139v71h-2q-20 -39 -63 -61t-96 -22q-89 0 -142.5 52.5t-53.5 139.5v348h142v-295q0 -68 22 -103t77 -35q47 0 80 36t33 111v286h142v-528z"/>
<glyph glyph-name="v" horiz-adv-x="564" unicode="v" d="M157 528l125 -400h2l126 400h150l-196 -528h-166l-194 528h153z"/>
<glyph glyph-name="w" horiz-adv-x="864" unicode="w" d="M522 528l90 -400h2l83 400h145l-139 -528h-182l-89 406h-2l-89 -406h-181l-138 528h146l86 -400h2l85 400h181z"/>
<glyph glyph-name="x" horiz-adv-x="556" unicode="x" d="M381 528h156l-162 -254l175 -274h-161l-110 186l-113 -186h-162l177 274l-163 254h160l101 -171z"/>
<glyph glyph-name="y" horiz-adv-x="566" unicode="y" d="M157 528l128 -354h2l127 354h149l-286 -723h-151l86 207l-208 516h153z"/>
<glyph glyph-name="z" horiz-adv-x="511" unicode="z" d="M36 105l260 316h-239v107h410v-106l-257 -315h268v-107h-442v105z"/>
<glyph glyph-name="braceleft" horiz-adv-x="333" unicode="{" d="M9 239v124q42 2 56 28t14 87v156q0 84 45 123.5t118 39.5h48v-105h-27q-32 0 -46 -21t-14 -69v-139q0 -75 -19.5 -110t-72.5 -51v-2q53 -17 72.5 -51.5t19.5 -109.5v-138q0 -51 14 -71t46 -20h27v-105h-48q-73 0 -118 39.5t-45 125.5v154q0 61 -14 87t-56 28z"/>
<glyph glyph-name="bar" horiz-adv-x="465" unicode="|" d="M180 735h105v-930h-105v930z"/>
<glyph glyph-name="braceright" horiz-adv-x="333" unicode="}" d="M324 363v-124q-42 -2 -56.5 -28t-14.5 -87v-156q0 -84 -44.5 -123.5t-117.5 -39.5h-49v105h27q32 0 46 21t14 69v139q0 75 20 110t73 50v2q-53 18 -73 52.5t-20 108.5v139q0 51 -13.5 70.5t-46.5 19.5h-27v106h49q73 0 117.5 -39.5t44.5 -125.5v-154q0 -62 14.5 -87.5 t56.5 -27.5z"/>
<glyph glyph-name="asciitilde" d="M398 336q73 3 115 52v-111q-49 -46 -129 -46q-50 0 -116 33t-106 33q-75 0 -122 -52v111q47 46 130 46q50 0 117.5 -33t110.5 -33z" unicode="~"/>
<glyph glyph-name="uni00A0" horiz-adv-x="260" unicode=" "/>
<glyph glyph-name="exclamdown" horiz-adv-x="317" unicode="¡" d="M237 528v-150h-153v150h153zM77 -186l19 466h126l19 -466h-164z"/>
<glyph glyph-name="cent" horiz-adv-x="478" unicode="¢" d="M190 263q0 -60 20.5 -104.5t64.5 -56.5v322q-43 -13 -64 -57.5t-21 -103.5zM444 522l-23 -107q-36 14 -69 17v-335q37 2 73 18l22 -108q-45 -15 -95 -18v-56h-77v59q-109 15 -168 88.5t-59 182.5q0 111 60.5 185.5t166.5 88.5v63h77v-61q53 -3 92 -17z"/>
<glyph glyph-name="sterling" horiz-adv-x="594" unicode="£" d="M526 700l-35 -115q-37 18 -91 18q-56 0 -83.5 -31.5t-27.5 -85.5v-67h165v-100h-165v-202h258v-117h-499v117h97v202h-90v100h90v72q0 107 64 169.5t188 62.5q75 0 129 -23z"/>
<glyph glyph-name="currency" horiz-adv-x="555" unicode="¤" d="M278 235q38 0 62.5 25.5t24.5 64.5q0 37 -25 62.5t-62 25.5q-38 0 -63 -25.5t-25 -62.5q0 -38 25 -64t63 -26zM32 166l71 71q-20 37 -20 88q0 49 20 85l-71 72l88 88l71 -72q38 20 87 20q46 0 86 -20l71 72l87 -88l-71 -70q21 -44 21 -87q0 -48 -20 -88l70 -70l-88 -87 l-22 22t-26 25.5t-22 22.5q-37 -20 -86 -20q-48 0 -88 20l-71 -70z"/>
<glyph glyph-name="yen" horiz-adv-x="648" unicode="¥" d="M88 234h165v58h-165v88h118l-191 334h155l155 -300l158 300h150l-192 -334h117v-88h-164v-58h164v-88h-164v-146h-141v146h-165v88z"/>
<glyph glyph-name="brokenbar" horiz-adv-x="465" unicode="¦" d="M180 173h105v-368h-105v368zM180 735h105v-368h-105v368z"/>
<glyph glyph-name="section" horiz-adv-x="535" unicode="§" d="M288 347l-62 26q-57 -14 -57 -63q0 -29 20 -45.5t74 -39.5l59 -25q24 6 38 22.5t14 39.5q0 30 -21 48.5t-65 36.5zM54 -111l39 106q86 -44 166 -44q92 0 92 62q0 28 -25.5 47.5t-107.5 55.5q-101 43 -139 78.5t-38 98.5q0 93 95 135q-72 41 -72 124q0 49 19 84t52 54 t71 27.5t84 8.5q92 0 168 -30l-35 -107q-66 29 -134 29q-91 0 -91 -60q0 -29 26.5 -48.5t105.5 -52.5q91 -38 129.5 -77t38.5 -101q0 -86 -82 -127q75 -49 75 -129q0 -95 -65 -138t-165 -43q-113 0 -207 47z"/>
<glyph glyph-name="dieresis" horiz-adv-x="461" unicode="¨" d="M395 743v-118h-125v118h125zM189 743v-118h-124v118h124z"/>
<glyph glyph-name="copyright" horiz-adv-x="796" unicode="©" d="M522 568l-16 -81q-36 16 -79 16q-64 0 -93.5 -42t-29.5 -106q0 -60 31 -100t93 -40q42 0 80 16l15 -79q-43 -18 -107 -18q-98 0 -155 61.5t-57 160.5q0 100 56 163.5t157 63.5q67 0 105 -15zM33 355q0 156 104 262t263 106q158 0 260.5 -106t102.5 -262 q0 -154 -102.5 -259t-260.5 -105q-159 0 -263 105.5t-104 258.5zM92 355q0 -131 86.5 -221t221.5 -90q133 0 219 90.5t86 220.5q0 132 -86 224t-219 92q-135 0 -221.5 -92t-86.5 -224z"/>
<glyph glyph-name="ordfeminine" horiz-adv-x="354" unicode="ª" d="M220 514h-8q-97 0 -97 -47q0 -38 43 -38q32 0 47 20t15 48v17zM221 573v7q0 47 -66 47q-41 0 -85 -17l-17 68q48 20 109 20q153 0 153 -124v-130q0 -49 4 -73h-84q-5 17 -5 34h-2q-27 -42 -91 -42q-48 0 -82 24t-34 76q0 34 15 56.5t44.5 34t62.5 15.5t78 4z"/>
<glyph glyph-name="guillemotleft" horiz-adv-x="565" unicode="«" d="M508 503l-120 -205l120 -206h-123l-119 203v5l122 203h120zM299 503l-120 -205l120 -206h-123l-119 203v5l123 203h119z"/>
<glyph glyph-name="logicalnot" d="M28 351v96h481v-309h-101v213h-380z" unicode="¬"/>
<glyph glyph-name="uni00AD" horiz-adv-x="396" unicode="­" d="M69 243v115h258v-115h-258z"/>
<glyph glyph-name="registered" horiz-adv-x="498" unicode="®" d="M215 605v-66h33q48 0 48 34q0 32 -45 32h-36zM157 404v243h109q86 0 86 -67q0 -45 -47 -58v-1q14 -5 22.5 -14t14.5 -30q7 -24 24 -73h-64q-3 10 -8.5 31.5t-6.5 26.5q-6 21 -15.5 27.5t-35.5 6.5h-21v-92h-58zM71 525q0 -76 49.5 -127.5t129.5 -51.5q79 0 128.5 51.5 t49.5 127.5q0 75 -49.5 126.5t-128.5 51.5q-80 0 -129.5 -51.5t-49.5 -126.5zM37 525q0 89 60 149.5t153 60.5t152 -60.5t59 -149.5q0 -90 -59 -150t-152 -60t-153 60t-60 150z"/>
<glyph glyph-name="macron" horiz-adv-x="461" unicode="¯" d="M374 729v-91h-284v91h284z"/>
<glyph glyph-name="degree" horiz-adv-x="368" unicode="°" d="M183 641q-28 0 -47.5 -20.5t-19.5 -48.5q0 -29 19.5 -49t47.5 -20q30 0 49 20t19 49t-19.5 49t-48.5 20zM186 726q63 0 107 -45.5t44 -108.5q0 -64 -44 -109t-109 -45q-66 0 -110 45t-44 110q0 64 45 108.5t111 44.5z"/>
<glyph glyph-name="plusminus" d="M224 215v136h-189v100h189v139h104v-139h189v-100h-189v-136h-104zM35 70v99h482v-99h-482z" unicode="±"/>
<glyph glyph-name="twosuperior" horiz-adv-x="385" unicode="²" d="M339 508v-80h-294v82q109 92 148 137t39 81q0 25 -16 39.5t-43 14.5q-46 0 -98 -30l-30 72q60 40 138 40q69 0 108.5 -35t39.5 -97q0 -54 -35.5 -100.5t-126.5 -123.5h170z"/>
<glyph glyph-name="threesuperior" horiz-adv-x="385" unicode="³" d="M100 607v79h53q80 0 80 50q0 23 -17 35t-44 12q-46 0 -94 -22l-23 77q55 26 129 26q65 0 107 -28t42 -86q0 -73 -68 -96v-2q38 -11 58 -38.5t20 -62.5q0 -66 -46.5 -98t-120.5 -32t-135 28l25 77q54 -24 104 -24q33 0 52.5 13.5t19.5 39.5q0 52 -90 52h-52z"/>
<glyph glyph-name="acute" horiz-adv-x="461" unicode="´" d="M358 768l-133 -164h-107l91 164h149z"/>
<glyph glyph-name="mu" horiz-adv-x="665" unicode="µ" d="M430 73h-2q-39 -85 -136 -85q-53 0 -78 22h-2v-205h-142v723h142v-295q0 -69 22 -103.5t77 -34.5q47 0 80 36t33 111v286h142v-353q0 -46 8.5 -59.5t30.5 -13.5q15 0 25 3v-105q-37 -5 -66 -5q-111 0 -134 78z"/>
<glyph glyph-name="paragraph" horiz-adv-x="554" unicode="¶" d="M507 714v-831h-91v752h-74v-752h-91v441q-91 0 -149.5 53.5t-58.5 132.5q0 96 60.5 150t166.5 54h237z"/>
<glyph glyph-name="periodcentered" horiz-adv-x="305" unicode="·" d="M76 223v157h154v-157h-154z"/>
<glyph glyph-name="cedilla" horiz-adv-x="461" unicode="¸" d="M232 8l-14 -53q7 1 21 1q37 0 62.5 -21.5t25.5 -58.5q0 -47 -35.5 -70t-95.5 -23q-47 0 -72 6l7 60q25 -4 55 -4q54 0 54 27q0 25 -50 25q-26 0 -52 -3l16 114h78z"/>
<glyph glyph-name="onesuperior" horiz-adv-x="385" unicode="¹" d="M265 856v-428h-103v333l-77 -42l-33 77l111 60h102z"/>
<glyph glyph-name="ordmasculine" horiz-adv-x="383" unicode="º" d="M261 531q0 96 -70 96q-35 0 -52 -26t-17 -70q0 -45 17.5 -70.5t51.5 -25.5q70 0 70 96zM359 531q0 -77 -46 -122t-122 -45t-121.5 45t-45.5 122t45.5 122t121.5 45q77 0 122.5 -44.5t45.5 -122.5z"/>
<glyph glyph-name="guillemotright" horiz-adv-x="565" unicode="»" d="M57 92l120 206l-120 205h123l119 -203v-5l-123 -203h-119zM266 92l120 206l-120 205h123l119 -203v-5l-123 -203h-119z"/>
<glyph glyph-name="onequarter" horiz-adv-x="883" unicode="¼" d="M719 165v170h-2l-101 -170h103zM819 428v-263h45v-81h-45v-84h-100v84h-194v96l160 248h134zM265 716v-428h-103v333l-77 -42l-33 77l111 60h102zM709 714l-405 -714h-102l406 714h101z"/>
<glyph glyph-name="onehalf" horiz-adv-x="883" unicode="½" d="M841 80v-80h-294v82q109 92 148 137t39 81q0 25 -16 39.5t-43 14.5q-46 0 -98 -30l-30 72q60 40 138 40q69 0 108.5 -35t39.5 -97q0 -54 -35.5 -100.5t-126.5 -123.5h170zM265 716v-428h-103v333l-77 -42l-33 77l111 60h102zM695 714l-405 -714h-102l406 714h101z"/>
<glyph glyph-name="threequarters" horiz-adv-x="883" unicode="¾" d="M100 467v79h53q80 0 80 50q0 23 -17 35t-44 12q-46 0 -94 -22l-23 77q55 26 129 26q65 0 107 -28t42 -86q0 -73 -68 -96v-2q38 -11 58 -38.5t20 -62.5q0 -66 -46.5 -98t-120.5 -32t-135 28l25 77q54 -24 104 -24q33 0 52.5 13.5t19.5 39.5q0 52 -90 52h-52zM719 165v170 h-2l-101 -170h103zM819 428v-263h45v-81h-45v-84h-100v84h-194v96l160 248h134zM709 714l-405 -714h-102l406 714h101z"/>
<glyph glyph-name="questiondown" horiz-adv-x="497" unicode="¿" d="M345 528v-151h-156v151h156zM260 -81q70 0 151 44l40 -106q-88 -55 -205 -55q-104 0 -167.5 49t-63.5 157q6 97 87 158q72 56 84 69q16 20 16 53v17h135v-27q0 -49 -16 -81t-56 -64q-51 -36 -79 -66.5t-28 -67.5q0 -80 102 -80z"/>
<glyph glyph-name="Agrave" horiz-adv-x="717" unicode="À" d="M186 908h157l94 -145h-115zM357 600l-104 -308h207zM219 174l-62 -174h-155l257 714h200l256 -714h-157l-64 174h-275z"/>
<glyph glyph-name="Aacute" horiz-adv-x="717" unicode="Á" d="M543 908l-137 -145h-115l95 145h157zM357 600l-104 -308h207zM219 174l-62 -174h-155l257 714h200l256 -714h-157l-64 174h-275z"/>
<glyph glyph-name="Acircumflex" horiz-adv-x="717" unicode="Â" d="M545 760h-115l-73 89l-73 -89h-116l116 152h146zM357 600l-104 -308h207zM219 174l-62 -174h-155l257 714h200l256 -714h-157l-64 174h-275z"/>
<glyph glyph-name="Atilde" horiz-adv-x="717" unicode="Ã" d="M371 879q35 -23 55 -23q30 0 32 55h79q-5 -149 -101 -149q-35 0 -85 29q-44 26 -62 26q-32 0 -35 -54h-79q4 70 31.5 109t72.5 39q41 0 92 -32zM357 600l-104 -308h207zM219 174l-62 -174h-155l257 714h200l256 -714h-157l-64 174h-275z"/>
<glyph glyph-name="Adieresis" horiz-adv-x="717" unicode="Ä" d="M520 905v-122h-125v122h125zM314 905v-122h-124v122h124zM357 600l-104 -308h207zM219 174l-62 -174h-155l257 714h200l256 -714h-157l-64 174h-275z"/>
<glyph glyph-name="Aring" horiz-adv-x="717" unicode="Å" d="M356 899q-23 0 -38 -16t-15 -40q0 -25 15 -40.5t38 -15.5t38.5 15.5t15.5 39.5q0 25 -15.5 41t-38.5 16zM357 949q45 0 75 -30.5t30 -75.5q0 -47 -30 -76.5t-76 -29.5q-45 0 -75 30t-30 76q0 45 30.5 75.5t75.5 30.5zM357 600l-104 -308h207zM219 174l-62 -174h-155 l257 714h200l256 -714h-157l-64 174h-275z"/>
<glyph glyph-name="AE" horiz-adv-x="898" unicode="Æ" d="M433 601l-145 -316h147v316h-2zM240 168l-79 -168h-160l335 714h526v-117h-284v-174h258v-117h-258v-189h293v-117h-436v168h-195z"/>
<glyph glyph-name="Ccedilla" horiz-adv-x="622" unicode="Ç" d="M582 698l-27 -114q-63 25 -128 25q-110 0 -169.5 -72.5t-59.5 -182.5q0 -104 60.5 -176.5t167.5 -72.5q75 0 135 27l25 -113q-70 -28 -165 -31l-8 -33q7 1 21 1q37 0 62.5 -21.5t25.5 -58.5q0 -47 -35.5 -70t-95.5 -23q-47 0 -72 6l7 60q25 -4 55 -4q54 0 54 27 q0 25 -50 25q-27 0 -52 -3l14 99q-135 19 -215 117.5t-80 244.5q0 165 97 268t265 103q100 0 168 -28z"/>
<glyph glyph-name="Egrave" horiz-adv-x="559" unicode="È" d="M113 908h157l94 -145h-115zM78 0v714h430v-117h-284v-174h261v-117h-261v-189h293v-117h-439z"/>
<glyph glyph-name="Eacute" horiz-adv-x="559" unicode="É" d="M482 908l-137 -145h-115l95 145h157zM78 0v714h430v-117h-284v-174h261v-117h-261v-189h293v-117h-439z"/>
<glyph glyph-name="Ecircumflex" horiz-adv-x="559" unicode="Ê" d="M485 760h-115l-73 89l-73 -89h-116l116 152h146zM78 0v714h430v-117h-284v-174h261v-117h-261v-189h293v-117h-439z"/>
<glyph glyph-name="Edieresis" horiz-adv-x="559" unicode="Ë" d="M456 905v-122h-125v122h125zM250 905v-122h-124v122h124zM78 0v714h430v-117h-284v-174h261v-117h-261v-189h293v-117h-439z"/>
<glyph glyph-name="Igrave" horiz-adv-x="302" unicode="Ì" d="M-31 908h157l94 -145h-115zM78 0v714h146v-714h-146z"/>
<glyph glyph-name="Iacute" horiz-adv-x="302" unicode="Í" d="M337 908l-137 -145h-115l95 145h157zM78 0v714h146v-714h-146z"/>
<glyph glyph-name="Icircumflex" horiz-adv-x="302" unicode="Î" d="M342 760h-115l-73 89l-73 -89h-116l116 152h146zM78 0v714h146v-714h-146z"/>
<glyph glyph-name="Idieresis" horiz-adv-x="302" unicode="Ï" d="M317 905v-122h-125v122h125zM111 905v-122h-124v122h124zM78 0v714h146v-714h-146z"/>
<glyph glyph-name="Eth" horiz-adv-x="733" unicode="Ð" d="M224 597v-190h124v-82h-124v-208h76q118 0 176.5 64t58.5 177q0 112 -58.5 175.5t-176.5 63.5h-76zM78 0v325h-62v82h62v307h243q174 0 267 -93.5t93 -260.5q0 -168 -93.5 -264t-266.5 -96h-243z"/>
<glyph glyph-name="Ntilde" horiz-adv-x="737" unicode="Ñ" d="M397 879q35 -23 55 -23q30 0 32 55h79q-5 -149 -101 -149q-35 0 -85 29q-44 26 -62 26q-32 0 -35 -54h-79q4 70 31.5 109t72.5 39q41 0 92 -32zM303 714l217 -570h2v570h137v-714h-218l-225 578h-2v-578h-136v714h225z"/>
<glyph glyph-name="Ograve" horiz-adv-x="777" unicode="Ò" d="M201 908h157l94 -145h-115zM577 356q0 111 -48 182t-141 71t-141 -71t-48 -182q0 -110 48.5 -180.5t141.5 -70.5q94 0 141 70t47 181zM723 356q0 -165 -88.5 -266.5t-246.5 -101.5t-246.5 101.5t-88.5 266.5q0 166 88 268t247 102t247 -102t88 -268z"/>
<glyph glyph-name="Oacute" horiz-adv-x="777" unicode="Ó" d="M573 908l-137 -145h-115l95 145h157zM577 356q0 111 -48 182t-141 71t-141 -71t-48 -182q0 -110 48.5 -180.5t141.5 -70.5q94 0 141 70t47 181zM723 356q0 -165 -88.5 -266.5t-246.5 -101.5t-246.5 101.5t-88.5 266.5q0 166 88 268t247 102t247 -102t88 -268z"/>
<glyph glyph-name="Ocircumflex" horiz-adv-x="777" unicode="Ô" d="M578 760h-115l-73 89l-73 -89h-116l116 152h146zM577 356q0 111 -48 182t-141 71t-141 -71t-48 -182q0 -110 48.5 -180.5t141.5 -70.5q94 0 141 70t47 181zM723 356q0 -165 -88.5 -266.5t-246.5 -101.5t-246.5 101.5t-88.5 266.5q0 166 88 268t247 102t247 -102t88 -268z "/>
<glyph glyph-name="Otilde" horiz-adv-x="777" unicode="Õ" d="M401 879q35 -23 55 -23q30 0 32 55h79q-5 -149 -101 -149q-35 0 -85 29q-44 26 -62 26q-32 0 -35 -54h-79q4 70 31.5 109t72.5 39q41 0 92 -32zM577 356q0 111 -48 182t-141 71t-141 -71t-48 -182q0 -110 48.5 -180.5t141.5 -70.5q94 0 141 70t47 181zM723 356 q0 -165 -88.5 -266.5t-246.5 -101.5t-246.5 101.5t-88.5 266.5q0 166 88 268t247 102t247 -102t88 -268z"/>
<glyph glyph-name="Odieresis" horiz-adv-x="777" unicode="Ö" d="M551 905v-122h-125v122h125zM345 905v-122h-124v122h124zM577 356q0 111 -48 182t-141 71t-141 -71t-48 -182q0 -110 48.5 -180.5t141.5 -70.5q94 0 141 70t47 181zM723 356q0 -165 -88.5 -266.5t-246.5 -101.5t-246.5 101.5t-88.5 266.5q0 166 88 268t247 102t247 -102 t88 -268z"/>
<glyph glyph-name="multiply" d="M33 145l168 167l-168 166l76 75l167 -167l166 167l75 -75l-167 -166l167 -167l-75 -75l-166 167l-167 -167z" unicode="×"/>
<glyph glyph-name="Oslash" horiz-adv-x="777" unicode="Ø" d="M577 356q0 88 -27 148l-277 -359q45 -40 116 -40q94 0 141 70t47 181zM199 356q0 -87 24 -140l276 356q-43 37 -111 37q-93 0 -141 -71t-48 -182zM723 356q0 -165 -88.5 -266.5t-246.5 -101.5q-115 0 -194 54l-59 -75l-65 50l63 82q-80 96 -80 257q0 166 88 268t247 102 q111 0 188 -53l58 75l66 -50l-61 -79q84 -103 84 -263z"/>
<glyph glyph-name="Ugrave" horiz-adv-x="710" unicode="Ù" d="M175 908h157l94 -145h-115zM640 714v-503q0 -106 -79.5 -164.5t-206.5 -58.5q-126 0 -205 58.5t-79 164.5v503h146v-485q0 -63 37 -93.5t100 -30.5t102 31t39 93v485h146z"/>
<glyph glyph-name="Uacute" horiz-adv-x="710" unicode="Ú" d="M530 908l-137 -145h-115l95 145h157zM640 714v-503q0 -106 -79.5 -164.5t-206.5 -58.5q-126 0 -205 58.5t-79 164.5v503h146v-485q0 -63 37 -93.5t100 -30.5t102 31t39 93v485h146z"/>
<glyph glyph-name="Ucircumflex" horiz-adv-x="710" unicode="Û" d="M541 760h-115l-73 89l-73 -89h-116l116 152h146zM640 714v-503q0 -106 -79.5 -164.5t-206.5 -58.5q-126 0 -205 58.5t-79 164.5v503h146v-485q0 -63 37 -93.5t100 -30.5t102 31t39 93v485h146z"/>
<glyph glyph-name="Udieresis" horiz-adv-x="710" unicode="Ü" d="M519 905v-122h-125v122h125zM313 905v-122h-124v122h124zM640 714v-503q0 -106 -79.5 -164.5t-206.5 -58.5q-126 0 -205 58.5t-79 164.5v503h146v-485q0 -63 37 -93.5t100 -30.5t102 31t39 93v485h146z"/>
<glyph glyph-name="Yacute" horiz-adv-x="673" unicode="Ý" d="M526 908l-137 -145h-115l95 145h157zM264 0v272l-263 442h171l166 -304l167 304h167l-262 -442v-272h-146z"/>
<glyph glyph-name="Thorn" horiz-adv-x="638" unicode="Þ" d="M224 490v-219h109q125 0 125 109q0 60 -34 85t-98 25h-102zM78 0v714h146v-107h124q116 0 186 -52.5t70 -169.5q0 -119 -71 -175t-185 -56h-124v-154h-146z"/>
<glyph glyph-name="germandbls" horiz-adv-x="672" unicode="ß" d="M350 735q105 0 176 -50.5t71 -149.5q0 -63 -35 -104.5t-91 -54.5v-2q61 -10 108.5 -53.5t47.5 -124.5q0 -104 -67 -156t-162 -52q-75 0 -124 16l14 103q42 -12 89 -12q50 0 79.5 26t29.5 77q0 57 -42.5 83.5t-133.5 26.5v109q145 7 145 111q0 45 -29.5 71.5t-79.5 26.5 q-65 0 -99.5 -40t-34.5 -118v-468h-142v477q0 72 23 124.5t63.5 80.5t88 40.5t105.5 12.5z"/>
<glyph glyph-name="agrave" horiz-adv-x="583" unicode="à" d="M277 604l-133 164h149l91 -164h-107zM373 244h-19q-83 0 -129.5 -18.5t-46.5 -67.5q0 -34 21 -53t57 -19q58 0 87.5 35.5t29.5 85.5v37zM373 332v13q0 88 -117 88q-68 0 -136 -26l-26 102q84 31 172 31q249 0 249 -202v-218q0 -77 8 -120h-126q-9 30 -11 65h-2 q-21 -36 -61 -56.5t-92 -20.5q-79 0 -135 40t-56 124q0 56 25.5 93t74.5 55.5t103 25t130 6.5z"/>
<glyph glyph-name="aacute" horiz-adv-x="583" unicode="á" d="M480 768l-133 -164h-107l91 164h149zM373 244h-19q-83 0 -129.5 -18.5t-46.5 -67.5q0 -34 21 -53t57 -19q58 0 87.5 35.5t29.5 85.5v37zM373 332v13q0 88 -117 88q-68 0 -136 -26l-26 102q84 31 172 31q249 0 249 -202v-218q0 -77 8 -120h-126q-9 30 -11 65h-2 q-21 -36 -61 -56.5t-92 -20.5q-79 0 -135 40t-56 124q0 56 25.5 93t74.5 55.5t103 25t130 6.5z"/>
<glyph glyph-name="acircumflex" horiz-adv-x="583" unicode="â" d="M466 604h-105l-67 103l-66 -103h-104l101 164h140zM373 244h-19q-83 0 -129.5 -18.5t-46.5 -67.5q0 -34 21 -53t57 -19q58 0 87.5 35.5t29.5 85.5v37zM373 332v13q0 88 -117 88q-68 0 -136 -26l-26 102q84 31 172 31q249 0 249 -202v-218q0 -77 8 -120h-126q-9 30 -11 65 h-2q-21 -36 -61 -56.5t-92 -20.5q-79 0 -135 40t-56 124q0 56 25.5 93t74.5 55.5t103 25t130 6.5z"/>
<glyph glyph-name="atilde" horiz-adv-x="583" unicode="ã" d="M309 723q37 -23 55 -23q30 0 32 55h79q-5 -148 -101 -148q-36 0 -85 28q-44 26 -62 26q-32 0 -35 -54h-79q4 70 31.5 109t72.5 39q41 0 92 -32zM373 244h-19q-83 0 -129.5 -18.5t-46.5 -67.5q0 -34 21 -53t57 -19q58 0 87.5 35.5t29.5 85.5v37zM373 332v13q0 88 -117 88 q-68 0 -136 -26l-26 102q84 31 172 31q249 0 249 -202v-218q0 -77 8 -120h-126q-9 30 -11 65h-2q-21 -36 -61 -56.5t-92 -20.5q-79 0 -135 40t-56 124q0 56 25.5 93t74.5 55.5t103 25t130 6.5z"/>
<glyph glyph-name="adieresis" horiz-adv-x="583" unicode="ä" d="M461 743v-118h-125v118h125zM255 743v-118h-124v118h124zM373 244h-19q-83 0 -129.5 -18.5t-46.5 -67.5q0 -34 21 -53t57 -19q58 0 87.5 35.5t29.5 85.5v37zM373 332v13q0 88 -117 88q-68 0 -136 -26l-26 102q84 31 172 31q249 0 249 -202v-218q0 -77 8 -120h-126 q-9 30 -11 65h-2q-21 -36 -61 -56.5t-92 -20.5q-79 0 -135 40t-56 124q0 56 25.5 93t74.5 55.5t103 25t130 6.5z"/>
<glyph glyph-name="aring" horiz-adv-x="583" unicode="å" d="M299 748q-23 0 -38 -15.5t-15 -39.5q0 -25 15 -41t38 -16t38.5 16t15.5 40t-15.5 40t-38.5 16zM300 799q45 0 75 -30.5t30 -75.5q0 -47 -29.5 -76.5t-76.5 -29.5q-45 0 -75 29.5t-30 76.5q0 45 30.5 75.5t75.5 30.5zM373 244h-19q-83 0 -129.5 -18.5t-46.5 -67.5 q0 -34 21 -53t57 -19q58 0 87.5 35.5t29.5 85.5v37zM373 332v13q0 88 -117 88q-68 0 -136 -26l-26 102q84 31 172 31q249 0 249 -202v-218q0 -77 8 -120h-126q-9 30 -11 65h-2q-21 -36 -61 -56.5t-92 -20.5q-79 0 -135 40t-56 124q0 56 25.5 93t74.5 55.5t103 25t130 6.5z "/>
<glyph glyph-name="ae" horiz-adv-x="908" unicode="æ" d="M372 239h-18q-83 0 -129.5 -18t-46.5 -66q0 -70 80 -70q61 0 87.5 40.5t26.5 94.5v19zM627 444q-48 0 -81 -32.5t-39 -88.5h226v3q0 53 -28.5 85.5t-77.5 32.5zM231 -12q-81 0 -136.5 39t-55.5 123q0 45 18 78t46.5 51.5t74 29.5t90 14.5t104.5 3.5v17q0 89 -117 89 q-67 0 -136 -26q-2 10 -26 102q84 31 172 31q151 0 197 -74q62 74 167 74q111 0 174 -69t63 -189v-58h-360q8 -65 52.5 -97.5t113.5 -32.5q77 0 133 19q11 -75 16 -104q-75 -21 -164 -21q-155 0 -219 96q-35 -48 -82 -72t-125 -24z"/>
<glyph glyph-name="ccedilla" horiz-adv-x="479" unicode="ç" d="M450 523l-24 -106q-39 16 -85 16q-73 0 -113 -48t-40 -122t39.5 -121t116.5 -47q51 0 86 15l22 -104q-53 -18 -120 -18h-16l-8 -33q7 1 21 1q37 0 62.5 -21.5t25.5 -58.5q0 -47 -35.5 -70t-95.5 -23q-47 0 -72 6l7 60q25 -4 55 -4q54 0 54 27q0 25 -50 25q-26 0 -52 -3 l14 104q-95 24 -145.5 94.5t-50.5 170.5q0 123 76.5 200t208.5 77q69 0 119 -17z"/>
<glyph glyph-name="egrave" horiz-adv-x="590" unicode="è" d="M276 604l-133 164h149l91 -164h-107zM308 444q-50 0 -83 -34t-39 -89h229q1 56 -28.5 89.5t-78.5 33.5zM548 222h-362q6 -64 53.5 -96t120.5 -32q70 0 126 19l16 -104q-76 -21 -159 -21q-140 0 -219 75.5t-79 199.5q0 122 71.5 199.5t193.5 77.5q114 0 176 -70t62 -191 v-57z"/>
<glyph glyph-name="eacute" horiz-adv-x="590" unicode="é" d="M485 768l-133 -164h-107l91 164h149zM308 444q-50 0 -83 -34t-39 -89h229q1 56 -28.5 89.5t-78.5 33.5zM548 222h-362q6 -64 53.5 -96t120.5 -32q70 0 126 19l16 -104q-76 -21 -159 -21q-140 0 -219 75.5t-79 199.5q0 122 71.5 199.5t193.5 77.5q114 0 176 -70t62 -191 v-57z"/>
<glyph glyph-name="ecircumflex" horiz-adv-x="590" unicode="ê" d="M479 604h-105l-67 103l-66 -103h-104l101 164h140zM308 444q-50 0 -83 -34t-39 -89h229q1 56 -28.5 89.5t-78.5 33.5zM548 222h-362q6 -64 53.5 -96t120.5 -32q70 0 126 19l16 -104q-76 -21 -159 -21q-140 0 -219 75.5t-79 199.5q0 122 71.5 199.5t193.5 77.5 q114 0 176 -70t62 -191v-57z"/>
<glyph glyph-name="edieresis" horiz-adv-x="590" unicode="ë" d="M475 743v-118h-125v118h125zM269 743v-118h-124v118h124zM308 444q-50 0 -83 -34t-39 -89h229q1 56 -28.5 89.5t-78.5 33.5zM548 222h-362q6 -64 53.5 -96t120.5 -32q70 0 126 19l16 -104q-76 -21 -159 -21q-140 0 -219 75.5t-79 199.5q0 122 71.5 199.5t193.5 77.5 q114 0 176 -70t62 -191v-57z"/>
<glyph glyph-name="igrave" horiz-adv-x="282" unicode="ì" d="M70 528h143v-528h-143v528zM100 604l-133 164h149l91 -164h-107z"/>
<glyph glyph-name="iacute" horiz-adv-x="282" unicode="í" d="M70 528h143v-528h-143v528zM315 768l-133 -164h-107l91 164h149z"/>
<glyph glyph-name="icircumflex" horiz-adv-x="282" unicode="î" d="M315 604h-105l-67 103l-66 -103h-104l101 164h140zM70 528h143v-528h-143v528z"/>
<glyph glyph-name="idieresis" horiz-adv-x="282" unicode="ï" d="M70 528h143v-528h-143v528zM309 743v-118h-125v118h125zM103 743v-118h-124v118h124z"/>
<glyph glyph-name="eth" horiz-adv-x="631" unicode="ð" d="M442 251q0 72 -33.5 114t-93.5 42q-59 0 -92.5 -42t-33.5 -114q0 -73 33.5 -114.5t92.5 -41.5q60 0 93.5 41.5t33.5 114.5zM346 581l-178 -56v82l93 27q-36 17 -82 31l85 77q76 -25 137 -67l119 40v-81l-52 -16q115 -122 115 -332q0 -143 -70.5 -220.5t-201.5 -77.5 q-119 0 -191.5 71t-72.5 189t68 188.5t182 70.5q78 0 129 -39h2q-20 61 -82 113z"/>
<glyph glyph-name="ntilde" horiz-adv-x="632" unicode="ñ" d="M348 723q37 -23 55 -23q30 0 32 55h79q-5 -148 -101 -148q-36 0 -85 28q-44 26 -62 26q-32 0 -35 -54h-79q4 70 31.5 109t72.5 39q41 0 92 -32zM70 528h139v-71h2q20 39 63.5 61t96.5 22q89 0 142 -52.5t53 -139.5v-348h-142v295q0 69 -21.5 103.5t-76.5 34.5 q-47 0 -80.5 -36t-33.5 -111v-286h-142v528z"/>
<glyph glyph-name="ograve" horiz-adv-x="630" unicode="ò" d="M269 604l-133 164h149l91 -164h-107zM442 265q0 77 -32 122.5t-95 45.5t-95 -45.5t-32 -122.5q0 -79 32.5 -124.5t94.5 -45.5q63 0 95 45t32 125zM584 265q0 -128 -73.5 -202.5t-195.5 -74.5q-124 0 -196.5 74.5t-72.5 202.5t72.5 201.5t196.5 73.5t196.5 -73.5 t72.5 -201.5z"/>
<glyph glyph-name="oacute" horiz-adv-x="630" unicode="ó" d="M498 768l-133 -164h-107l91 164h149zM442 265q0 77 -32 122.5t-95 45.5t-95 -45.5t-32 -122.5q0 -79 32.5 -124.5t94.5 -45.5q63 0 95 45t32 125zM584 265q0 -128 -73.5 -202.5t-195.5 -74.5q-124 0 -196.5 74.5t-72.5 202.5t72.5 201.5t196.5 73.5t196.5 -73.5 t72.5 -201.5z"/>
<glyph glyph-name="ocircumflex" horiz-adv-x="630" unicode="ô" d="M487 604h-105l-67 103l-66 -103h-104l101 164h140zM442 265q0 77 -32 122.5t-95 45.5t-95 -45.5t-32 -122.5q0 -79 32.5 -124.5t94.5 -45.5q63 0 95 45t32 125zM584 265q0 -128 -73.5 -202.5t-195.5 -74.5q-124 0 -196.5 74.5t-72.5 202.5t72.5 201.5t196.5 73.5 t196.5 -73.5t72.5 -201.5z"/>
<glyph glyph-name="otilde" horiz-adv-x="630" unicode="õ" d="M334 723q37 -23 55 -23q30 0 32 55h79q-5 -148 -101 -148q-36 0 -85 28q-44 26 -62 26q-32 0 -35 -54h-79q4 70 31.5 109t72.5 39q41 0 92 -32zM442 265q0 77 -32 122.5t-95 45.5t-95 -45.5t-32 -122.5q0 -79 32.5 -124.5t94.5 -45.5q63 0 95 45t32 125zM584 265 q0 -128 -73.5 -202.5t-195.5 -74.5q-124 0 -196.5 74.5t-72.5 202.5t72.5 201.5t196.5 73.5t196.5 -73.5t72.5 -201.5z"/>
<glyph glyph-name="odieresis" horiz-adv-x="630" unicode="ö" d="M480 743v-118h-125v118h125zM274 743v-118h-124v118h124zM442 265q0 77 -32 122.5t-95 45.5t-95 -45.5t-32 -122.5q0 -79 32.5 -124.5t94.5 -45.5q63 0 95 45t32 125zM584 265q0 -128 -73.5 -202.5t-195.5 -74.5q-124 0 -196.5 74.5t-72.5 202.5t72.5 201.5t196.5 73.5 t196.5 -73.5t72.5 -201.5z"/>
<glyph glyph-name="divide" d="M218 431v118h120v-118h-120zM35 264v100h482v-100h-482zM218 78v118h120v-118h-120z" unicode="÷"/>
<glyph glyph-name="oslash" horiz-adv-x="630" unicode="ø" d="M188 265q0 -49 12 -85l185 232q-29 21 -70 21q-63 0 -95 -45.5t-32 -122.5zM442 265q0 49 -13 84l-185 -233q29 -21 71 -21q63 0 95 45t32 125zM584 265q0 -128 -73.5 -202.5t-195.5 -74.5q-83 0 -145 34l-49 -62l-59 45l50 64q-66 74 -66 196q0 128 72.5 201.5 t196.5 73.5q82 0 144 -34l48 60l59 -45l-48 -61q66 -74 66 -195z"/>
<glyph glyph-name="ugrave" horiz-adv-x="632" unicode="ù" d="M273 604l-133 164h149l91 -164h-107zM562 0h-139v71h-2q-20 -39 -63 -61t-96 -22q-89 0 -142.5 52.5t-53.5 139.5v348h142v-295q0 -68 22 -103t77 -35q47 0 80 36t33 111v286h142v-528z"/>
<glyph glyph-name="uacute" horiz-adv-x="632" unicode="ú" d="M482 768l-133 -164h-107l91 164h149zM562 0h-139v71h-2q-20 -39 -63 -61t-96 -22q-89 0 -142.5 52.5t-53.5 139.5v348h142v-295q0 -68 22 -103t77 -35q47 0 80 36t33 111v286h142v-528z"/>
<glyph glyph-name="ucircumflex" horiz-adv-x="632" unicode="û" d="M483 604h-105l-67 103l-66 -103h-104l101 164h140zM562 0h-139v71h-2q-20 -39 -63 -61t-96 -22q-89 0 -142.5 52.5t-53.5 139.5v348h142v-295q0 -68 22 -103t77 -35q47 0 80 36t33 111v286h142v-528z"/>
<glyph glyph-name="udieresis" horiz-adv-x="632" unicode="ü" d="M477 743v-118h-125v118h125zM271 743v-118h-124v118h124zM562 0h-139v71h-2q-20 -39 -63 -61t-96 -22q-89 0 -142.5 52.5t-53.5 139.5v348h142v-295q0 -68 22 -103t77 -35q47 0 80 36t33 111v286h142v-528z"/>
<glyph glyph-name="yacute" horiz-adv-x="566" unicode="ý" d="M470 768l-133 -164h-107l91 164h149zM157 528l128 -354h2l127 354h149l-286 -723h-151l86 207l-208 516h153z"/>
<glyph glyph-name="thorn" horiz-adv-x="644" unicode="þ" d="M454 264q0 76 -30 122.5t-89 46.5q-61 0 -96.5 -47t-35.5 -122t35.5 -122.5t96.5 -47.5q59 0 89 47.5t30 122.5zM211 58v-253h-141v930h141v-275h2q55 80 160 80t164 -78t59 -198t-60.5 -198t-166.5 -78q-103 0 -156 70h-2z"/>
<glyph glyph-name="OE" horiz-adv-x="987" unicode="Œ" d="M503 117v480h-71q-118 0 -175.5 -64t-57.5 -177q0 -112 57.5 -175.5t175.5 -63.5h71zM53 354q0 168 92.5 264t265.5 96h525v-117h-287v-174h264v-117h-264v-189h295v-117h-533q-174 0 -266 93.5t-92 260.5z"/>
<glyph glyph-name="oe" horiz-adv-x="984" unicode="œ" d="M702 444q-50 0 -83 -33.5t-39 -89.5h229v2q0 56 -29 88.5t-78 32.5zM443 265q0 78 -32 123t-96 45t-95.5 -45t-31.5 -123q0 -80 31.5 -125t95.5 -45q65 0 96.5 45t31.5 125zM942 222h-362q6 -64 53.5 -95.5t117.5 -31.5q73 0 129 19l16 -104q-69 -22 -163 -22 q-153 0 -222 99q-64 -99 -202 -99q-120 0 -191.5 74.5t-71.5 202.5t71.5 201.5t191.5 73.5q137 0 202 -96q62 96 193 96q114 0 176 -70t62 -191v-57z"/>
<glyph glyph-name="Scaron" horiz-adv-x="568" unicode="Š" d="M103 912h114l73 -89l74 89h115l-115 -152h-146zM485 700l-25 -117q-72 26 -153 26q-114 0 -114 -76q0 -36 30 -59.5t105 -53.5q102 -42 150 -89t48 -133q0 -102 -75.5 -156t-188.5 -54q-116 0 -217 36l26 119q94 -38 186 -38q123 0 123 83q0 38 -31.5 63t-108.5 55 q-95 38 -144 87t-49 126q0 70 38.5 118.5t93 68.5t119.5 20q107 0 187 -26z"/>
<glyph glyph-name="scaron" horiz-adv-x="492" unicode="š" d="M83 767h105l66 -104l66 104h105l-101 -164h-140zM425 510l-31 -105q-69 28 -144 28q-70 0 -70 -43q0 -22 20.5 -36.5t77.5 -32.5q90 -28 133 -67t43 -105q0 -83 -64.5 -122t-154.5 -39q-110 0 -198 37l28 108q88 -38 169 -38q85 0 85 47q0 23 -23.5 38t-87.5 35 q-85 28 -123.5 66.5t-38.5 94.5q0 81 60.5 122.5t145.5 41.5q95 0 173 -30z"/>
<glyph glyph-name="Ydieresis" horiz-adv-x="673" unicode="Ÿ" d="M503 905v-122h-125v122h125zM297 905v-122h-124v122h124zM264 0v272l-263 442h171l166 -304l167 304h167l-262 -442v-272h-146z"/>
<glyph glyph-name="circumflex" horiz-adv-x="461" unicode="ˆ" d="M401 604h-105l-67 103l-66 -103h-104l101 164h140z"/>
<glyph glyph-name="tilde" horiz-adv-x="461" unicode="˜" d="M246 723q37 -23 55 -23q30 0 32 55h79q-5 -148 -101 -148q-36 0 -85 28q-44 26 -62 26q-32 0 -35 -54h-79q4 70 31.5 109t72.5 39q41 0 92 -32z"/>
<glyph glyph-name="uni0394" horiz-adv-x="708" unicode="Δ" d="M354 600l-165 -483h329zM673 0h-638v117l221 597h199l218 -597v-117z"/>
<glyph glyph-name="uni03BC" horiz-adv-x="665" unicode="μ" d="M430 73h-2q-39 -85 -136 -85q-53 0 -78 22h-2v-205h-142v723h142v-295q0 -69 22 -103.5t77 -34.5q47 0 80 36t33 111v286h142v-353q0 -46 8.5 -59.5t30.5 -13.5q15 0 25 3v-105q-37 -5 -66 -5q-111 0 -134 78z"/>
<glyph glyph-name="pi" horiz-adv-x="721" unicode="π" d="M566 420v-236q0 -52 11 -67t47 -15q18 0 40 4v-106q-43 -5 -84 -5q-89 0 -122 34.5t-33 112.5v278h-147l-45 -420h-147l52 420h-103v108h641v-108h-110z"/>
<glyph glyph-name="endash" horiz-adv-x="496" unicode="–" d="M471 347v-94h-446v94h446z"/>
<glyph glyph-name="emdash" horiz-adv-x="796" unicode="—" d="M771 347v-94h-746v94h746z"/>
<glyph glyph-name="quoteleft" horiz-adv-x="293" unicode="‘" d="M237 735l-46 -244h-135l84 244h97z"/>
<glyph glyph-name="quotesinglbase" horiz-adv-x="294" unicode="‚" d="M56 -138l46 244h135l-84 -244h-97z"/>
<glyph glyph-name="quotedblleft" horiz-adv-x="478" unicode="“" d="M237 735l-54 -245h-127l85 245h96zM422 735l-46 -245h-127l76 245h97z"/>
<glyph glyph-name="quotedblright" horiz-adv-x="478" unicode="”" d="M240 491l54 244h128l-85 -244h-97zM56 491l46 244h127l-76 -244h-97z"/>
<glyph glyph-name="dagger" horiz-adv-x="513" unicode="†" d="M319 668v-174h166v-101h-166v-516h-123v516h-167v101h167v174h123z"/>
<glyph glyph-name="daggerdbl" horiz-adv-x="513" unicode="‡" d="M319 668v-170h163v-101h-163v-251h163v-101h-163v-168h-123v168h-164v101h164v251h-164v101h164v170h123z"/>
<glyph glyph-name="ellipsis" horiz-adv-x="925" unicode="…" d="M695 0v157h153v-157h-153zM385 0v157h154v-157h-154zM76 0v157h154v-157h-154z"/>
<glyph glyph-name="perthousand" horiz-adv-x="1208" unicode="‰" d="M1057 195q0 106 -51 106q-24 0 -36.5 -29t-12.5 -77t12.5 -76.5t36.5 -28.5q51 0 51 105zM1164 195q0 -91 -41 -143t-117 -52q-74 0 -115 52t-41 143q0 92 41 144.5t115 52.5q76 0 117 -52.5t41 -144.5zM697 195q0 106 -50 106q-24 0 -36.5 -29t-12.5 -77t12.5 -76.5 t36.5 -28.5q50 0 50 105zM805 195q0 -91 -41 -143t-117 -52q-74 0 -115 52t-41 143q0 92 41 144.5t115 52.5q76 0 117 -52.5t41 -144.5zM251 519q0 48 -13 77t-38 29q-24 0 -36.5 -29t-12.5 -77q0 -47 12.5 -76t36.5 -29q25 0 38 29t13 76zM357 519q0 -91 -40.5 -143 t-116.5 -52q-74 0 -115 52t-41 143q0 92 41 144.5t115 52.5q76 0 116.5 -52t40.5 -145zM684 714l-416 -714h-102l419 714h99z"/>
<glyph glyph-name="guilsinglleft" horiz-adv-x="356" unicode="‹" d="M299 503l-120 -205l120 -206h-123l-119 203v5l123 203h119z"/>
<glyph glyph-name="guilsinglright" horiz-adv-x="356" unicode="›" d="M57 92l120 206l-120 205h123l119 -203v-5l-123 -203h-119z"/>
<glyph glyph-name="fraction" horiz-adv-x="121" unicode="⁄" d="M314 714l-405 -714h-102l406 714h101z"/>
<glyph glyph-name="Euro" horiz-adv-x="649" unicode="€" d="M42 336h64v19q0 26 1 39h-89l25 88h79q31 113 117.5 178.5t218.5 65.5q98 0 162 -26l-34 -115q-48 23 -114 23q-160 0 -204 -126h286l-24 -88h-277q-2 -26 -2 -40v-18h266l-24 -88h-230q18 -67 71.5 -104.5t136.5 -37.5q70 0 125 23l26 -115q-71 -26 -170 -26 q-131 0 -219 70t-116 190h-100z"/>
<glyph glyph-name="trademark" horiz-adv-x="926" unicode="™" d="M823 714v-383h-84v297h-2l-84 -297h-83l-83 297h-2v-297h-78v383h133l72 -282h2l72 282h137zM365 714v-69h-103v-314h-86v314h-105v69h294z"/>
<glyph glyph-name="partialdiff" horiz-adv-x="627" unicode="∂" d="M317 379q-60 0 -93.5 -40t-33.5 -105q0 -62 33 -100.5t91 -38.5q54 0 90 38t36 105t-35 104t-88 37zM407 434q-34 68 -113.5 126.5t-172.5 90.5l85 78q75 -26 139.5 -67t118 -97.5t84 -132t30.5 -161.5q0 -134 -75 -208t-193 -74q-116 0 -188 66.5t-72 178.5 q0 108 63.5 172.5t164.5 64.5q80 0 127 -37h2z"/>
<glyph glyph-name="product" horiz-adv-x="725" unicode="∏" d="M79 -195v909h574v-909h-145v791h-283v-791h-146z"/>
<glyph glyph-name="summation" horiz-adv-x="655" unicode="∑" d="M462 273l-251 -352l412 1v-117h-581v116l251 347l-238 328v118h555v-117h-382z"/>
<glyph glyph-name="minus" d="M517 265h-482v100h482v-100z" unicode="−"/>
<glyph glyph-name="radical" horiz-adv-x="608" unicode="√" d="M229 254l90 -340h2l153 800h132l-189 -909h-187l-99 337h-113v112h211z"/>
<glyph glyph-name="infinity" horiz-adv-x="886" unicode="∞" d="M507 258q45 -116 123 -116q45 0 70.5 33t25.5 83q0 48 -25.5 78.5t-68.5 30.5q-79 0 -125 -109zM436 141q-70 -117 -191 -117q-96 0 -150 63.5t-54 166.5q0 106 54.5 170t153.5 64q129 0 199 -119q70 118 192 118q96 0 150.5 -63.5t54.5 -166.5q0 -106 -55 -170t-153 -64 q-129 0 -201 118zM379 254q-45 115 -124 115q-45 0 -70 -33t-25 -83q0 -48 25 -78t69 -30q80 0 125 109z"/>
<glyph glyph-name="approxequal" d="M398 220q73 3 115 52v-111q-48 -45 -129 -45q-50 0 -116 33t-106 33q-74 0 -122 -53v111q47 46 130 46q50 0 117.5 -33t110.5 -33zM398 440q73 3 115 52v-110q-49 -46 -129 -46q-50 0 -116 33t-106 33q-75 0 -122 -52v110q47 46 130 46q50 0 117.5 -33t110.5 -33z" unicode="≈"/>
<glyph glyph-name="notequal" d="M35 367v100h261q22 42 64 126h114l-65 -126h108v-100h-157l-54 -106h211v-100h-261l-63 -124h-113l63 124h-108v100h158l54 106h-212z" unicode="≠"/>
<glyph glyph-name="lessequal" d="M35 46v99h482v-99h-482zM518 484q-287 -77 -379 -103v-2l379 -106v-104l-483 139v142l483 139v-105z" unicode="≤"/>
<glyph glyph-name="greaterequal" d="M518 145v-99h-483v99h483zM413 381q-32 9 -378 103v105l483 -139v-142l-483 -139v104l378 106v2z" unicode="≥"/>
<glyph glyph-name="lozenge" horiz-adv-x="528" unicode="◊" d="M262 526l-89 -202l90 -203h2l88 203l-88 202h-3zM483 324l-162 -324h-116l-162 324l162 325h115z"/>
</font>
</defs>
</svg>
