<?xml version="1.0" encoding="UTF-8" standalone="no"?>
<!DOCTYPE svg  PUBLIC '-//W3C//DTD SVG 1.1//EN'  'http://www.w3.org/Graphics/SVG/1.1/DTD/svg11.dtd'>
<svg xmlns="http://www.w3.org/2000/svg">
<defs>
<font id="SSTPro-UltraLightItalic" horiz-adv-x="529">
<font-face slope="-11" underline-position="125" font-weight="200" descent="-200" panose-1="2 11 2 4 3 5 4 9 2 4" units-per-em="1000" unicode-range="U+0020-25CA" bbox="-220 -210 946 928" x-height="528" underline-thickness="50" font-family="SSTPro" ascent="800" font-style="italic" cap-height="714"/>
<missing-glyph horiz-adv-x="1000"/>
<glyph glyph-name=".notdef" horiz-adv-x="1000"/>
<glyph glyph-name=".null" horiz-adv-x="0"/>
<glyph glyph-name="nonmarkingreturn" horiz-adv-x="333"/>
<glyph glyph-name="space" horiz-adv-x="260" unicode=" "/>
<glyph glyph-name="exclam" horiz-adv-x="305" unicode="!" d="M132 171l110 543h24l-120 -543h-14zM83 0l11 53h39l-11 -53h-39z"/>
<glyph glyph-name="quotedbl" horiz-adv-x="326" unicode='&quot;' d="M264 512l43 223h24l-53 -223h-14zM164 512l43 223h24l-53 -223h-14z"/>
<glyph glyph-name="numbersign" horiz-adv-x="555" unicode="#" d="M251 467l-76 -219h188l76 219h-188zM115 486h123l80 228h20l-80 -228h188l80 228h20l-80 -228h101l-4 -19h-104l-76 -219h105l-4 -19h-108l-80 -229h-20l80 229h-188l-80 -229h-20l80 229h-114l4 19h117l76 219h-120z"/>
<glyph glyph-name="dollar" horiz-adv-x="520" unicode="$" d="M170 537q0 -46 26 -78.5t86 -76.5l63 300q-75 -3 -125 -40t-50 -105zM402 181q0 51 -26 88.5t-82 80.5l-69 -322q81 2 129 41t48 112zM495 678l-7 -18q-57 21 -123 23l-67 -313q63 -46 93 -88t30 -100q0 -82 -54 -126.5t-146 -46.5l-18 -87h-19l18 87q-41 1 -89 13 t-76 27l7 17q76 -36 162 -38l71 334q-71 53 -98.5 87.5t-27.5 87.5q0 78 57.5 120t140.5 45l18 81h19l-17 -81q65 -2 126 -24z"/>
<glyph glyph-name="percent" horiz-adv-x="710" unicode="%" d="M612 209q0 40 -18.5 65.5t-55.5 25.5q-44 0 -74.5 -35t-42.5 -78.5t-12 -88.5q0 -40 18.5 -65.5t55.5 -25.5q44 0 74.5 35t42.5 78.5t12 88.5zM632 209q0 -80 -39 -150.5t-111 -70.5q-45 0 -69 31t-24 79q0 80 39 150.5t111 70.5q45 0 69 -31t24 -79zM346 604 q0 40 -18.5 65.5t-55.5 25.5q-44 0 -74.5 -35t-42.5 -78.5t-12 -88.5q0 -40 18.5 -65.5t55.5 -25.5q44 0 74.5 35t42.5 78.5t12 88.5zM366 604q0 -80 -39 -150.5t-111 -70.5q-45 0 -69 31t-24 79q0 80 39 150.5t111 70.5q45 0 69 -31t24 -79zM71 0l592 714h23l-592 -714h-23 z"/>
<glyph glyph-name="ampersand" horiz-adv-x="660" unicode="&amp;" d="M304 396q40 15 58.5 22t53 26t51 36.5t30.5 46.5t14 64q0 48 -32 82t-89 34q-65 0 -108.5 -41.5t-43.5 -115.5q0 -25 11 -54.5t22.5 -48.5t32.5 -51zM453 141l-158 232q-114 -43 -168 -89.5t-54 -129.5q0 -65 44 -106t115 -41q118 0 221 134zM478 140l97 -140h-24 l-86 125q-57 -68 -112 -102.5t-122 -34.5q-75 0 -126 46t-51 120q0 39 12.5 71.5t30.5 54.5t51 43t62 34.5t76 31.5q-67 94 -67 161q0 84 50 130t122 46q63 0 101.5 -39.5t38.5 -94.5q0 -44 -15.5 -77t-50 -58t-66.5 -40.5t-86 -36.5l154 -224q55 71 121 197h23 q-87 -155 -133 -213z"/>
<glyph glyph-name="quotesingle" horiz-adv-x="242" unicode="&apos;" d="M164 512l43 223h24l-53 -223h-14z"/>
<glyph glyph-name="parenleft" horiz-adv-x="310" unicode="(" d="M324 797q-120 -144 -185 -331t-65 -378q0 -162 50 -283h-21q-48 122 -48 283q0 199 67 388.5t180 320.5h22z"/>
<glyph glyph-name="parenright" horiz-adv-x="310" unicode=")" d="M11 -195q122 144 186.5 330.5t64.5 378.5q0 162 -50 283h21q48 -122 48 -283q0 -199 -67.5 -388.5t-180.5 -320.5h-22z"/>
<glyph glyph-name="asterisk" horiz-adv-x="413" unicode="*" d="M286 709v-150l146 44l5 -18l-143 -43l97 -137l-15 -12l-100 139l-98 -139l-16 12l97 137l-143 43l7 19l144 -45v150h19z"/>
<glyph glyph-name="plus" d="M271 542h19v-217h207v-19h-207v-217h-19v217h-207v19h207v217z" unicode="+"/>
<glyph glyph-name="comma" horiz-adv-x="244" unicode="," d="M-12 -152l100 220h23l-108 -220h-15z"/>
<glyph glyph-name="hyphen" horiz-adv-x="353" unicode="-" d="M86 292l4 19h205l-4 -19h-205z"/>
<glyph glyph-name="period" horiz-adv-x="244" unicode="." d="M52 0l11 53h39l-11 -53h-39z"/>
<glyph glyph-name="slash" horiz-adv-x="493" unicode="/" d="M15 0l491 714h22l-491 -714h-22z"/>
<glyph glyph-name="zero" horiz-adv-x="600" unicode="0" d="M395 707q-62 0 -115 -33t-88.5 -85t-60.5 -117.5t-36 -130t-11 -122.5q0 -97 41 -154.5t126 -57.5q64 0 117 32.5t88 83.5t59 116.5t34.5 129t10.5 122.5q0 100 -40 158t-125 58zM397 726q93 0 137.5 -62.5t44.5 -169.5q0 -64 -11 -131t-36.5 -135t-62.5 -120.5 t-93.5 -86t-124.5 -33.5q-186 0 -186 229q0 82 19.5 167.5t58 163.5t105 128t149.5 50z"/>
<glyph glyph-name="one" horiz-adv-x="340" unicode="1" d="M321 714l-151 -714h-19l147 695l-177 -105l-7 17l183 107h24z"/>
<glyph glyph-name="two" horiz-adv-x="520" unicode="2" d="M426 19l-4 -19h-428l4 19q292 242 365 312q105 101 127 173q9 30 9 65q0 62 -40 100t-108 38q-101 0 -188 -67l-9 15q88 71 198 71q79 0 122.5 -43t43.5 -113q0 -31 -7 -58t-18.5 -53t-41 -60.5t-60 -65.5t-91.5 -84t-118 -100.5t-157 -129.5h401z"/>
<glyph glyph-name="three" horiz-adv-x="520" unicode="3" d="M164 360l4 19h72q112 0 181 49.5t69 143.5q0 63 -44 99.5t-115 36.5q-93 0 -174 -42l-5 17q85 43 180 43q83 0 130 -41t47 -113q0 -86 -54.5 -137t-141.5 -66v-2q65 -10 103.5 -50.5t38.5 -103.5q0 -110 -74 -167.5t-189 -57.5q-119 0 -193 47l9 18q73 -46 184 -46 q48 0 90 11t77.5 34t56 64t20.5 95q0 71 -54 110t-146 39h-72z"/>
<glyph glyph-name="four" horiz-adv-x="550" unicode="4" d="M382 216l102 479h-2l-427 -479h327zM507 714l-106 -498h114l-4 -19h-114l-41 -197h-19l41 197h-347l4 24l441 493h31z"/>
<glyph glyph-name="five" horiz-adv-x="520" unicode="5" d="M183 7q122 0 190 61t68 171q0 79 -55 122.5t-140 43.5q-68 0 -140 -17l81 326h331l-4 -19h-313l-71 -285q56 14 117 14q93 0 153 -48.5t60 -136.5q0 -119 -75.5 -185t-202.5 -66q-103 0 -176 38l8 18q27 -16 75 -26.5t94 -10.5z"/>
<glyph glyph-name="six" horiz-adv-x="560" unicode="6" d="M93 323h2q30 57 87.5 91t131.5 34q96 0 141.5 -57t45.5 -139q0 -114 -67.5 -189t-179.5 -75q-92 0 -143 59t-51 151q0 61 13.5 129.5t43.5 140t72.5 128.5t107 93.5t141.5 36.5q60 0 111 -21l-6 -19q-48 21 -107 21t-110.5 -23t-88.5 -60.5t-66.5 -88.5t-48 -103.5 t-29.5 -108.5zM84 252q-5 -25 -5 -55q0 -47 17 -88.5t58.5 -71.5t100.5 -30q101 0 163.5 69t62.5 174q0 75 -41.5 127t-126.5 52q-89 0 -151 -51.5t-78 -125.5z"/>
<glyph glyph-name="seven" horiz-adv-x="490" unicode="7" d="M130 695l4 19h416l-4 -19q-135 -154 -243.5 -347t-159.5 -348h-20q49 156 161 352.5t239 342.5h-393z"/>
<glyph glyph-name="eight" horiz-adv-x="580" unicode="8" d="M316 382q56 0 106 15.5t88.5 58.5t38.5 107t-50 104t-126 40q-97 0 -157 -48.5t-60 -130.5q0 -66 47 -106t113 -40zM374 726q83 0 139 -43.5t56 -118.5q0 -49 -19 -86.5t-50 -58.5t-60.5 -32t-61.5 -16v-2q59 -13 100.5 -59.5t41.5 -108.5q0 -59 -24 -102.5t-64 -66.5 t-84 -33.5t-94 -10.5q-94 0 -155 45.5t-61 128.5q0 91 61.5 146.5t153.5 66.5v2q-51 15 -83.5 54t-32.5 96q0 95 69 147t168 52zM310 363q-63 0 -118.5 -19.5t-95 -66.5t-39.5 -114q0 -73 56 -114.5t142 -41.5q46 0 87.5 10t78 31t58 59.5t21.5 90.5q0 73 -57.5 119 t-132.5 46z"/>
<glyph glyph-name="nine" horiz-adv-x="560" unicode="9" d="M515 391h-2q-30 -57 -87.5 -91t-131.5 -34q-96 0 -141.5 57t-45.5 139q0 114 67.5 189t179.5 75q92 0 143 -59t51 -151q0 -61 -13.5 -129.5t-43.5 -140t-72.5 -128.5t-107 -93.5t-141.5 -36.5q-60 0 -111 21l6 19q48 -21 107 -21t110.5 23t88.5 60.5t66.5 88.5t48 103.5 t29.5 108.5zM524 462q5 25 5 55q0 47 -17 88.5t-58.5 71.5t-100.5 30q-101 0 -163.5 -69t-62.5 -174q0 -75 41.5 -127t126.5 -52q89 0 151 51.5t78 125.5z"/>
<glyph glyph-name="colon" horiz-adv-x="299" unicode=":" d="M185 474l12 53h33l-12 -53h-33zM85 0l11 53h33l-11 -53h-33z"/>
<glyph glyph-name="semicolon" horiz-adv-x="299" unicode=";" d="M12 -152l100 220h23l-108 -220h-15zM185 474l12 53h33l-12 -53h-33z"/>
<glyph glyph-name="less" d="M497 477l-411 -160v-2l411 -161v-21l-433 169v27l433 169v-21z" unicode="&lt;"/>
<glyph glyph-name="equal" d="M497 221h-433v19h433v-19zM497 391h-433v19h433v-19z" unicode="="/>
<glyph glyph-name="greater" d="M475 317l-411 160v21l433 -169v-27l-433 -169v21l411 161v2z" unicode="&gt;"/>
<glyph glyph-name="question" horiz-adv-x="425" unicode="?" d="M181 178l-8 -39h-20l9 41q16 73 44.5 115t91.5 91l40 31q54 42 80 78.5t26 92.5q0 57 -40.5 88t-101.5 31q-68 0 -134 -27l-5 17q69 29 141 29q69 0 114 -35t45 -102q0 -61 -29.5 -103t-104.5 -98q-74 -55 -104 -98t-44 -112zM156 0h-39l11 53h39z"/>
<glyph glyph-name="at" horiz-adv-x="930" unicode="@" d="M529 494q-71 0 -128.5 -54t-85 -125.5t-27.5 -137.5q0 -116 100 -116q45 0 85.5 28t68.5 71.5t46.5 86.5t26.5 82q8 35 8 64q0 101 -94 101zM704 -114l1 -19q-117 -46 -259 -46q-184 0 -292.5 103.5t-108.5 268.5q0 236 146.5 384.5t367.5 148.5q145 0 241.5 -88.5 t96.5 -231.5q0 -90 -29.5 -172t-89 -137t-136.5 -55q-44 0 -64 23t-20 55q0 23 5 41h-2q-24 -44 -71.5 -81.5t-105.5 -37.5q-60 0 -87.5 37t-27.5 98q0 76 31 152t93 130t138 54q58 0 84 -32t26 -80q0 -11 -2 -31h2l53 127h19l-93 -220q-42 -99 -43 -150q0 -66 67 -66 q98 0 166 99t68 245q0 134 -91.5 218t-228.5 84q-211 0 -352 -143t-141 -371q0 -157 105.5 -255t277.5 -98q136 0 256 46z"/>
<glyph glyph-name="A" horiz-adv-x="575" unicode="A" d="M405 700l-270 -437h330zM467 244h-342l-151 -244h-22l440 714h29l99 -714h-19z"/>
<glyph glyph-name="B" horiz-adv-x="596" unicode="B" d="M149 360l-72 -341h183q112 0 180 48.5t68 147.5q0 73 -48.5 109t-132.5 36h-178zM220 695l-67 -316h179q104 0 163.5 44.5t59.5 135.5q0 136 -176 136h-159zM54 0l151 714h178q190 0 190 -153q0 -88 -50 -135.5t-129 -56.5v-2q62 -9 97.5 -49t35.5 -101 q0 -108 -73.5 -162.5t-195.5 -54.5h-204z"/>
<glyph glyph-name="C" horiz-adv-x="566" unicode="C" d="M488 32v-20q-64 -24 -146 -24q-128 0 -195.5 80t-67.5 202q0 85 25.5 165.5t73 146t124.5 105t172 39.5q78 0 131 -24l-7 -17q-53 22 -125 22q-92 0 -165.5 -39t-118 -103t-68 -139.5t-23.5 -154.5q0 -115 63.5 -189.5t185.5 -74.5q74 0 141 25z"/>
<glyph glyph-name="D" horiz-adv-x="670" unicode="D" d="M220 695l-143 -676h120q193 0 304.5 111t111.5 300q0 121 -72 193t-218 72h-103zM54 0l151 714h124q148 0 225.5 -76t77.5 -207q0 -204 -120.5 -317.5t-316.5 -113.5h-141z"/>
<glyph glyph-name="E" horiz-adv-x="509" unicode="E" d="M54 0l151 714h325l-4 -19h-306l-67 -316h304l-4 -19h-304l-72 -341h336l-4 -19h-355z"/>
<glyph glyph-name="F" horiz-adv-x="480" unicode="F" d="M54 0l151 714h332l-4 -19h-313l-67 -316h295l-4 -19h-295l-76 -360h-19z"/>
<glyph glyph-name="G" horiz-adv-x="694" unicode="G" d="M658 693l-7 -18q-68 32 -154 32q-125 0 -217 -61.5t-136.5 -157.5t-44.5 -211t67.5 -192.5t196.5 -77.5q103 0 183 36l63 297h-184l4 19h203l-69 -328q-92 -43 -200 -43q-134 0 -208.5 83t-74.5 205q0 124 49 225.5t145 163t222 61.5q90 0 162 -33z"/>
<glyph glyph-name="H" horiz-adv-x="647" unicode="H" d="M54 0l151 714h19l-71 -335h401l71 335h19l-151 -714h-19l76 360h-401l-76 -360h-19z"/>
<glyph glyph-name="I" horiz-adv-x="227" unicode="I" d="M54 0l151 714h19l-151 -714h-19z"/>
<glyph glyph-name="J" horiz-adv-x="282" unicode="J" d="M290 714l-126 -594q-13 -61 -45.5 -96.5t-103.5 -35.5q-29 0 -56 5l3 20q22 -6 56 -6q53 0 84 28.5t44 89.5l125 589h19z"/>
<glyph glyph-name="K" horiz-adv-x="518" unicode="K" d="M560 714h30l-422 -345l301 -369h-26l-292 360h-2l-76 -360h-19l151 714h19l-71 -335h2z"/>
<glyph glyph-name="L" horiz-adv-x="404" unicode="L" d="M54 0l151 714h19l-147 -695h285l-4 -19h-304z"/>
<glyph glyph-name="M" horiz-adv-x="816" unicode="M" d="M241 714l116 -695h2l422 695h32l-151 -714h-19l148 697h-1l-421 -697h-28l-118 697h-2l-148 -697h-19l151 714h36z"/>
<glyph glyph-name="N" horiz-adv-x="678" unicode="N" d="M237 714l268 -697h2l148 697h19l-151 -714h-32l-268 697h-2l-148 -697h-19l151 714h32z"/>
<glyph glyph-name="O" horiz-adv-x="717" unicode="O" d="M315 7q67 0 124 27t97 72.5t68 104.5t41.5 123t13.5 129q0 112 -54 178t-161 66q-101 0 -181 -63.5t-122.5 -167.5t-42.5 -225q0 -112 54.5 -178t162.5 -66zM679 466q0 -83 -22 -164.5t-64.5 -153t-115 -116t-163.5 -44.5q-116 0 -176 71t-60 192q0 82 22.5 163.5 t66 152.5t116 115t163.5 44q114 0 173.5 -70.5t59.5 -189.5z"/>
<glyph glyph-name="P" horiz-adv-x="566" unicode="P" d="M220 695l-73 -343h156q254 0 254 197q0 74 -53.5 110t-132.5 36h-151zM54 0l151 714h174q83 0 140.5 -41.5t57.5 -122.5q0 -64 -24.5 -109t-67 -67t-87 -31.5t-97.5 -9.5h-158l-70 -333h-19z"/>
<glyph glyph-name="Q" horiz-adv-x="717" unicode="Q" d="M315 7q67 0 124 27t97 72.5t68 104.5t41.5 123t13.5 129q0 112 -54 178t-161 66q-101 0 -181 -63.5t-122.5 -167.5t-42.5 -225q0 -112 54.5 -178t162.5 -66zM679 466q0 -136 -57 -262.5t-164 -181.5l113 -139h-28l-106 129q-58 -24 -123 -24q-116 0 -176 71t-60 192 q0 82 22.5 163.5t66 152.5t116 115t163.5 44q114 0 173.5 -70.5t59.5 -189.5z"/>
<glyph glyph-name="R" horiz-adv-x="600" unicode="R" d="M220 695l-68 -321h187q226 0 226 189q0 63 -44 97.5t-122 34.5h-179zM54 0l151 714h202q84 0 131 -40t47 -108q0 -178 -174 -203v-2q40 -10 58 -40.5t26 -97.5q19 -164 27 -223h-21q-4 31 -13.5 118t-13.5 115q-9 71 -39 96.5t-101 25.5h-186l-75 -355h-19z"/>
<glyph glyph-name="S" horiz-adv-x="510" unicode="S" d="M505 698l-7 -18q-60 27 -139 27q-86 0 -144 -38t-58 -119q0 -29 7 -51t27 -43.5t35 -34.5t52 -40q79 -58 113 -101t34 -109q0 -92 -59.5 -137.5t-159.5 -45.5q-45 0 -101 12.5t-88 29.5l7 18q87 -41 182 -41q91 0 145.5 40t54.5 121q0 60 -33 102t-107 96 q-71 51 -99.5 87.5t-28.5 96.5q0 91 65 133.5t158 42.5q75 0 144 -28z"/>
<glyph glyph-name="T" horiz-adv-x="481" unicode="T" d="M171 0l147 695h-228l4 19h469l-4 -19h-222l-147 -695h-19z"/>
<glyph glyph-name="U" horiz-adv-x="681" unicode="U" d="M685 714l-102 -484q-13 -59 -31 -100.5t-50 -75t-82 -50t-121 -16.5q-112 0 -164.5 44t-52.5 121q0 34 10 79l102 482h19l-103 -487q-8 -36 -8 -72q0 -148 197 -148q123 0 182 54.5t82 165.5l103 487h19z"/>
<glyph glyph-name="V" horiz-adv-x="534" unicode="V" d="M178 0l-83 714h19l80 -695h2l413 695h22l-426 -714h-27z"/>
<glyph glyph-name="W" horiz-adv-x="875" unicode="W" d="M571 0l-40 695h-2l-341 -695h-31l-32 714h19l31 -695h2l341 695h30l41 -695h2l334 695h21l-344 -714h-31z"/>
<glyph glyph-name="X" horiz-adv-x="567" unicode="X" d="M-28 0l328 371l-159 343h23l150 -326l290 326h24l-305 -343l172 -371h-22l-164 353l-313 -353h-24z"/>
<glyph glyph-name="Y" horiz-adv-x="516" unicode="Y" d="M187 0l63 300l-146 414h22l137 -396l328 396h24l-346 -414l-63 -300h-19z"/>
<glyph glyph-name="Z" horiz-adv-x="533" unicode="Z" d="M-11 19l562 676h-390l4 19h415l-4 -19l-562 -676h448l-4 -19h-473z"/>
<glyph glyph-name="bracketleft" horiz-adv-x="310" unicode="[" d="M364 797l-4 -19h-121l-203 -954h121l-4 -19h-141l211 992h141z"/>
<glyph glyph-name="backslash" horiz-adv-x="493" unicode="\" d="M166 714l240 -714h-20l-240 714h20z"/>
<glyph glyph-name="bracketright" horiz-adv-x="310" unicode="]" d="M-27 -195l4 19h121l203 954h-121l4 19h141l-211 -992h-141z"/>
<glyph glyph-name="asciicircum" d="M284 674l-155 -375h-21l165 397h24l164 -397h-21l-154 375h-2z" unicode="^"/>
<glyph glyph-name="underscore" horiz-adv-x="465" unicode="_" d="M-76 -107h464l-4 -19h-464z"/>
<glyph glyph-name="grave" horiz-adv-x="470" unicode="`" d="M333 604l-86 164h23l82 -164h-19z"/>
<glyph glyph-name="a" horiz-adv-x="511" unicode="a" d="M422 292h-27q-161 0 -247.5 -38t-86.5 -129q0 -55 35 -86.5t93 -31.5q169 0 220 227zM425 310l7 32q8 42 8 59q0 61 -37.5 90.5t-102.5 29.5q-66 0 -138 -24v19q70 24 138 24q76 0 117.5 -35.5t41.5 -100.5q0 -22 -8 -59l-44 -209q-18 -80 -19 -136h-19q2 37 19 125h-2 q-27 -61 -77 -99t-121 -38q-66 0 -106 36.5t-40 99.5q0 105 95.5 145.5t287.5 40.5z"/>
<glyph glyph-name="b" horiz-adv-x="572" unicode="b" d="M269 7q76 0 131 53t78.5 125.5t23.5 150.5q0 76 -39.5 130.5t-115.5 54.5q-71 0 -126.5 -52t-82.5 -128t-27 -157q0 -79 42 -128t116 -49zM95 144l-30 -144h-19l156 735h19l-72 -333h2q27 58 77.5 98t120.5 40q84 0 128 -60t44 -144q0 -145 -71 -246.5t-182 -101.5 q-80 0 -122 47t-49 109h-2z"/>
<glyph glyph-name="c" horiz-adv-x="436" unicode="c" d="M450 525l-6 -18q-36 14 -93 14q-119 0 -194 -94.5t-75 -225.5q0 -86 43.5 -140t130.5 -54q59 0 108 18v-18q-55 -19 -109 -19q-97 0 -144.5 59.5t-47.5 153.5q0 140 81.5 239.5t208.5 99.5q59 0 97 -15z"/>
<glyph glyph-name="d" horiz-adv-x="572" unicode="d" d="M320 521q-76 0 -131 -53t-78.5 -125.5t-23.5 -150.5q0 -76 39.5 -130.5t115.5 -54.5q71 0 126.5 52t82.5 128t27 157q0 79 -42 128t-116 49zM494 384l74 351h19l-156 -735h-18l28 126h-2q-27 -57 -78 -97.5t-121 -40.5q-84 0 -128 60t-44 144q0 145 71 246.5t182 101.5 q80 0 122 -47t49 -109h2z"/>
<glyph glyph-name="e" horiz-adv-x="544" unicode="e" d="M480 285q10 47 10 84q0 70 -37 111t-115 41q-93 0 -157 -69t-85 -167h384zM495 266h-403q-5 -29 -5 -62q0 -83 48.5 -140t146.5 -57q67 0 128 18v-18q-57 -19 -129 -19q-104 0 -158.5 60t-54.5 154q0 59 18.5 118t52 108.5t86 80.5t115.5 31q86 0 127.5 -46t41.5 -124 q0 -39 -14 -104z"/>
<glyph glyph-name="f" horiz-adv-x="282" unicode="f" d="M423 724l-7 -19q-29 11 -60 11q-60 0 -96 -36t-51 -116l-7 -36h151l-4 -19h-150l-108 -509h-19l108 509h-125l4 19h124l9 45q32 162 164 162q36 0 67 -11z"/>
<glyph glyph-name="g" horiz-adv-x="572" unicode="g" d="M320 521q-76 0 -131 -50.5t-78.5 -119.5t-23.5 -145t39.5 -128.5t115.5 -52.5q106 0 171 96.5t65 222.5q0 79 -42 128t-116 49zM543 528l-107 -509q-24 -110 -78 -162t-163 -52q-91 0 -150 29l7 19q60 -29 144 -29q100 0 149.5 47.5t71.5 150.5l24 112h-2 q-27 -53 -78 -90.5t-121 -37.5q-84 0 -128 58.5t-44 141.5q0 142 70.5 238t182.5 96q80 0 122 -47t49 -109h2l30 144h19z"/>
<glyph glyph-name="h" horiz-adv-x="554" unicode="h" d="M202 735h19l-67 -310h2q30 59 81.5 87t105.5 28q72 0 112.5 -37t40.5 -101q0 -34 -8 -74l-69 -328h-19l69 327q8 42 8 73q0 56 -35.5 88.5t-99.5 32.5q-77 0 -132.5 -50t-76.5 -151l-68 -320h-19z"/>
<glyph glyph-name="i" horiz-adv-x="216" unicode="i" d="M195 727h29l-9 -43h-29zM158 528h19l-112 -528h-19z"/>
<glyph glyph-name="j" horiz-adv-x="216" unicode="j" d="M199 727h29l-9 -43h-29zM181 528l-123 -579q-16 -76 -48 -110t-99 -34q-17 0 -36 3l4 19q17 -3 33 -3q60 0 86.5 31t41.5 102l122 571h19z"/>
<glyph glyph-name="k" horiz-adv-x="422" unicode="k" d="M425 528h30l-310 -241l231 -287h-25l-225 280h-2l-59 -280h-19l156 735h19l-93 -438h2z"/>
<glyph glyph-name="l" horiz-adv-x="217" unicode="l" d="M202 735h19l-156 -735h-19z"/>
<glyph glyph-name="m" horiz-adv-x="882" unicode="m" d="M476 331l-70 -331h-19l70 331q10 45 10 73q0 53 -35 85t-96 32q-74 0 -128 -50.5t-75 -150.5l-68 -320h-19l112 528h19l-23 -103h2q58 115 183 115q66 0 105 -35t41 -90h2q27 58 77 91.5t106 33.5q73 0 114 -36.5t41 -103.5q0 -27 -9 -72l-69 -328h-19l69 327q9 47 9 72 q0 58 -36 90t-102 32q-74 0 -124 -54t-68 -136z"/>
<glyph glyph-name="n" horiz-adv-x="554" unicode="n" d="M158 528h19l-23 -103h2q30 59 81.5 87t105.5 28q72 0 112.5 -37t40.5 -101q0 -34 -8 -74l-69 -328h-19l69 327q8 42 8 73q0 56 -35.5 88.5t-99.5 32.5q-77 0 -132.5 -50t-76.5 -151l-68 -320h-19z"/>
<glyph glyph-name="o" horiz-adv-x="560" unicode="o" d="M243 7q80 0 138 53.5t83.5 127t25.5 152.5q0 81 -41.5 131t-120.5 50q-78 0 -134 -49.5t-81.5 -123t-25.5 -158.5q0 -81 39 -132t117 -51zM509 341q0 -56 -15 -114.5t-45 -113.5t-83.5 -90t-122.5 -35q-86 0 -130.5 55.5t-44.5 145.5q0 147 70.5 249t189.5 102 q85 0 133 -55t48 -144z"/>
<glyph glyph-name="p" horiz-adv-x="572" unicode="p" d="M270 7q76 0 131 53t78.5 125.5t23.5 150.5q0 76 -39.5 130.5t-115.5 54.5q-71 0 -126.5 -52t-82.5 -128t-27 -157q0 -79 42 -128t116 -49zM96 144l-72 -339h-19l154 723h18l-28 -126h2q27 57 78 97.5t121 40.5q84 0 128 -60t44 -144q0 -145 -71 -246.5t-182 -101.5 q-80 0 -122 47t-49 109h-2z"/>
<glyph glyph-name="q" horiz-adv-x="562" unicode="q" d="M320 521q-76 0 -131 -53t-78.5 -125.5t-23.5 -150.5q0 -76 39.5 -130.5t115.5 -54.5q71 0 126.5 52t82.5 128t27 157q0 79 -42 128t-116 49zM494 384l30 144h19l-154 -723h-19l70 321h-2q-27 -58 -77.5 -98t-120.5 -40q-84 0 -128 60t-44 144q0 145 71 246.5t182 101.5 q80 0 122 -47t49 -109h2z"/>
<glyph glyph-name="r" horiz-adv-x="320" unicode="r" d="M366 537l-4 -19q-17 3 -37 3q-71 0 -123 -58.5t-71 -150.5l-66 -312h-19l112 528h19l-25 -114h2q23 56 70.5 91t103.5 35q22 0 38 -3z"/>
<glyph glyph-name="s" horiz-adv-x="393" unicode="s" d="M377 515l-6 -18q-53 24 -112 24q-63 0 -107 -27.5t-44 -84.5q0 -39 22.5 -66.5t69.5 -58.5q57 -38 88 -74.5t31 -84.5q0 -69 -46.5 -103t-126.5 -34q-34 0 -79 10.5t-70 23.5l8 18q66 -33 142 -33q71 0 112 28t41 87q0 43 -28.5 77t-82.5 70q-51 34 -75.5 64t-24.5 75 q0 68 50.5 100t120.5 32q61 0 117 -25z"/>
<glyph glyph-name="t" horiz-adv-x="286" unicode="t" d="M66 509l4 19h106l26 125h19l-26 -125h136l-4 -19h-136l-84 -395q-7 -31 -7 -50q0 -51 69 -51q29 0 59 5l-5 -19q-23 -5 -58 -5q-84 0 -84 67q0 20 7 50l84 398h-106z"/>
<glyph glyph-name="u" horiz-adv-x="554" unicode="u" d="M407 0h-19l23 103h-2q-30 -59 -81 -87t-106 -28q-72 0 -112.5 37t-40.5 101q0 34 8 74l69 328h19l-69 -327q-8 -42 -8 -73q0 -56 35 -88.5t100 -32.5q77 0 132.5 50t76.5 151l68 320h19z"/>
<glyph glyph-name="v" horiz-adv-x="446" unicode="v" d="M128 0l-51 528h19l47 -510h2l323 510h22l-337 -528h-25z"/>
<glyph glyph-name="w" horiz-adv-x="756" unicode="w" d="M462 0l-31 509h-2l-287 -509h-28l-22 528h19l20 -510h2l286 510h29l31 -510h2l290 510h22l-303 -528h-28z"/>
<glyph glyph-name="x" horiz-adv-x="444" unicode="x" d="M-15 0h-25l257 279l-123 249h24l114 -237l215 237h26l-233 -252l137 -276h-23l-130 263z"/>
<glyph glyph-name="y" horiz-adv-x="446" unicode="y" d="M96 528l52 -494h2l317 494h24l-470 -723h-24l135 202l-56 521h20z"/>
<glyph glyph-name="z" horiz-adv-x="443" unicode="z" d="M-6 19l430 491h-311l4 18h335l-4 -18l-428 -491h346l-4 -19h-372z"/>
<glyph glyph-name="braceleft" horiz-adv-x="310" unicode="{" d="M35 291l5 20q53 9 73 36.5t36 103.5l48 225q14 67 40.5 94t77.5 27h47l-4 -19h-44q-41 0 -63 -21t-35 -83l-48 -225q-16 -76 -34.5 -105t-63.5 -42l-1 -2q47 -16 47 -69q0 -26 -11 -78l-48 -226q-5 -21 -5 -44q0 -59 59 -59h44l-4 -19h-40q-78 0 -78 76q0 20 10 68 l43 202q11 50 11 77q0 30 -14 44.5t-48 18.5z"/>
<glyph glyph-name="bar" horiz-adv-x="465" unicode="|" d="M223 735h19v-930h-19v930z"/>
<glyph glyph-name="braceright" horiz-adv-x="310" unicode="}" d="M302 311l-5 -20q-53 -9 -73 -36.5t-36 -103.5l-48 -225q-14 -67 -40.5 -94t-77.5 -27h-47l4 19h44q41 0 63 21t35 83l48 225q16 76 34.5 105t63.5 42l1 2q-47 16 -47 69q0 26 11 78l48 226q5 21 5 44q0 59 -59 59h-44l4 19h40q78 0 78 -76q0 -20 -10 -68l-43 -202 q-11 -50 -11 -77q0 -30 14 -44.5t48 -18.5z"/>
<glyph glyph-name="asciitilde" d="M382 295q54 0 115 45v-21q-57 -43 -116 -43q-36 0 -102 30.5t-100 30.5q-33 0 -57.5 -10.5t-57.5 -34.5v21q57 43 116 43q36 0 102 -30.5t100 -30.5z" unicode="~"/>
<glyph glyph-name="uni00A0" horiz-adv-x="260" unicode=" "/>
<glyph glyph-name="exclamdown" horiz-adv-x="305" unicode="¡" d="M185 357l-110 -543h-24l120 543h14zM234 528l-11 -53h-39l11 53h39z"/>
<glyph glyph-name="cent" horiz-adv-x="491" unicode="¢" d="M89 201q0 -79 36.5 -131.5t109.5 -61.5l109 512q-113 -6 -184 -99.5t-71 -219.5zM380 600l-13 -60q54 -1 90 -15l-6 -18q-35 13 -88 14l-109 -514h9q58 0 108 18v-18q-55 -19 -109 -19h-12l-12 -55h-19l12 57q-82 9 -121.5 67t-39.5 144q0 136 77.5 234.5t200.5 103.5 l13 61h19z"/>
<glyph glyph-name="sterling" horiz-adv-x="579" unicode="£" d="M564 704l-7 -18q-42 21 -99 21q-72 0 -118 -44.5t-63 -124.5l-34 -159h160l-4 -19h-160l-72 -341h319l-4 -19h-451l4 19h113l72 341h-112l4 19h112l35 163q17 84 68 134t133 50q63 0 104 -22z"/>
<glyph glyph-name="currency" horiz-adv-x="526" unicode="¤" d="M261 191q70 0 116 44t46 114q0 46 -32 77t-80 31q-70 0 -116 -44t-46 -114q0 -46 32 -77t80 -31zM261 172q-59 0 -96 37l-92 -75l-12 15l91 76q-22 31 -22 75q0 83 59 134l-69 87l16 13l70 -88q46 30 105 30q58 0 96 -38l92 76l12 -15l-91 -76q22 -31 22 -75 q0 -84 -60 -134l70 -87l-16 -13l-70 88q-46 -30 -105 -30z"/>
<glyph glyph-name="yen" horiz-adv-x="548" unicode="¥" d="M63 173h186l27 128h-186l5 19h177l-128 394h20l126 -391l292 391h23l-295 -394h176l-5 -19h-186l-27 -128h186l-4 -19h-186l-32 -154h-19l32 154h-186z"/>
<glyph glyph-name="brokenbar" horiz-adv-x="465" unicode="¦" d="M242 367h-19v368h19v-368zM223 172h19v-367h-19v367z"/>
<glyph glyph-name="section" horiz-adv-x="537" unicode="§" d="M241 171l38 -31q59 3 104 32.5t45 84.5q0 39 -23 72t-79 79l-34 28q-64 -4 -106.5 -35t-42.5 -82q0 -36 21 -69t77 -79zM447 257q0 -57 -45 -91.5t-108 -39.5q78 -73 78 -140q0 -71 -54.5 -107.5t-134.5 -36.5q-72 0 -134 25l8 19q59 -25 126 -25q74 0 122 31t48 94 q0 36 -26 74.5t-91 91.5q-60 49 -86 86t-26 81q0 55 43 90t111 40q-71 66 -71 132q0 73 50 109t126 36q62 0 110 -18l-7 -17q-42 16 -102 16q-67 0 -112.5 -29t-45.5 -97q0 -36 23.5 -71.5t88.5 -87.5q59 -48 84 -85.5t25 -79.5z"/>
<glyph glyph-name="dieresis" horiz-adv-x="470" unicode="¨" d="M402 708h28l-9 -44h-28zM240 708h28l-9 -44h-28z"/>
<glyph glyph-name="copyright" horiz-adv-x="800" unicode="©" d="M776 357q0 147 -99.5 247t-246.5 100t-246.5 -100t-99.5 -247t99.5 -247t246.5 -100t246.5 100t99.5 247zM795 357q0 -155 -105 -260.5t-260 -105.5t-260 105.5t-105 260.5t105 260.5t260 105.5t260 -105.5t105 -260.5zM544 565l-7 -19q-37 18 -89 18q-93 0 -143 -55.5 t-50 -149.5t50.5 -150.5t138.5 -56.5q54 0 103 18l5 -18q-49 -19 -110 -19q-97 0 -151.5 62t-54.5 164q0 101 56 162.5t155 61.5q57 0 97 -18z"/>
<glyph glyph-name="ordfeminine" horiz-adv-x="333" unicode="ª" d="M321 544h-10q-94 0 -144.5 -21t-50.5 -72q0 -30 19.5 -47.5t52.5 -17.5q53 0 85 40t42 89zM325 562l3 14q5 23 5 35q0 67 -79 67q-38 0 -87 -16v19q48 16 87 16q48 0 73 -22t25 -62q0 -20 -6 -44l-25 -113q-9 -46 -11 -82h-19q1 24 8 62h-1q-15 -29 -44.5 -49t-65.5 -20 q-41 0 -66 22t-25 61q0 63 57 87.5t171 24.5z"/>
<glyph glyph-name="guillemotleft" horiz-adv-x="482" unicode="«" d="M441 471l-159 -173l83 -173h-20l-84 173l1 5l155 168h24zM283 471l-159 -173l83 -173h-20l-84 173l1 5l155 168h24z"/>
<glyph glyph-name="logicalnot" d="M64 409v19h433v-226h-19v207h-414z" unicode="¬"/>
<glyph glyph-name="uni00AD" horiz-adv-x="353" unicode="­" d="M86 292l4 19h205l-4 -19h-205z"/>
<glyph glyph-name="registered" horiz-adv-x="504" unicode="®" d="M262 628v-91h53q55 0 55 48q0 26 -13 34.5t-39 8.5h-56zM243 404v243h80q66 0 66 -59q0 -46 -41 -60q22 -7 33 -45l24 -79h-19l-22 75q-7 23 -17.5 31t-37.5 8h-47v-114h-19zM123 525q0 -79 54.5 -134t134.5 -55t134.5 55t54.5 134t-54.5 134t-134.5 55t-134.5 -55 t-54.5 -134zM104 525q0 88 60 148t148 60t148 -60t60 -148t-60 -148t-148 -60t-148 60t-60 148z"/>
<glyph glyph-name="macron" horiz-adv-x="470" unicode="¯" d="M449 693l-4 -19h-233l4 19h233z"/>
<glyph glyph-name="degree" horiz-adv-x="356" unicode="°" d="M359 603q0 45 -29 74t-74 29t-74 -29t-29 -74t29 -74t74 -29t74 29t29 74zM378 603q0 -53 -35 -87.5t-87 -34.5t-87 34.5t-35 87.5t35 87.5t87 34.5t87 -34.5t35 -87.5z"/>
<glyph glyph-name="plusminus" d="M497 86h-433v19h433v-19zM271 559h19v-177h207v-19h-207v-177h-19v177h-207v19h207v177z" unicode="±"/>
<glyph glyph-name="twosuperior" horiz-adv-x="377" unicode="²" d="M361 447l-4 -19h-262l3 17q187 151 242.5 209t55.5 114q0 35 -23.5 56t-62.5 21q-51 0 -112 -40l-9 15q61 44 122 44q49 0 76.5 -26.5t27.5 -69.5q0 -60 -54.5 -119t-232.5 -201v-1h233z"/>
<glyph glyph-name="threesuperior" horiz-adv-x="377" unicode="³" d="M201 641l4 19h46q65 0 105 28t40 80q0 36 -25.5 56.5t-66.5 20.5q-54 0 -105 -26l-5 18q55 27 111 27q51 0 80.5 -26t29.5 -70q0 -47 -29.5 -77.5t-75.5 -40.5v-1q34 -10 53.5 -35t19.5 -60q0 -64 -45.5 -98.5t-115.5 -34.5q-72 0 -120 30l9 18q47 -29 111 -29 q59 0 100.5 28t41.5 85q0 41 -31.5 64.5t-83.5 23.5h-48z"/>
<glyph glyph-name="acute" horiz-adv-x="470" unicode="´" d="M442 768l-145 -164h-20l140 164h25z"/>
<glyph glyph-name="mu" horiz-adv-x="591" unicode="µ" d="M5 -195l153 723h19l-69 -327q-8 -42 -8 -73q0 -56 35 -88.5t100 -32.5q77 0 132.5 50t76.5 151l68 320h19l-90 -425q-5 -20 -5 -42q0 -48 50 -48q13 0 29 4l-5 -19q-13 -4 -29 -4q-64 0 -64 66q0 19 6 43h-2q-30 -59 -81 -87t-106 -28q-67 0 -103.5 29.5t-44.5 70.5h-2 l-60 -283h-19z"/>
<glyph glyph-name="paragraph" horiz-adv-x="523" unicode="¶" d="M572 714l-176 -831h-19l172 812h-177l-172 -812h-19l93 441q-79 0 -125.5 42.5t-46.5 113.5q0 108 79.5 171t194.5 63h196z"/>
<glyph glyph-name="periodcentered" horiz-adv-x="244" unicode="·" d="M110 277l12 53h39l-12 -53h-39z"/>
<glyph glyph-name="cedilla" horiz-adv-x="470" unicode="¸" d="M161 6l-32 -78q14 4 34 4q31 0 48 -16.5t17 -42.5q0 -42 -31.5 -62.5t-80.5 -20.5q-26 0 -46 5l3 17q19 -4 46 -4q89 0 89 64q0 19 -14 30.5t-40 11.5q-24 0 -49 -6l37 98h19z"/>
<glyph glyph-name="onesuperior" horiz-adv-x="377" unicode="¹" d="M344 857l-91 -429h-19l86 406h-1l-106 -59l-7 15l119 67h19z"/>
<glyph glyph-name="ordmasculine" horiz-adv-x="358" unicode="º" d="M215 387q68 0 105.5 59t37.5 131q0 45 -23.5 73t-68.5 28q-66 0 -103 -56.5t-37 -131.5q0 -46 22.5 -74.5t66.5 -28.5zM377 577q0 -46 -15 -91.5t-53.5 -81.5t-93.5 -36q-53 0 -80.5 33.5t-27.5 87.5q0 87 43 147.5t116 60.5q52 0 81.5 -33.5t29.5 -86.5z"/>
<glyph glyph-name="guillemotright" horiz-adv-x="482" unicode="»" d="M65 125l159 173l-83 173h20l84 -173l-1 -5l-155 -168h-24zM223 125l159 173l-83 173h20l84 -173l-1 -5l-155 -168h-24z"/>
<glyph glyph-name="onequarter" horiz-adv-x="883" unicode="¼" d="M686 135l57 267h-1l-241 -267h185zM768 429l-62 -294h67l-4 -19h-67l-25 -116h-20l25 116h-207l3 20l264 293h26zM750 714l-568 -714h-21l568 714h21zM323 714l-91 -429h-19l86 406h-1l-106 -59l-7 15l119 67h19z"/>
<glyph glyph-name="onehalf" horiz-adv-x="883" unicode="½" d="M750 714l-568 -714h-21l568 714h21zM748 19l-4 -19h-262l3 17q187 151 242.5 209t55.5 114q0 35 -23.5 56t-62.5 21q-51 0 -112 -40l-9 15q61 44 122 44q49 0 76.5 -26.5t27.5 -69.5q0 -60 -54.5 -119t-232.5 -201v-1h233zM323 714l-91 -429h-19l86 406h-1l-106 -59 l-7 15l119 67h19z"/>
<glyph glyph-name="threequarters" horiz-adv-x="883" unicode="¾" d="M773 714l-568 -714h-21l568 714h21zM686 135l57 267h-1l-241 -267h185zM768 429l-62 -294h67l-4 -19h-67l-25 -116h-20l25 116h-207l3 20l264 293h26zM180 498l4 19h46q65 0 105 28t40 80q0 36 -25.5 56.5t-66.5 20.5q-54 0 -105 -26l-5 18q55 27 111 27q51 0 80.5 -26 t29.5 -70q0 -47 -29.5 -77.5t-75.5 -40.5v-1q34 -10 53.5 -35t19.5 -60q0 -64 -45.5 -98.5t-115.5 -34.5q-72 0 -120 30l9 18q47 -29 111 -29q59 0 100.5 28t41.5 85q0 41 -31.5 64.5t-83.5 23.5h-48z"/>
<glyph glyph-name="questiondown" horiz-adv-x="425" unicode="¿" d="M252 350l8 39h20l-9 -41q-16 -73 -44.5 -115t-91.5 -91l-40 -31q-54 -42 -80 -78.5t-26 -92.5q0 -57 40.5 -88t101.5 -31q68 0 134 27l5 -17q-69 -29 -141 -29q-69 0 -114 35t-45 102q0 61 29.5 103t104.5 98q74 55 104 98t44 112zM277 528h39l-11 -53h-39z"/>
<glyph glyph-name="Agrave" horiz-adv-x="575" unicode="À" d="M327 913h24l79 -134h-19zM405 700l-270 -437h330zM467 244h-342l-151 -244h-22l440 714h29l99 -714h-19z"/>
<glyph glyph-name="Aacute" horiz-adv-x="575" unicode="Á" d="M537 913h26l-131 -134h-20zM405 700l-270 -437h330zM467 244h-342l-151 -244h-22l440 714h29l99 -714h-19z"/>
<glyph glyph-name="Acircumflex" horiz-adv-x="575" unicode="Â" d="M552 771h-18l-87 129l-143 -129h-22l156 146h21zM405 700l-270 -437h330zM467 244h-342l-151 -244h-22l440 714h29l99 -714h-19z"/>
<glyph glyph-name="Atilde" horiz-adv-x="575" unicode="Ã" d="M500 800q-28 0 -68 34q-16 14 -22 19t-18 11t-23 6q-47 0 -62 -70h-18q18 89 80 89q31 0 68 -34q40 -36 63 -36q50 0 65 70h18q-9 -41 -30 -65t-53 -24zM405 700l-270 -437h330zM467 244h-342l-151 -244h-22l440 714h29l99 -714h-19z"/>
<glyph glyph-name="Adieresis" horiz-adv-x="575" unicode="Ä" d="M507 866h28l-10 -44h-28zM345 866h28l-10 -44h-28zM405 700l-270 -437h330zM467 244h-342l-151 -244h-22l440 714h29l99 -714h-19z"/>
<glyph glyph-name="Aring" horiz-adv-x="575" unicode="Å" d="M502 840q0 29 -20 49t-49 20t-49 -20t-20 -49t20 -49t49 -20t49 20t20 49zM521 840q0 -37 -25.5 -62.5t-62.5 -25.5t-62.5 25.5t-25.5 62.5t25.5 62.5t62.5 25.5t62.5 -25.5t25.5 -62.5zM405 700l-270 -437h330zM467 244h-342l-151 -244h-22l440 714h29l99 -714h-19z"/>
<glyph glyph-name="AE" horiz-adv-x="803" unicode="Æ" d="M493 697l-338 -454h244l96 454h-2zM348 0l47 224h-254l-167 -224h-22l530 714h342l-4 -19h-306l-67 -316h304l-4 -19h-304l-72 -341h336l-4 -19h-355z"/>
<glyph glyph-name="Ccedilla" horiz-adv-x="566" unicode="Ç" d="M488 32v-20q-64 -24 -146 -24q-29 0 -49 4l-26 -64q14 4 34 4q31 0 48 -16.5t17 -42.5q0 -42 -31.5 -62.5t-80.5 -20.5q-26 0 -46 5l3 17q19 -4 46 -4q89 0 89 64q0 19 -14 30.5t-40 11.5q-24 0 -49 -6l33 87q-96 20 -146.5 95t-50.5 180q0 85 25.5 165.5t73 146 t124.5 105t172 39.5q78 0 131 -24l-7 -17q-53 22 -125 22q-92 0 -165.5 -39t-118 -103t-68 -139.5t-23.5 -154.5q0 -115 63.5 -189.5t185.5 -74.5q74 0 141 25z"/>
<glyph glyph-name="Egrave" horiz-adv-x="509" unicode="È" d="M306 913h24l79 -134h-19zM54 0l151 714h325l-4 -19h-306l-67 -316h304l-4 -19h-304l-72 -341h336l-4 -19h-355z"/>
<glyph glyph-name="Eacute" horiz-adv-x="509" unicode="É" d="M484 913h26l-131 -134h-20zM54 0l151 714h325l-4 -19h-306l-67 -316h304l-4 -19h-304l-72 -341h336l-4 -19h-355z"/>
<glyph glyph-name="Ecircumflex" horiz-adv-x="509" unicode="Ê" d="M514 771h-18l-87 129l-143 -129h-22l156 146h21zM54 0l151 714h325l-4 -19h-306l-67 -316h304l-4 -19h-304l-72 -341h336l-4 -19h-355z"/>
<glyph glyph-name="Edieresis" horiz-adv-x="509" unicode="Ë" d="M472 866h28l-10 -44h-28zM310 866h28l-10 -44h-28zM54 0l151 714h325l-4 -19h-306l-67 -316h304l-4 -19h-304l-72 -341h336l-4 -19h-355z"/>
<glyph glyph-name="Igrave" horiz-adv-x="227" unicode="Ì" d="M135 913h24l79 -134h-19zM54 0l151 714h19l-151 -714h-19z"/>
<glyph glyph-name="Iacute" horiz-adv-x="227" unicode="Í" d="M344 913h26l-131 -134h-20zM54 0l151 714h19l-151 -714h-19z"/>
<glyph glyph-name="Icircumflex" horiz-adv-x="227" unicode="Î" d="M361 771h-18l-87 129l-143 -129h-22l156 146h21zM54 0l151 714h19l-151 -714h-19z"/>
<glyph glyph-name="Idieresis" horiz-adv-x="227" unicode="Ï" d="M314 866h28l-10 -44h-28zM152 866h28l-10 -44h-28zM54 0l151 714h19l-151 -714h-19z"/>
<glyph glyph-name="Eth" horiz-adv-x="670" unicode="Ð" d="M294 360h-145l-72 -341h120q193 0 304.5 111t111.5 300q0 121 -72 193t-218 72h-103l-67 -316h145zM54 0l76 360h-75l4 19h75l71 335h124q148 0 225.5 -76t77.5 -207q0 -204 -120.5 -317.5t-316.5 -113.5h-141z"/>
<glyph glyph-name="Ntilde" horiz-adv-x="678" unicode="Ñ" d="M532 800q-28 0 -68 34q-16 14 -22 19t-18 11t-23 6q-47 0 -62 -70h-18q18 89 80 89q31 0 68 -34q40 -36 63 -36q50 0 65 70h18q-9 -41 -30 -65t-53 -24zM237 714l268 -697h2l148 697h19l-151 -714h-32l-268 697h-2l-148 -697h-19l151 714h32z"/>
<glyph glyph-name="Ograve" horiz-adv-x="717" unicode="Ò" d="M394 913h24l79 -134h-19zM315 7q67 0 124 27t97 72.5t68 104.5t41.5 123t13.5 129q0 112 -54 178t-161 66q-101 0 -181 -63.5t-122.5 -167.5t-42.5 -225q0 -112 54.5 -178t162.5 -66zM679 466q0 -83 -22 -164.5t-64.5 -153t-115 -116t-163.5 -44.5q-116 0 -176 71 t-60 192q0 82 22.5 163.5t66 152.5t116 115t163.5 44q114 0 173.5 -70.5t59.5 -189.5z"/>
<glyph glyph-name="Oacute" horiz-adv-x="717" unicode="Ó" d="M558 913h26l-131 -134h-20zM315 7q67 0 124 27t97 72.5t68 104.5t41.5 123t13.5 129q0 112 -54 178t-161 66q-101 0 -181 -63.5t-122.5 -167.5t-42.5 -225q0 -112 54.5 -178t162.5 -66zM679 466q0 -83 -22 -164.5t-64.5 -153t-115 -116t-163.5 -44.5q-116 0 -176 71 t-60 192q0 82 22.5 163.5t66 152.5t116 115t163.5 44q114 0 173.5 -70.5t59.5 -189.5z"/>
<glyph glyph-name="Ocircumflex" horiz-adv-x="717" unicode="Ô" d="M601 771h-18l-87 129l-143 -129h-22l156 146h21zM315 7q67 0 124 27t97 72.5t68 104.5t41.5 123t13.5 129q0 112 -54 178t-161 66q-101 0 -181 -63.5t-122.5 -167.5t-42.5 -225q0 -112 54.5 -178t162.5 -66zM679 466q0 -83 -22 -164.5t-64.5 -153t-115 -116t-163.5 -44.5 q-116 0 -176 71t-60 192q0 82 22.5 163.5t66 152.5t116 115t163.5 44q114 0 173.5 -70.5t59.5 -189.5z"/>
<glyph glyph-name="Otilde" horiz-adv-x="717" unicode="Õ" d="M547 800q-28 0 -68 34q-16 14 -22 19t-18 11t-23 6q-47 0 -62 -70h-18q18 89 80 89q31 0 68 -34q40 -36 63 -36q50 0 65 70h18q-9 -41 -30 -65t-53 -24zM315 7q67 0 124 27t97 72.5t68 104.5t41.5 123t13.5 129q0 112 -54 178t-161 66q-101 0 -181 -63.5t-122.5 -167.5 t-42.5 -225q0 -112 54.5 -178t162.5 -66zM679 466q0 -83 -22 -164.5t-64.5 -153t-115 -116t-163.5 -44.5q-116 0 -176 71t-60 192q0 82 22.5 163.5t66 152.5t116 115t163.5 44q114 0 173.5 -70.5t59.5 -189.5z"/>
<glyph glyph-name="Odieresis" horiz-adv-x="717" unicode="Ö" d="M554 866h28l-10 -44h-28zM392 866h28l-10 -44h-28zM315 7q67 0 124 27t97 72.5t68 104.5t41.5 123t13.5 129q0 112 -54 178t-161 66q-101 0 -181 -63.5t-122.5 -167.5t-42.5 -225q0 -112 54.5 -178t162.5 -66zM679 466q0 -83 -22 -164.5t-64.5 -153t-115 -116 t-163.5 -44.5q-116 0 -176 71t-60 192q0 82 22.5 163.5t66 152.5t116 115t163.5 44q114 0 173.5 -70.5t59.5 -189.5z"/>
<glyph glyph-name="multiply" d="M80 91l-14 14l201 203l-201 204l13 13l202 -204l202 204l13 -13l-202 -204l202 -203l-14 -14l-201 203z" unicode="×"/>
<glyph glyph-name="Oslash" horiz-adv-x="717" unicode="Ø" d="M315 7q67 0 124 27t97 72.5t68 104.5t41.5 123t13.5 129q0 82 -28 138l-495 -505q55 -89 179 -89zM98 251q0 -82 28 -139l495 505q-55 90 -177 90q-101 0 -181 -63.5t-122.5 -167.5t-42.5 -225zM679 466q0 -83 -22 -164.5t-64.5 -153t-115 -116t-163.5 -44.5 q-132 0 -193 93l-84 -86l-13 13l87 89q-33 63 -33 154q0 82 22.5 163.5t66 152.5t116 115t163.5 44q129 0 190 -93l81 82l13 -13l-84 -86q33 -61 33 -150z"/>
<glyph glyph-name="Ugrave" horiz-adv-x="681" unicode="Ù" d="M375 913h24l79 -134h-19zM685 714l-102 -484q-13 -59 -31 -100.5t-50 -75t-82 -50t-121 -16.5q-112 0 -164.5 44t-52.5 121q0 34 10 79l102 482h19l-103 -487q-8 -36 -8 -72q0 -148 197 -148q123 0 182 54.5t82 165.5l103 487h19z"/>
<glyph glyph-name="Uacute" horiz-adv-x="681" unicode="Ú" d="M548 913h26l-131 -134h-20zM685 714l-102 -484q-13 -59 -31 -100.5t-50 -75t-82 -50t-121 -16.5q-112 0 -164.5 44t-52.5 121q0 34 10 79l102 482h19l-103 -487q-8 -36 -8 -72q0 -148 197 -148q123 0 182 54.5t82 165.5l103 487h19z"/>
<glyph glyph-name="Ucircumflex" horiz-adv-x="681" unicode="Û" d="M586 771h-18l-87 129l-143 -129h-22l156 146h21zM685 714l-102 -484q-13 -59 -31 -100.5t-50 -75t-82 -50t-121 -16.5q-112 0 -164.5 44t-52.5 121q0 34 10 79l102 482h19l-103 -487q-8 -36 -8 -72q0 -148 197 -148q123 0 182 54.5t82 165.5l103 487h19z"/>
<glyph glyph-name="Udieresis" horiz-adv-x="681" unicode="Ü" d="M539 866h28l-10 -44h-28zM377 866h28l-10 -44h-28zM685 714l-102 -484q-13 -59 -31 -100.5t-50 -75t-82 -50t-121 -16.5q-112 0 -164.5 44t-52.5 121q0 34 10 79l102 482h19l-103 -487q-8 -36 -8 -72q0 -148 197 -148q123 0 182 54.5t82 165.5l103 487h19z"/>
<glyph glyph-name="Yacute" horiz-adv-x="516" unicode="Ý" d="M461 913h26l-131 -134h-20zM187 0l63 300l-146 414h22l137 -396l328 396h24l-346 -414l-63 -300h-19z"/>
<glyph glyph-name="Thorn" horiz-adv-x="566" unicode="Þ" d="M191 556l-73 -343h156q254 0 254 197q0 74 -53.5 110t-132.5 36h-151zM54 0l151 714h19l-29 -139h155q83 0 140.5 -41.5t57.5 -122.5q0 -64 -24.5 -109t-67 -67t-87 -31.5t-97.5 -9.5h-158l-41 -194h-19z"/>
<glyph glyph-name="germandbls" horiz-adv-x="614" unicode="ß" d="M403 735q80 0 129.5 -44t49.5 -118q0 -81 -50 -134t-135 -67v-2q70 -16 106.5 -60t36.5 -110q0 -100 -64.5 -156t-171.5 -56q-62 0 -119 20l7 19q57 -20 112 -20q98 0 157.5 50t59.5 143q0 68 -48.5 114t-152.5 46l4 19q47 2 88 13t75.5 33t54.5 60t20 88q0 64 -44 103.5 t-115 39.5q-92 0 -150.5 -54.5t-85.5 -181.5l-102 -480h-19l102 483q28 135 91.5 193.5t163.5 58.5z"/>
<glyph glyph-name="agrave" horiz-adv-x="511" unicode="à" d="M347 604l-86 164h23l82 -164h-19zM422 292h-27q-161 0 -247.5 -38t-86.5 -129q0 -55 35 -86.5t93 -31.5q169 0 220 227zM425 310l7 32q8 42 8 59q0 61 -37.5 90.5t-102.5 29.5q-66 0 -138 -24v19q70 24 138 24q76 0 117.5 -35.5t41.5 -100.5q0 -22 -8 -59l-44 -209 q-18 -80 -19 -136h-19q2 37 19 125h-2q-27 -61 -77 -99t-121 -38q-66 0 -106 36.5t-40 99.5q0 105 95.5 145.5t287.5 40.5z"/>
<glyph glyph-name="aacute" horiz-adv-x="511" unicode="á" d="M450 768l-145 -164h-20l140 164h25zM422 292h-27q-161 0 -247.5 -38t-86.5 -129q0 -55 35 -86.5t93 -31.5q169 0 220 227zM425 310l7 32q8 42 8 59q0 61 -37.5 90.5t-102.5 29.5q-66 0 -138 -24v19q70 24 138 24q76 0 117.5 -35.5t41.5 -100.5q0 -22 -8 -59l-44 -209 q-18 -80 -19 -136h-19q2 37 19 125h-2q-27 -61 -77 -99t-121 -38q-66 0 -106 36.5t-40 99.5q0 105 95.5 145.5t287.5 40.5z"/>
<glyph glyph-name="acircumflex" horiz-adv-x="511" unicode="â" d="M462 604h-18l-87 147l-143 -147h-22l156 164h21zM422 292h-27q-161 0 -247.5 -38t-86.5 -129q0 -55 35 -86.5t93 -31.5q169 0 220 227zM425 310l7 32q8 42 8 59q0 61 -37.5 90.5t-102.5 29.5q-66 0 -138 -24v19q70 24 138 24q76 0 117.5 -35.5t41.5 -100.5q0 -22 -8 -59 l-44 -209q-18 -80 -19 -136h-19q2 37 19 125h-2q-27 -61 -77 -99t-121 -38q-66 0 -106 36.5t-40 99.5q0 105 95.5 145.5t287.5 40.5z"/>
<glyph glyph-name="atilde" horiz-adv-x="511" unicode="ã" d="M405 642q-28 0 -68 34q-16 14 -22 19t-18 11t-23 6q-47 0 -62 -70h-18q18 89 80 89q31 0 68 -34q40 -36 63 -36q50 0 65 70h18q-9 -41 -30 -65t-53 -24zM422 292h-27q-161 0 -247.5 -38t-86.5 -129q0 -55 35 -86.5t93 -31.5q169 0 220 227zM425 310l7 32q8 42 8 59 q0 61 -37.5 90.5t-102.5 29.5q-66 0 -138 -24v19q70 24 138 24q76 0 117.5 -35.5t41.5 -100.5q0 -22 -8 -59l-44 -209q-18 -80 -19 -136h-19q2 37 19 125h-2q-27 -61 -77 -99t-121 -38q-66 0 -106 36.5t-40 99.5q0 105 95.5 145.5t287.5 40.5z"/>
<glyph glyph-name="adieresis" horiz-adv-x="511" unicode="ä" d="M420 708h28l-9 -44h-28zM258 708h28l-9 -44h-28zM422 292h-27q-161 0 -247.5 -38t-86.5 -129q0 -55 35 -86.5t93 -31.5q169 0 220 227zM425 310l7 32q8 42 8 59q0 61 -37.5 90.5t-102.5 29.5q-66 0 -138 -24v19q70 24 138 24q76 0 117.5 -35.5t41.5 -100.5q0 -22 -8 -59 l-44 -209q-18 -80 -19 -136h-19q2 37 19 125h-2q-27 -61 -77 -99t-121 -38q-66 0 -106 36.5t-40 99.5q0 105 95.5 145.5t287.5 40.5z"/>
<glyph glyph-name="aring" horiz-adv-x="511" unicode="å" d="M421 685q0 29 -20 49t-49 20t-49 -20t-20 -49t20 -49t49 -20t49 20t20 49zM440 685q0 -37 -25.5 -62.5t-62.5 -25.5t-62.5 25.5t-25.5 62.5t25.5 62.5t62.5 25.5t62.5 -25.5t25.5 -62.5zM422 292h-27q-161 0 -247.5 -38t-86.5 -129q0 -55 35 -86.5t93 -31.5 q169 0 220 227zM425 310l7 32q8 42 8 59q0 61 -37.5 90.5t-102.5 29.5q-66 0 -138 -24v19q70 24 138 24q76 0 117.5 -35.5t41.5 -100.5q0 -22 -8 -59l-44 -209q-18 -80 -19 -136h-19q2 37 19 125h-2q-27 -61 -77 -99t-121 -38q-66 0 -106 36.5t-40 99.5q0 105 95.5 145.5 t287.5 40.5z"/>
<glyph glyph-name="ae" horiz-adv-x="887" unicode="æ" d="M827 303q6 33 6 66q0 70 -37 111t-115 41q-91 0 -153 -65t-85 -153h384zM420 284h-26q-165 0 -249 -35.5t-84 -125.5q0 -53 35.5 -84.5t93.5 -31.5q170 0 218 222zM842 284h-403q-9 -52 -9 -80q0 -83 48.5 -140t146.5 -57q67 0 128 18v-18q-57 -19 -129 -19 q-93 0 -147 50t-64 133h-1q-62 -183 -223 -183q-67 0 -107 36.5t-40 97.5q0 43 17 74.5t47 52t79 32.5t105.5 17t133.5 5l8 39q8 42 8 59q0 61 -37.5 90.5t-102.5 29.5q-66 0 -138 -24v19q70 24 138 24q75 0 116.5 -35t41.5 -98v-16h1q36 68 93.5 108.5t130.5 40.5 q86 0 127.5 -46t41.5 -124q0 -35 -10 -86z"/>
<glyph glyph-name="ccedilla" horiz-adv-x="436" unicode="ç" d="M450 525l-6 -18q-36 14 -93 14q-119 0 -194 -94.5t-75 -225.5q0 -86 43.5 -140t130.5 -54q59 0 108 18v-18q-55 -19 -109 -19q-12 0 -32 2l-25 -62q14 4 34 4q31 0 48 -16.5t17 -42.5q0 -42 -31.5 -62.5t-80.5 -20.5q-26 0 -46 5l3 17q19 -4 46 -4q89 0 89 64 q0 19 -14 30.5t-40 11.5q-24 0 -49 -6l32 85q-72 14 -107.5 70.5t-35.5 137.5q0 140 81.5 239.5t208.5 99.5q59 0 97 -15z"/>
<glyph glyph-name="egrave" horiz-adv-x="544" unicode="è" d="M374 604l-86 164h23l82 -164h-19zM480 285q10 47 10 84q0 70 -37 111t-115 41q-93 0 -157 -69t-85 -167h384zM495 266h-403q-5 -29 -5 -62q0 -83 48.5 -140t146.5 -57q67 0 128 18v-18q-57 -19 -129 -19q-104 0 -158.5 60t-54.5 154q0 59 18.5 118t52 108.5t86 80.5 t115.5 31q86 0 127.5 -46t41.5 -124q0 -39 -14 -104z"/>
<glyph glyph-name="eacute" horiz-adv-x="544" unicode="é" d="M501 768l-145 -164h-20l140 164h25zM480 285q10 47 10 84q0 70 -37 111t-115 41q-93 0 -157 -69t-85 -167h384zM495 266h-403q-5 -29 -5 -62q0 -83 48.5 -140t146.5 -57q67 0 128 18v-18q-57 -19 -129 -19q-104 0 -158.5 60t-54.5 154q0 59 18.5 118t52 108.5t86 80.5 t115.5 31q86 0 127.5 -46t41.5 -124q0 -39 -14 -104z"/>
<glyph glyph-name="ecircumflex" horiz-adv-x="544" unicode="ê" d="M500 604h-18l-87 147l-143 -147h-22l156 164h21zM480 285q10 47 10 84q0 70 -37 111t-115 41q-93 0 -157 -69t-85 -167h384zM495 266h-403q-5 -29 -5 -62q0 -83 48.5 -140t146.5 -57q67 0 128 18v-18q-57 -19 -129 -19q-104 0 -158.5 60t-54.5 154q0 59 18.5 118 t52 108.5t86 80.5t115.5 31q86 0 127.5 -46t41.5 -124q0 -39 -14 -104z"/>
<glyph glyph-name="edieresis" horiz-adv-x="544" unicode="ë" d="M455 708h28l-9 -44h-28zM293 708h28l-9 -44h-28zM480 285q10 47 10 84q0 70 -37 111t-115 41q-93 0 -157 -69t-85 -167h384zM495 266h-403q-5 -29 -5 -62q0 -83 48.5 -140t146.5 -57q67 0 128 18v-18q-57 -19 -129 -19q-104 0 -158.5 60t-54.5 154q0 59 18.5 118 t52 108.5t86 80.5t115.5 31q86 0 127.5 -46t41.5 -124q0 -39 -14 -104z"/>
<glyph glyph-name="igrave" horiz-adv-x="216" unicode="ì" d="M174 604l-86 164h23l82 -164h-19zM158 528h19l-112 -528h-19z"/>
<glyph glyph-name="iacute" horiz-adv-x="216" unicode="í" d="M339 768l-145 -164h-20l140 164h25zM158 528h19l-112 -528h-19z"/>
<glyph glyph-name="icircumflex" horiz-adv-x="216" unicode="î" d="M318 604h-18l-87 147l-143 -147h-22l156 164h21zM158 528h19l-112 -528h-19z"/>
<glyph glyph-name="idieresis" horiz-adv-x="216" unicode="ï" d="M272 708h28l-9 -44h-28zM110 708h28l-9 -44h-28zM158 528h19l-112 -528h-19z"/>
<glyph glyph-name="eth" horiz-adv-x="560" unicode="ð" d="M244 7q101 0 169.5 89t68.5 210q0 72 -43 120.5t-117 48.5q-103 0 -169.5 -88.5t-66.5 -204.5q0 -77 41 -126t117 -49zM244 -12q-84 0 -130.5 53.5t-46.5 139.5q0 130 74 221.5t181 91.5q66 0 111 -35.5t60 -98.5h1q0 190 -89 273l-174 -68v19l159 62q-49 38 -134 59 l11 17q91 -22 145 -68l121 48v-19l-107 -42q87 -86 87 -261q0 -83 -21 -163q-27 -102 -92 -165.5t-156 -63.5z"/>
<glyph glyph-name="ntilde" horiz-adv-x="554" unicode="ñ" d="M446 642q-28 0 -68 34q-16 14 -22 19t-18 11t-23 6q-47 0 -62 -70h-18q18 89 80 89q31 0 68 -34q40 -36 63 -36q50 0 65 70h18q-9 -41 -30 -65t-53 -24zM158 528h19l-23 -103h2q30 59 81.5 87t105.5 28q72 0 112.5 -37t40.5 -101q0 -34 -8 -74l-69 -328h-19l69 327 q8 42 8 73q0 56 -35.5 88.5t-99.5 32.5q-77 0 -132.5 -50t-76.5 -151l-68 -320h-19z"/>
<glyph glyph-name="ograve" horiz-adv-x="560" unicode="ò" d="M370 604l-86 164h23l82 -164h-19zM243 7q80 0 138 53.5t83.5 127t25.5 152.5q0 81 -41.5 131t-120.5 50q-78 0 -134 -49.5t-81.5 -123t-25.5 -158.5q0 -81 39 -132t117 -51zM509 341q0 -56 -15 -114.5t-45 -113.5t-83.5 -90t-122.5 -35q-86 0 -130.5 55.5t-44.5 145.5 q0 147 70.5 249t189.5 102q85 0 133 -55t48 -144z"/>
<glyph glyph-name="oacute" horiz-adv-x="560" unicode="ó" d="M492 768l-145 -164h-20l140 164h25zM243 7q80 0 138 53.5t83.5 127t25.5 152.5q0 81 -41.5 131t-120.5 50q-78 0 -134 -49.5t-81.5 -123t-25.5 -158.5q0 -81 39 -132t117 -51zM509 341q0 -56 -15 -114.5t-45 -113.5t-83.5 -90t-122.5 -35q-86 0 -130.5 55.5t-44.5 145.5 q0 147 70.5 249t189.5 102q85 0 133 -55t48 -144z"/>
<glyph glyph-name="ocircumflex" horiz-adv-x="560" unicode="ô" d="M495 604h-18l-87 147l-143 -147h-22l156 164h21zM243 7q80 0 138 53.5t83.5 127t25.5 152.5q0 81 -41.5 131t-120.5 50q-78 0 -134 -49.5t-81.5 -123t-25.5 -158.5q0 -81 39 -132t117 -51zM509 341q0 -56 -15 -114.5t-45 -113.5t-83.5 -90t-122.5 -35q-86 0 -130.5 55.5 t-44.5 145.5q0 147 70.5 249t189.5 102q85 0 133 -55t48 -144z"/>
<glyph glyph-name="otilde" horiz-adv-x="560" unicode="õ" d="M442 642q-28 0 -68 34q-16 14 -22 19t-18 11t-23 6q-47 0 -62 -70h-18q18 89 80 89q31 0 68 -34q40 -36 63 -36q50 0 65 70h18q-9 -41 -30 -65t-53 -24zM243 7q80 0 138 53.5t83.5 127t25.5 152.5q0 81 -41.5 131t-120.5 50q-78 0 -134 -49.5t-81.5 -123t-25.5 -158.5 q0 -81 39 -132t117 -51zM509 341q0 -56 -15 -114.5t-45 -113.5t-83.5 -90t-122.5 -35q-86 0 -130.5 55.5t-44.5 145.5q0 147 70.5 249t189.5 102q85 0 133 -55t48 -144z"/>
<glyph glyph-name="odieresis" horiz-adv-x="560" unicode="ö" d="M449 708h28l-9 -44h-28zM287 708h28l-9 -44h-28zM243 7q80 0 138 53.5t83.5 127t25.5 152.5q0 81 -41.5 131t-120.5 50q-78 0 -134 -49.5t-81.5 -123t-25.5 -158.5q0 -81 39 -132t117 -51zM509 341q0 -56 -15 -114.5t-45 -113.5t-83.5 -90t-122.5 -35q-86 0 -130.5 55.5 t-44.5 145.5q0 147 70.5 249t189.5 102q85 0 133 -55t48 -144z"/>
<glyph glyph-name="divide" d="M261 467v53h39v-53h-39zM497 305h-433v19h433v-19zM261 109v53h39v-53h-39z" unicode="÷"/>
<glyph glyph-name="oslash" horiz-adv-x="560" unicode="ø" d="M87 190q0 -52 15 -91l362 350q-42 72 -136 72q-78 0 -134 -49.5t-81.5 -123t-25.5 -158.5zM243 7q80 0 138 53.5t83.5 127t25.5 152.5q0 53 -18 92l-362 -350q39 -75 133 -75zM509 341q0 -56 -15 -114.5t-45 -113.5t-83.5 -90t-122.5 -35q-104 0 -147 80l-80 -77l-12 13 l83 80q-19 44 -19 105q0 147 70.5 249t189.5 102q102 0 150 -78l75 72l12 -13l-78 -75q22 -47 22 -105z"/>
<glyph glyph-name="ugrave" horiz-adv-x="554" unicode="ù" d="M357 604l-86 164h23l82 -164h-19zM407 0h-19l23 103h-2q-30 -59 -81 -87t-106 -28q-72 0 -112.5 37t-40.5 101q0 34 8 74l69 328h19l-69 -327q-8 -42 -8 -73q0 -56 35 -88.5t100 -32.5q77 0 132.5 50t76.5 151l68 320h19z"/>
<glyph glyph-name="uacute" horiz-adv-x="554" unicode="ú" d="M491 768l-145 -164h-20l140 164h25zM407 0h-19l23 103h-2q-30 -59 -81 -87t-106 -28q-72 0 -112.5 37t-40.5 101q0 34 8 74l69 328h19l-69 -327q-8 -42 -8 -73q0 -56 35 -88.5t100 -32.5q77 0 132.5 50t76.5 151l68 320h19z"/>
<glyph glyph-name="ucircumflex" horiz-adv-x="554" unicode="û" d="M484 604h-18l-87 147l-143 -147h-22l156 164h21zM407 0h-19l23 103h-2q-30 -59 -81 -87t-106 -28q-72 0 -112.5 37t-40.5 101q0 34 8 74l69 328h19l-69 -327q-8 -42 -8 -73q0 -56 35 -88.5t100 -32.5q77 0 132.5 50t76.5 151l68 320h19z"/>
<glyph glyph-name="udieresis" horiz-adv-x="554" unicode="ü" d="M437 708h28l-9 -44h-28zM275 708h28l-9 -44h-28zM407 0h-19l23 103h-2q-30 -59 -81 -87t-106 -28q-72 0 -112.5 37t-40.5 101q0 34 8 74l69 328h19l-69 -327q-8 -42 -8 -73q0 -56 35 -88.5t100 -32.5q77 0 132.5 50t76.5 151l68 320h19z"/>
<glyph glyph-name="yacute" horiz-adv-x="446" unicode="ý" d="M435 768l-145 -164h-20l140 164h25zM96 528l52 -494h2l317 494h24l-470 -723h-24l135 202l-56 521h20z"/>
<glyph glyph-name="thorn" horiz-adv-x="572" unicode="þ" d="M269 7q76 0 131 53t78.5 125.5t23.5 150.5q0 76 -39.5 130.5t-115.5 54.5q-71 0 -126.5 -52t-82.5 -128t-27 -157q0 -79 42 -128t116 -49zM95 144l-72 -339h-19l198 930h19l-72 -333h2q27 58 77.5 98t120.5 40q84 0 128 -60t44 -144q0 -145 -71 -246.5t-182 -101.5 q-80 0 -122 47t-49 109h-2z"/>
<glyph glyph-name="OE" horiz-adv-x="909" unicode="Œ" d="M98 263q0 -116 70.5 -180t199.5 -64h90l143 676h-107q-182 0 -289 -122.5t-107 -309.5zM367 0q-138 0 -213.5 69.5t-75.5 193.5q0 82 24.5 159.5t73 144t131.5 107t189 40.5h434l-4 -19h-306l-67 -316h304l-4 -19h-304l-72 -341h336l-4 -19h-442z"/>
<glyph glyph-name="oe" horiz-adv-x="955" unicode="œ" d="M891 285q10 47 10 84q0 70 -37 111t-115 41q-93 0 -157 -69t-85 -167h384zM243 7q80 0 138 53.5t83.5 127t25.5 152.5q0 81 -41.5 131t-120.5 50q-78 0 -134 -49.5t-81.5 -123t-25.5 -158.5q0 -81 39 -132t117 -51zM906 266h-403q-5 -29 -5 -62q0 -83 48.5 -140 t146.5 -57q67 0 128 18v-18q-57 -19 -129 -19q-96 0 -150.5 52.5t-60.5 139.5h-1q-31 -85 -90 -138.5t-147 -53.5q-86 0 -130.5 55.5t-44.5 145.5q0 147 70.5 249t189.5 102q82 0 130 -52t50 -138h1q33 85 95.5 137.5t146.5 52.5q86 0 127.5 -46t41.5 -124q0 -39 -14 -104z "/>
<glyph glyph-name="Scaron" horiz-adv-x="510" unicode="Š" d="M265 915h18l87 -129l143 129h22l-156 -146h-21zM505 698l-7 -18q-60 27 -139 27q-86 0 -144 -38t-58 -119q0 -29 7 -51t27 -43.5t35 -34.5t52 -40q79 -58 113 -101t34 -109q0 -92 -59.5 -137.5t-159.5 -45.5q-45 0 -101 12.5t-88 29.5l7 18q87 -41 182 -41q91 0 145.5 40 t54.5 121q0 60 -33 102t-107 96q-71 51 -99.5 87.5t-28.5 96.5q0 91 65 133.5t158 42.5q75 0 144 -28z"/>
<glyph glyph-name="scaron" horiz-adv-x="393" unicode="š" d="M166 765h18l87 -147l143 147h22l-156 -164h-21zM377 515l-6 -18q-53 24 -112 24q-63 0 -107 -27.5t-44 -84.5q0 -39 22.5 -66.5t69.5 -58.5q57 -38 88 -74.5t31 -84.5q0 -69 -46.5 -103t-126.5 -34q-34 0 -79 10.5t-70 23.5l8 18q66 -33 142 -33q71 0 112 28t41 87 q0 43 -28.5 77t-82.5 70q-51 34 -75.5 64t-24.5 75q0 68 50.5 100t120.5 32q61 0 117 -25z"/>
<glyph glyph-name="Ydieresis" horiz-adv-x="516" unicode="Ÿ" d="M448 866h28l-10 -44h-28zM286 866h28l-10 -44h-28zM187 0l63 300l-146 414h22l137 -396l328 396h24l-346 -414l-63 -300h-19z"/>
<glyph glyph-name="circumflex" horiz-adv-x="470" unicode="ˆ" d="M446 604h-18l-87 147l-143 -147h-22l156 164h21z"/>
<glyph glyph-name="tilde" horiz-adv-x="470" unicode="˜" d="M394 642q-28 0 -68 34q-16 14 -22 19t-18 11t-23 6q-47 0 -62 -70h-18q18 89 80 89q31 0 68 -34q40 -36 63 -36q50 0 65 70h18q-9 -41 -30 -65t-53 -24z"/>
<glyph glyph-name="uni0394" horiz-adv-x="575" unicode="Δ" d="M-14 19h512l-93 681zM-40 0l4 19l428 695h29l97 -696l-4 -18h-554z"/>
<glyph glyph-name="uni03BC" horiz-adv-x="591" unicode="μ" d="M5 -195l153 723h19l-69 -327q-8 -42 -8 -73q0 -56 35 -88.5t100 -32.5q77 0 132.5 50t76.5 151l68 320h19l-90 -425q-5 -20 -5 -42q0 -48 50 -48q13 0 29 4l-5 -19q-13 -4 -29 -4q-64 0 -64 66q0 19 6 43h-2q-30 -59 -81 -87t-106 -28q-67 0 -103.5 29.5t-44.5 70.5h-2 l-60 -283h-19z"/>
<glyph glyph-name="pi" horiz-adv-x="602" unicode="π" d="M45 0l163 509h-132l4 19h542l-4 -19h-129l-84 -395q-7 -31 -7 -50q0 -51 63 -51q26 0 46 5l-5 -19q-23 -5 -44 -5q-35 0 -57 16.5t-22 50.5q0 20 7 50l84 398h-243l-161 -509h-21z"/>
<glyph glyph-name="endash" horiz-adv-x="372" unicode="–" d="M40 292l4 19h316l-4 -19h-316z"/>
<glyph glyph-name="emdash" horiz-adv-x="558" unicode="—" d="M40 292l4 19h502l-4 -19h-502z"/>
<glyph glyph-name="quoteleft" horiz-adv-x="258" unicode="‘" d="M274 735l-98 -196h-23l102 196h19z"/>
<glyph glyph-name="quotesinglbase" horiz-adv-x="258" unicode="‚" d="M13 -120l97 195h23l-100 -195h-20z"/>
<glyph glyph-name="quotedblleft" horiz-adv-x="369" unicode="“" d="M386 735l-98 -196h-23l101 196h20zM274 735l-98 -196h-23l102 196h19z"/>
<glyph glyph-name="quotedblright" horiz-adv-x="369" unicode="”" d="M153 539l98 196h23l-101 -196h-20zM265 539l98 196h23l-102 -196h-19z"/>
<glyph glyph-name="dagger" horiz-adv-x="501" unicode="†" d="M349 668l-46 -218h204l-4 -19h-204l-118 -557h-19l118 557h-204l4 19h204l46 218h19z"/>
<glyph glyph-name="daggerdbl" horiz-adv-x="501" unicode="‡" d="M348 668l-44 -207h194l-4 -19h-194l-72 -342h194l-4 -19h-194l-44 -207h-19l44 207h-194l4 19h194l72 342h-194l4 19h194l44 207h19z"/>
<glyph glyph-name="ellipsis" horiz-adv-x="732" unicode="…" d="M540 0l11 53h39l-11 -53h-39zM296 0l11 53h39l-11 -53h-39zM52 0l11 53h39l-11 -53h-39z"/>
<glyph glyph-name="perthousand" horiz-adv-x="1010" unicode="‰" d="M912 209q0 40 -18.5 65.5t-55.5 25.5q-44 0 -74.5 -35t-42.5 -78.5t-12 -88.5q0 -40 18.5 -65.5t55.5 -25.5q44 0 74.5 35t42.5 78.5t12 88.5zM932 209q0 -80 -39 -150.5t-111 -70.5q-45 0 -69 31t-24 79q0 80 39 150.5t111 70.5q45 0 69 -31t24 -79zM612 209 q0 40 -18.5 65.5t-55.5 25.5q-44 0 -74.5 -35t-42.5 -78.5t-12 -88.5q0 -40 18.5 -65.5t55.5 -25.5q44 0 74.5 35t42.5 78.5t12 88.5zM632 209q0 -80 -39 -150.5t-111 -70.5q-45 0 -69 31t-24 79q0 80 39 150.5t111 70.5q45 0 69 -31t24 -79zM346 604q0 40 -18.5 65.5 t-55.5 25.5q-44 0 -74.5 -35t-42.5 -78.5t-12 -88.5q0 -40 18.5 -65.5t55.5 -25.5q44 0 74.5 35t42.5 78.5t12 88.5zM366 604q0 -80 -39 -150.5t-111 -70.5q-45 0 -69 31t-24 79q0 80 39 150.5t111 70.5q45 0 69 -31t24 -79zM71 0l592 714h23l-592 -714h-23z"/>
<glyph glyph-name="guilsinglleft" horiz-adv-x="324" unicode="‹" d="M282 471l-159 -173l83 -173h-20l-84 173l1 5l155 168h24z"/>
<glyph glyph-name="guilsinglright" horiz-adv-x="324" unicode="›" d="M65 125l159 173l-83 173h20l84 -173l-1 -5l-155 -168h-24z"/>
<glyph glyph-name="fraction" horiz-adv-x="98" unicode="⁄" d="M369 714l-568 -714h-21l568 714h21z"/>
<glyph glyph-name="Euro" horiz-adv-x="670" unicode="€" d="M556 32v-20q-65 -24 -146 -24q-128 0 -195.5 80t-67.5 202v13h-87l8 19h80q3 67 22 128h-78l8 19h76q42 122 136.5 199.5t229.5 77.5q78 0 131 -24l-7 -17q-53 22 -125 22q-128 0 -215.5 -72t-128.5 -186h356l-8 -19h-355q-20 -65 -23 -128h328l-8 -19h-321v-12 q0 -115 63.5 -189.5t185.5 -74.5q74 0 141 25z"/>
<glyph glyph-name="trademark" horiz-adv-x="899" unicode="™" d="M803 714v-383h-19v362h-2l-133 -362h-28l-133 362h-2v-362h-19v383h34l134 -362h2l132 362h34zM405 714v-19h-113v-364h-19v364h-115v19h247z"/>
<glyph glyph-name="partialdiff" horiz-adv-x="576" unicode="∂" d="M285 456q-90 0 -146 -61t-56 -165q0 -102 59 -162.5t147 -60.5q96 0 149.5 66.5t53.5 166.5q0 103 -59.5 159.5t-147.5 56.5zM478 370q-30 126 -111 212.5t-204 129.5l11 14q163 -59 249.5 -189t86.5 -291q0 -112 -58.5 -185t-163.5 -73q-97 0 -160.5 67.5t-63.5 174.5 q0 109 61.5 177t159.5 68q130 0 191 -105h2z"/>
<glyph glyph-name="product" horiz-adv-x="716" unicode="∏" d="M633 714v-909h-19v890h-462v-890h-19v909h500z"/>
<glyph glyph-name="summation" horiz-adv-x="607" unicode="∑" d="M376 270l-304 -446h488v-19h-511v19l303 445l-295 426v19h490v-19h-467z"/>
<glyph glyph-name="minus" d="M497 306h-433v19h433v-19z" unicode="−"/>
<glyph glyph-name="radical" horiz-adv-x="590" unicode="√" d="M238 199l99 -358h2l218 873h21l-229 -909h-22l-104 375h-145v19h160z"/>
<glyph glyph-name="infinity" horiz-adv-x="804" unicode="∞" d="M591 397q-64 0 -106 -41t-73 -123q30 -80 72 -122t107 -42q61 0 102.5 46.5t41.5 117.5t-41.5 117.5t-102.5 46.5zM213 69q119 0 179 165q-34 84 -75 123.5t-104 39.5q-61 0 -102.5 -46.5t-41.5 -117.5t41.5 -117.5t102.5 -46.5zM591 50q-67 0 -112 39.5t-77 118.5 q-63 -158 -189 -158q-68 0 -115.5 50.5t-47.5 132.5t47.5 132.5t115.5 50.5q66 0 111 -39t78 -119q33 79 77.5 118.5t111.5 39.5q68 0 115.5 -50.5t47.5 -132.5t-47.5 -132.5t-115.5 -50.5z"/>
<glyph glyph-name="approxequal" d="M382 210q54 0 115 45v-21q-57 -43 -116 -43q-36 0 -102 30.5t-100 30.5q-33 0 -57.5 -10.5t-57.5 -34.5v21q57 43 116 43q36 0 102 -30.5t100 -30.5zM382 379q54 0 115 45v-21q-57 -43 -116 -43q-36 0 -102 30.5t-100 30.5q-33 0 -57.5 -10.5t-57.5 -34.5v21 q57 43 116 43q36 0 102 -30.5t100 -30.5z" unicode="≈"/>
<glyph glyph-name="notequal" d="M416 582h21l-95 -172h155v-19h-165l-83 -151h248v-19h-258l-94 -172h-21l94 172h-154v19h164l83 151h-247v19h258z" unicode="≠"/>
<glyph glyph-name="lessequal" d="M497 519l-411 -160v-2l411 -161v-21l-433 169v27l433 169v-21zM497 86h-433v19h433v-19z" unicode="≤"/>
<glyph glyph-name="greaterequal" d="M475 359l-411 160v21l433 -169v-27l-433 -169v21l411 161v2zM497 86h-433v19h433v-19z" unicode="≥"/>
<glyph glyph-name="lozenge" horiz-adv-x="429" unicode="◊" d="M242 0h-20l-168 323l168 324h20l169 -324zM234 23l155 300l-156 301h-2l-155 -301l156 -300h2z"/>
</font>
</defs>
</svg>
