<?xml version="1.0" encoding="UTF-8" standalone="no"?>
<!DOCTYPE svg  PUBLIC '-//W3C//DTD SVG 1.1//EN'  'http://www.w3.org/Graphics/SVG/1.1/DTD/svg11.dtd'>
<svg xmlns="http://www.w3.org/2000/svg">
<defs>
<font id="SSTPro-Roman" horiz-adv-x="539">
<font-face underline-position="125" font-weight="400" descent="-200" panose-1="2 11 5 4 3 5 4 2 2 4" units-per-em="1000" unicode-range="U+0020-25CA" bbox="-177 -214 1077 948" x-height="528" underline-thickness="50" font-family="SSTPro" ascent="800" cap-height="714"/>
<missing-glyph horiz-adv-x="1000"/>
<glyph glyph-name=".notdef" horiz-adv-x="1000"/>
<glyph glyph-name=".null" horiz-adv-x="0"/>
<glyph glyph-name="nonmarkingreturn" horiz-adv-x="333"/>
<glyph glyph-name="space" horiz-adv-x="260" unicode=" "/>
<glyph glyph-name="exclam" horiz-adv-x="305" unicode="!" d="M104 0v97h97v-97h-97zM203 714l-17 -515h-67l-17 515h101z"/>
<glyph glyph-name="quotedbl" horiz-adv-x="391" unicode='&quot;' d="M244 512l-19 223h89l-18 -223h-52zM95 512l-19 223h90l-19 -223h-52z"/>
<glyph glyph-name="numbersign" horiz-adv-x="555" unicode="#" d="M227 440l-21 -164h133l23 164h-135zM105 0l30 216h-102v60h110l23 164h-109v60h118l29 214h62l-30 -214h134l29 214h62l-29 -214h91v-60h-100l-22 -164h96v-60h-105l-29 -216h-63l31 216h-134l-30 -216h-62z"/>
<glyph glyph-name="dollar" d="M402 190q0 37 -23.5 64t-70.5 51v-225q43 10 68.5 38t25.5 72zM147 534q0 -41 22 -68t76 -52v221q-98 -17 -98 -101zM452 674l-20 -65q-63 25 -124 28v-248q90 -35 131.5 -79.5t41.5 -115.5q0 -79 -49 -124t-124 -57v-91h-63v87q-97 2 -186 41l20 68q78 -40 166 -43v258 l-6 3q-88 35 -129 79.5t-41 110.5q0 77 51 121t125 53v83h63v-81q83 -3 144 -28z" unicode="$"/>
<glyph glyph-name="percent" horiz-adv-x="804" unicode="%" d="M671 186q0 129 -73 129q-37 0 -55 -35.5t-18 -93.5q0 -57 18 -92.5t55 -35.5q73 0 73 128zM739 186q0 -87 -36.5 -136.5t-104.5 -49.5q-67 0 -104 49.5t-37 136.5q0 88 37 137.5t104 49.5q68 0 104.5 -49.5t36.5 -137.5zM280 528q0 58 -18 94t-56 36q-37 0 -54.5 -36 t-17.5 -94q0 -57 17.5 -92.5t54.5 -35.5q38 0 56 35.5t18 92.5zM348 528q0 -87 -37 -136.5t-105 -49.5q-67 0 -104 49.5t-37 136.5q0 88 37 137.5t104 49.5q68 0 105 -49.5t37 -137.5zM654 714l-448 -714h-60l450 714h58z"/>
<glyph glyph-name="ampersand" horiz-adv-x="713" unicode="&amp;" d="M527 168l147 -168h-112l-84 97q-40 -57 -90 -83t-121 -26q-93 0 -154.5 52t-61.5 145q0 149 157 217q-77 77 -77 159q0 76 49.5 120.5t124.5 44.5q78 0 125 -40.5t47 -116.5q0 -118 -152 -188l145 -161q36 71 71 159h90q-59 -134 -104 -211zM425 153l-174 198 q-115 -52 -115 -160q0 -59 38 -97.5t97 -38.5q98 0 154 98zM397 570q0 42 -24.5 66.5t-67.5 24.5q-45 0 -70 -27t-25 -70q0 -63 69 -132q55 25 86.5 57t31.5 81z"/>
<glyph glyph-name="quotesingle" horiz-adv-x="242" unicode="&apos;" d="M95 512l-19 223h90l-19 -223h-52z"/>
<glyph glyph-name="parenleft" horiz-adv-x="310" unicode="(" d="M111 302q0 -134 34 -264t99 -233h-77q-130 206 -130 497q0 290 130 495h77q-65 -103 -99 -232.5t-34 -262.5z"/>
<glyph glyph-name="parenright" horiz-adv-x="310" unicode=")" d="M199 299q0 286 -133 498h76q131 -209 131 -498q0 -288 -131 -494h-76q65 103 99 232.5t34 261.5z"/>
<glyph glyph-name="asterisk" horiz-adv-x="413" unicode="*" d="M234 714v-133l131 42l19 -52l-131 -42l84 -118l-45 -34l-86 121l-85 -121l-45 34l84 118l-131 42l19 52l131 -42v133h55z"/>
<glyph glyph-name="plus" d="M238 542h65v-196h195v-62h-195v-210h-65v210h-196v62h196v196z" unicode="+"/>
<glyph glyph-name="comma" horiz-adv-x="279" unicode="," d="M61 -141l43 238h93l-82 -238h-54z"/>
<glyph glyph-name="hyphen" horiz-adv-x="400" unicode="-" d="M74 266v69h251v-69h-251z"/>
<glyph glyph-name="period" horiz-adv-x="279" unicode="." d="M89 0v101h101v-101h-101z"/>
<glyph glyph-name="slash" horiz-adv-x="493" unicode="/" d="M34 0l341 714h84l-341 -714h-84z"/>
<glyph glyph-name="zero" horiz-adv-x="613" unicode="0" d="M307 654q-169 0 -169 -300q0 -294 169 -294q168 0 168 294q0 300 -168 300zM307 726q126 0 190 -99.5t64 -272.5q0 -172 -64 -269t-190 -97q-128 0 -191.5 97t-63.5 269q0 174 63.5 273t191.5 99z"/>
<glyph glyph-name="one" horiz-adv-x="398" unicode="1" d="M281 714v-714h-86v631l-152 -104l-39 60l184 127h93z"/>
<glyph glyph-name="two" horiz-adv-x="531" unicode="2" d="M484 73v-73h-449v77q219 200 287.5 288t68.5 165q0 56 -41.5 90t-101.5 34q-82 0 -163 -66l-37 62q86 76 200 76q102 0 166 -50.5t64 -143.5q0 -68 -31 -128t-96 -129t-210 -202h343z"/>
<glyph glyph-name="three" horiz-adv-x="533" unicode="3" d="M123 331v73h62q85 0 139 32.5t54 100.5q0 57 -38.5 87t-103.5 30q-90 0 -166 -44l-27 70q88 46 198 46q95 0 159.5 -48t64.5 -134q0 -66 -37.5 -110.5t-106.5 -62.5v-2q77 -11 120 -56t43 -112q0 -100 -71 -156.5t-179 -56.5q-122 0 -208 47l26 70q84 -45 182 -45 q75 0 119.5 35t44.5 104q0 50 -33.5 81t-78 41t-101.5 10h-62z"/>
<glyph glyph-name="four" horiz-adv-x="583" unicode="4" d="M362 244v399h-2l-257 -399h259zM448 714v-470h96v-73h-96v-171h-86v171h-342v89l294 454h134z"/>
<glyph glyph-name="five" horiz-adv-x="548" unicode="5" d="M408 219q0 79 -56 115t-139 36q-66 0 -140 -13l15 357h363v-72h-287l-11 -205q40 5 77 5q111 0 187.5 -56.5t76.5 -161.5q0 -113 -74 -174.5t-185 -61.5q-112 0 -195 38l25 71q83 -37 169 -37q76 0 125 40t49 119z"/>
<glyph glyph-name="six" horiz-adv-x="581" unicode="6" d="M138 383h2q27 39 73.5 62t100.5 23q103 0 165 -66t62 -170q0 -107 -65.5 -175.5t-170.5 -68.5q-60 0 -106 21t-73 53.5t-44.5 77.5t-23.5 87.5t-6 89.5q0 183 71.5 296t209.5 113q83 0 142 -28l-22 -68q-48 24 -117 24q-67 0 -112 -41t-63.5 -98.5t-22.5 -131.5zM143 247 q0 -76 40.5 -131.5t118.5 -55.5q70 0 111.5 47.5t41.5 124.5q0 72 -37.5 118t-107.5 46q-71 0 -119 -44.5t-48 -104.5z"/>
<glyph glyph-name="seven" horiz-adv-x="495" unicode="7" d="M36 642v72h432v-72q-103 -151 -163.5 -321t-74.5 -321h-86q14 148 77 325t155 317h-340z"/>
<glyph glyph-name="eight" horiz-adv-x="582" unicode="8" d="M290 404q61 0 101 33.5t40 98.5q0 55 -38 86.5t-104 31.5q-63 0 -100.5 -31.5t-37.5 -86.5q0 -66 39 -99t100 -33zM289 726q95 0 162 -50t67 -140q0 -126 -117 -161v-2q140 -49 140 -185q0 -96 -70.5 -148t-179.5 -52t-179.5 52t-70.5 148q0 74 41 119t99 62v2 q-52 18 -84.5 60t-32.5 105q0 90 65 140t160 50zM291 334q-64 0 -114 -35.5t-50 -103.5q0 -66 45 -100.5t119 -34.5t119 34.5t45 100.5q0 68 -50 103.5t-114 35.5z"/>
<glyph glyph-name="nine" horiz-adv-x="581" unicode="9" d="M443 331h-2q-27 -39 -73.5 -62t-100.5 -23q-103 0 -165 66t-62 170q0 107 65.5 175.5t170.5 68.5q60 0 106 -21t73 -53.5t44.5 -77.5t23.5 -87.5t6 -89.5q0 -183 -71.5 -296t-209.5 -113q-89 0 -153 27l18 69q67 -24 132 -24q67 0 112 41t63.5 98.5t22.5 131.5zM438 467 q0 76 -40.5 131.5t-118.5 55.5q-70 0 -111.5 -47.5t-41.5 -124.5q0 -72 37.5 -118t107.5 -46q71 0 119 44.5t48 104.5z"/>
<glyph glyph-name="colon" horiz-adv-x="335" unicode=":" d="M117 428v100h101v-100h-101zM117 0v101h101v-101h-101z"/>
<glyph glyph-name="semicolon" horiz-adv-x="335" unicode=";" d="M81 -141l43 238h93l-82 -238h-54zM117 428v100h101v-100h-101z"/>
<glyph glyph-name="less" d="M498 100l-456 164v89l456 165v-66l-395 -141v-2l395 -143v-66z" unicode="&lt;"/>
<glyph glyph-name="equal" d="M498 191h-456v62h456v-62zM498 377h-456v62h456v-62z" unicode="="/>
<glyph glyph-name="greater" d="M498 264l-456 -164v66l394 143v2l-394 141v66l456 -165v-89z" unicode="&gt;"/>
<glyph glyph-name="question" horiz-adv-x="464" unicode="?" d="M156 0v97h102v-97h-102zM244 207v-28h-78v34q0 64 20 104t68 81l31 26q64 56 64 123q0 107 -132 107q-73 0 -141 -40l-26 66q77 46 176 46q42 0 78 -9t66 -28.5t47 -54.5t17 -83q0 -64 -27.5 -107t-78.5 -82q-48 -39 -66 -68.5t-18 -86.5z"/>
<glyph glyph-name="at" horiz-adv-x="930" unicode="@" d="M734 -62l18 -66q-114 -57 -265 -57q-205 0 -322.5 125.5t-117.5 329.5q0 197 124 326.5t311 129.5q82 0 153.5 -24t127 -70.5t87.5 -122t32 -171.5q0 -143 -63.5 -223.5t-155.5 -80.5q-47 0 -72.5 26.5t-25.5 64.5h-2q-13 -32 -53 -61.5t-91 -29.5q-80 0 -121.5 56 t-41.5 149q0 110 62 193t162 83q42 0 73.5 -22t45.5 -55h2l12 59h70l-45 -230q-13 -57 -13 -99q0 -67 56 -67q54 0 89.5 66.5t35.5 161.5q0 157 -88 243t-237 86q-157 0 -254.5 -111.5t-97.5 -279.5q0 -176 98 -278.5t268 -102.5q138 0 239 52zM477 448q-63 0 -101.5 -67.5 t-38.5 -147.5q0 -52 21 -92t71 -40q48 0 82 38t47 85t13 93q0 55 -21.5 93t-72.5 38z"/>
<glyph glyph-name="A" horiz-adv-x="668" unicode="A" d="M332 648l-133 -361h266zM177 214l-81 -214h-93l272 714h117l273 -714h-95l-84 214h-309z"/>
<glyph glyph-name="B" horiz-adv-x="618" unicode="B" d="M175 331v-258h153q74 0 113.5 29.5t39.5 99.5q0 129 -176 129h-130zM175 641v-237h130q156 0 156 122q0 115 -148 115h-138zM88 0v714h242q99 0 158.5 -45.5t59.5 -137.5q0 -63 -35.5 -103.5t-96.5 -56.5v-2q152 -30 152 -169q0 -86 -56.5 -143t-169.5 -57h-254z"/>
<glyph glyph-name="C" horiz-adv-x="605" unicode="C" d="M571 691l-27 -69q-53 31 -135 31q-130 0 -198 -83.5t-68 -215.5q0 -125 69 -209t195 -84q82 0 147 34l25 -68q-71 -39 -177 -39q-160 0 -253 101.5t-93 265.5q0 166 92.5 268.5t259.5 102.5q103 0 163 -35z"/>
<glyph glyph-name="D" horiz-adv-x="699" unicode="D" d="M175 641v-568h103q135 0 205.5 74.5t70.5 209.5t-70.5 209.5t-205.5 74.5h-103zM88 0v714h203q165 0 257.5 -95.5t92.5 -261.5t-93 -261.5t-257 -95.5h-203z"/>
<glyph glyph-name="E" horiz-adv-x="540" unicode="E" d="M88 0v714h392v-73h-305v-237h281v-73h-281v-258h313v-73h-400z"/>
<glyph glyph-name="F" horiz-adv-x="504" unicode="F" d="M88 0v714h376v-73h-289v-237h272v-73h-272v-331h-87z"/>
<glyph glyph-name="G" horiz-adv-x="717" unicode="G" d="M618 686l-26 -76q-76 43 -169 43q-129 0 -204.5 -84t-75.5 -214q0 -125 76 -209.5t201 -84.5q80 0 130 29v222h-152v73h238v-343q-100 -54 -221 -54q-159 0 -259 103t-100 265q0 164 99 267t267 103q111 0 196 -40z"/>
<glyph glyph-name="H" horiz-adv-x="694" unicode="H" d="M88 0v714h87v-310h344v310h87v-714h-87v331h-344v-331h-87z"/>
<glyph glyph-name="I" horiz-adv-x="263" unicode="I" d="M88 0v714h87v-714h-87z"/>
<glyph glyph-name="J" horiz-adv-x="314" unicode="J" d="M238 714v-561q0 -81 -36.5 -123t-121.5 -42q-45 0 -76 7v73q28 -7 63 -7q46 0 65 21.5t19 70.5v561h87z"/>
<glyph glyph-name="K" horiz-adv-x="592" unicode="K" d="M460 714h110l-298 -341l317 -373h-112l-301 358h-1v-358h-87v714h87v-334h1z"/>
<glyph glyph-name="L" horiz-adv-x="504" unicode="L" d="M88 0v714h87v-641h316v-73h-403z"/>
<glyph glyph-name="M" horiz-adv-x="872" unicode="M" d="M235 714l197 -635h2l201 635h149v-714h-84v648h-2l-212 -648h-109l-205 648h-2v-648h-82v714h147z"/>
<glyph glyph-name="N" horiz-adv-x="701" unicode="N" d="M219 714l310 -622h2v622h82v-714h-128l-313 627h-2v-627h-82v714h131z"/>
<glyph glyph-name="O" horiz-adv-x="754" unicode="O" d="M607 356q0 130 -59 213.5t-171 83.5t-171 -83.5t-59 -213.5q0 -129 59 -212t171 -83t171 83t59 212zM694 356q0 -164 -84.5 -266t-232.5 -102t-232.5 102t-84.5 266q0 166 83.5 268t233.5 102t233.5 -102t83.5 -268z"/>
<glyph glyph-name="P" horiz-adv-x="601" unicode="P" d="M175 641v-269h139q156 0 156 137q0 77 -43 104.5t-122 27.5h-130zM88 0v714h233q106 0 171 -47t65 -155q0 -110 -65.5 -161.5t-169.5 -51.5h-147v-299h-87z"/>
<glyph glyph-name="Q" horiz-adv-x="754" unicode="Q" d="M607 356q0 130 -59 213.5t-171 83.5t-171 -83.5t-59 -213.5q0 -129 59 -212t171 -83t171 83t59 212zM694 356q0 -110 -40 -194.5t-113 -129.5l126 -149h-113l-91 116q-42 -11 -86 -11q-148 0 -232.5 102t-84.5 266q0 166 83.5 268t233.5 102t233.5 -102t83.5 -268z"/>
<glyph glyph-name="R" horiz-adv-x="623" unicode="R" d="M175 641v-247h138q156 0 156 126q0 121 -150 121h-144zM88 0v714h246q100 0 161 -47t61 -142q0 -62 -34 -106t-98 -60v-2q40 -10 62.5 -39.5t41.5 -94.5q28 -98 67 -223h-93q-8 28 -28.5 105.5t-27.5 102.5q-14 47 -28 68.5t-43.5 33t-84.5 11.5h-115v-321h-87z"/>
<glyph glyph-name="S" horiz-adv-x="542" unicode="S" d="M464 696l-21 -73q-75 30 -157 30q-59 0 -101.5 -26t-42.5 -83q0 -48 32.5 -79t116.5 -63q107 -41 156 -89t49 -128q0 -98 -70.5 -147.5t-169.5 -49.5q-113 0 -211 44l22 75q93 -46 191 -46q68 0 109.5 30t41.5 88q0 51 -40.5 84t-130.5 70q-93 38 -138 86.5t-45 118.5 q0 62 36.5 106.5t87 63t108.5 18.5q101 0 177 -30z"/>
<glyph glyph-name="T" horiz-adv-x="542" unicode="T" d="M230 0v641h-215v73h512v-73h-210v-641h-87z"/>
<glyph glyph-name="U" horiz-adv-x="675" unicode="U" d="M600 714v-503q0 -99 -71 -161t-192 -62q-120 0 -191 62t-71 161v503h87v-494q0 -78 44.5 -118.5t129.5 -40.5q84 0 130.5 43.5t46.5 115.5v494h87z"/>
<glyph glyph-name="V" horiz-adv-x="627" unicode="V" d="M257 0l-254 714h93l217 -635h2l216 635h93l-256 -714h-111z"/>
<glyph glyph-name="W" horiz-adv-x="953" unicode="W" d="M613 0l-136 648h-2l-135 -648h-124l-174 714h92l144 -635h2l130 635h134l131 -635h2l145 635h89l-175 -714h-123z"/>
<glyph glyph-name="X" horiz-adv-x="598" unicode="X" d="M580 714l-227 -342l242 -372h-103l-193 306l-197 -306h-99l247 372l-221 342h99l175 -280l180 280h97z"/>
<glyph glyph-name="Y" horiz-adv-x="611" unicode="Y" d="M262 0v291l-261 423h103l203 -342l206 342h97l-261 -423v-291h-87z"/>
<glyph glyph-name="Z" horiz-adv-x="582" unicode="Z" d="M47 73l381 568h-354v73h453v-72l-382 -569h395v-73h-493v73z"/>
<glyph glyph-name="bracketleft" horiz-adv-x="310" unicode="[" d="M229 797v-55h-92v-882h92v-55h-165v992h165z"/>
<glyph glyph-name="backslash" horiz-adv-x="493" unicode="\" d="M121 714l341 -714h-90l-341 714h90z"/>
<glyph glyph-name="bracketright" horiz-adv-x="310" unicode="]" d="M81 -195v55h92v882h-92v55h165v-992h-165z"/>
<glyph glyph-name="asciicircum" d="M470 299h-87l-114 310h-1l-113 -310h-85l161 397h77z" unicode="^"/>
<glyph glyph-name="underscore" horiz-adv-x="465" unicode="_" d="M0 -93h465v-47h-465v47z"/>
<glyph glyph-name="grave" horiz-adv-x="465" unicode="`" d="M219 604l-121 164h91l91 -164h-61z"/>
<glyph glyph-name="a" horiz-adv-x="554" unicode="a" d="M387 268h-24q-231 0 -231 -117q0 -44 24 -70t73 -26q75 0 116.5 48.5t41.5 119.5v45zM387 329v15q0 129 -128 129q-68 0 -135 -31l-19 67q75 31 158 31q99 0 154 -47.5t55 -141.5v-231q0 -69 10 -120h-75q-9 33 -12 79h-2q-51 -91 -169 -91q-72 0 -123 40t-51 119 q0 44 18 77t48 53t75 32t91 16t105 4z"/>
<glyph glyph-name="b" horiz-adv-x="613" unicode="b" d="M472 265q0 90 -39 149t-111 59q-74 0 -116.5 -58.5t-42.5 -149.5t42.5 -150.5t116.5 -59.5q72 0 111 60t39 150zM165 73v-73h-82v735h85v-287h2q28 45 71.5 68.5t93.5 23.5q102 0 162 -78t60 -197t-61.5 -198t-164.5 -79q-108 0 -165 85h-1z"/>
<glyph glyph-name="c" horiz-adv-x="490" unicode="c" d="M448 518l-19 -67q-48 22 -104 22q-86 0 -135 -59.5t-49 -150.5q0 -90 49 -149t135 -59q57 0 106 22l14 -67q-58 -22 -121 -22q-127 0 -197.5 76.5t-70.5 198.5t72.5 199.5t194.5 77.5q72 0 125 -22z"/>
<glyph glyph-name="d" horiz-adv-x="613" unicode="d" d="M141 265q0 -90 39.5 -150t111.5 -60q74 0 116.5 59.5t42.5 150.5t-42.5 149.5t-116.5 58.5q-73 0 -112 -59t-39 -149zM446 456v279h85v-735h-82v80h-2q-61 -92 -168 -92q-102 0 -162.5 79t-60.5 198t62 197t164 78q105 0 162 -84h2z"/>
<glyph glyph-name="e" horiz-adv-x="567" unicode="e" d="M295 473q-69 0 -109.5 -45t-47.5 -120h298v4q0 75 -38.5 118t-102.5 43zM513 241h-375q5 -86 54.5 -136t132.5 -50q79 0 142 26l14 -65q-65 -28 -158 -28q-127 0 -197 76.5t-70 198.5t64.5 199.5t173.5 77.5q108 0 163.5 -69t55.5 -189v-41z"/>
<glyph glyph-name="f" horiz-adv-x="335" unicode="f" d="M371 724l-6 -66q-37 10 -80 10q-47 0 -62.5 -24t-15.5 -86v-30h123v-67h-123v-461h-85v461h-108v67h108v41q0 82 35 124t125 42q45 0 89 -11z"/>
<glyph glyph-name="g" horiz-adv-x="611" unicode="g" d="M448 34v62h-2q-60 -89 -165 -89q-104 0 -164.5 76t-60.5 191q0 114 62 190t164 76q109 0 164 -83h2v71h82v-498q0 -110 -70 -167.5t-179 -57.5q-93 0 -165 27l16 66q64 -26 149 -26q82 0 124.5 42t42.5 120zM141 274q0 -87 39 -143.5t112 -56.5t115.5 56.5t42.5 143.5 t-42.5 143t-115.5 56t-112 -56t-39 -143z"/>
<glyph glyph-name="h" horiz-adv-x="598" unicode="h" d="M83 735h85v-285h2q51 90 162 90q88 0 138.5 -52t50.5 -140v-348h-85v316q0 78 -28 117.5t-96 39.5q-60 0 -102 -44t-42 -130v-299h-85v735z"/>
<glyph glyph-name="i" horiz-adv-x="251" unicode="i" d="M80 727h91v-88h-91v88zM83 528h85v-528h-85v528z"/>
<glyph glyph-name="j" horiz-adv-x="251" unicode="j" d="M80 727h91v-88h-91v88zM168 528v-575q0 -71 -37 -109.5t-107 -38.5q-29 0 -57 4v67q25 -4 47 -4q39 0 54 22.5t15 67.5v566h85z"/>
<glyph glyph-name="k" horiz-adv-x="515" unicode="k" d="M384 528h108l-231 -236l241 -292h-109l-223 277h-2v-277h-85v735h85v-435h2z"/>
<glyph glyph-name="l" horiz-adv-x="251" unicode="l" d="M83 735h85v-735h-85v735z"/>
<glyph glyph-name="m" horiz-adv-x="913" unicode="m" d="M83 528h82v-81h1q19 43 62.5 68t96.5 25q118 0 157 -86h3q51 86 167 86q89 0 136.5 -52.5t47.5 -139.5v-348h-85v316q0 76 -26.5 116.5t-92.5 40.5q-54 0 -91.5 -37t-37.5 -111v-325h-85v325q0 76 -24 112t-91 36q-57 0 -96 -42t-39 -122v-309h-85v528z"/>
<glyph glyph-name="n" horiz-adv-x="598" unicode="n" d="M83 528h82v-78h1q24 42 68 66t98 24q88 0 138.5 -52t50.5 -140v-348h-85v316q0 78 -28 117.5t-96 39.5q-60 0 -102 -44t-42 -130v-299h-85v528z"/>
<glyph glyph-name="o" horiz-adv-x="602" unicode="o" d="M461 265q0 95 -40 151.5t-120 56.5t-120 -56.5t-40 -151.5q0 -96 41 -153t119 -57q80 0 120 57t40 153zM546 265q0 -129 -66 -203t-179 -74t-179 74t-66 203t65.5 202t179.5 73t179.5 -73t65.5 -202z"/>
<glyph glyph-name="p" horiz-adv-x="613" unicode="p" d="M472 264q0 91 -39 150t-111 59q-74 0 -116.5 -59t-42.5 -150t42.5 -150t116.5 -59q72 0 111 59.5t39 149.5zM168 73v-268h-85v723h82v-80h1q29 46 74 69t95 23q102 0 162 -78.5t60 -197.5t-61 -197.5t-164 -78.5q-106 0 -162 85h-2z"/>
<glyph glyph-name="q" horiz-adv-x="613" unicode="q" d="M141 265q0 -90 39.5 -150t111.5 -60q74 0 116.5 59.5t42.5 150.5t-42.5 149.5t-116.5 58.5q-73 0 -112 -59t-39 -149zM449 456v72h82v-723h-85v275h-2q-61 -92 -165 -92q-102 0 -162.5 79t-60.5 198t62 197t164 78q110 0 165 -84h2z"/>
<glyph glyph-name="r" horiz-adv-x="352" unicode="r" d="M342 538l-4 -68q-18 3 -44 3q-126 0 -126 -164v-309h-85v528h82v-71h1q39 83 138 83q23 0 38 -2z"/>
<glyph glyph-name="s" horiz-adv-x="469" unicode="s" d="M392 511l-20 -65q-57 27 -131 27q-42 0 -71 -17t-29 -56q0 -33 24 -54t88 -45q84 -31 124.5 -66.5t40.5 -97.5q0 -77 -56 -113t-137 -36q-100 0 -177 38l22 67q85 -38 157 -38q108 0 108 77q0 35 -30.5 58.5t-97.5 47.5q-74 27 -111 63t-37 90q0 72 54.5 110.5 t127.5 38.5q94 0 151 -29z"/>
<glyph glyph-name="t" horiz-adv-x="354" unicode="t" d="M19 461v67h94v133h85v-133h122v-67h-122v-316q0 -55 11.5 -70t55.5 -15q20 0 56 4v-64q-44 -7 -80 -7q-77 0 -102.5 34.5t-25.5 112.5v321h-94z"/>
<glyph glyph-name="u" horiz-adv-x="598" unicode="u" d="M515 0h-82v78h-1q-24 -42 -68 -66t-98 -24q-88 0 -138.5 52t-50.5 140v348h85v-316q0 -78 28 -117.5t96 -39.5q60 0 102 44t42 130v299h85v-528z"/>
<glyph glyph-name="v" horiz-adv-x="510" unicode="v" d="M100 528l155 -455h2l156 455h90l-199 -528h-99l-198 528h93z"/>
<glyph glyph-name="w" horiz-adv-x="802" unicode="w" d="M460 528l110 -455h2l115 455h91l-154 -528h-109l-112 458h-2l-115 -458h-110l-152 528h92l115 -455h2l111 455h116z"/>
<glyph glyph-name="x" horiz-adv-x="502" unicode="x" d="M479 528l-173 -254l181 -274h-97l-138 218l-142 -218h-95l185 272l-170 256h96l129 -203l131 203h93z"/>
<glyph glyph-name="y" horiz-adv-x="512" unicode="y" d="M100 528l157 -425h2l156 425h90l-288 -723h-89l83 204l-204 519h93z"/>
<glyph glyph-name="z" horiz-adv-x="491" unicode="z" d="M47 61l291 400h-271v67h368v-64l-289 -397h299v-67h-398v61z"/>
<glyph glyph-name="braceleft" horiz-adv-x="310" unicode="{" d="M6 271v61q50 6 65 36.5t15 103.5v181q0 70 35 107t94 37h44v-55h-24q-39 0 -57.5 -23.5t-18.5 -78.5v-170q0 -75 -22 -113t-75 -54v-2q53 -17 75 -55t22 -112v-171q0 -55 18.5 -79t57.5 -24h24v-55h-44q-59 0 -94 38t-35 108v180q0 72 -15 102.5t-65 37.5z"/>
<glyph glyph-name="bar" horiz-adv-x="465" unicode="|" d="M200 735h65v-930h-65v930z"/>
<glyph glyph-name="braceright" horiz-adv-x="310" unicode="}" d="M304 331v-61q-51 -7 -66 -37.5t-15 -103.5v-180q0 -70 -34.5 -107t-93.5 -37h-44v55h23q38 0 57 23.5t19 78.5v170q0 74 22.5 112.5t74.5 54.5v1q-53 18 -75 56t-22 112v171q0 55 -19 78.5t-57 23.5h-23v56h44q59 0 93.5 -37.5t34.5 -108.5v-180q0 -73 15 -103.5 t66 -36.5z"/>
<glyph glyph-name="asciitilde" d="M386 315q69 3 112 49v-69q-48 -43 -125 -43q-48 0 -112 31t-102 31q-72 0 -117 -49v69q46 43 125 43q48 0 113 -31t106 -31z" unicode="~"/>
<glyph glyph-name="uni00A0" horiz-adv-x="260" unicode=" "/>
<glyph glyph-name="exclamdown" horiz-adv-x="305" unicode="¡" d="M201 528v-96h-97v96h97zM102 -186l17 515h67l17 -515h-101z"/>
<glyph glyph-name="cent" horiz-adv-x="495" unicode="¢" d="M146 263q0 -75 34.5 -129.5t96.5 -71.5v404q-62 -18 -96.5 -73t-34.5 -130zM451 521l-19 -68q-44 18 -91 20v-418q50 2 95 22l14 -67q-56 -21 -109 -22v-55h-64v59q-104 15 -160 88.5t-56 182.5q0 108 58 182.5t158 90.5v64h64v-60q59 -1 110 -19z"/>
<glyph glyph-name="sterling" horiz-adv-x="595" unicode="£" d="M510 697l-28 -72q-46 28 -103 28q-66 0 -96 -39t-30 -104v-106h157v-59h-157v-272h281v-73h-473v73h105v272h-98v59h98v112q0 96 56.5 153t156.5 57q79 0 131 -29z"/>
<glyph glyph-name="currency" d="M40 498l58 57l81 -81q42 24 92 24q49 0 92 -24l81 81l55 -56l-80 -80q27 -43 27 -94q0 -52 -26 -93l79 -79l-57 -57l-79 79q-40 -25 -92 -25q-51 0 -94 27l-81 -81l-56 56l81 80q-26 41 -26 93q0 51 25 92zM271 226q41 0 67.5 28t26.5 71q0 42 -27 70t-67 28t-67.5 -28 t-27.5 -70q0 -43 27 -71t68 -28z" unicode="¤"/>
<glyph glyph-name="yen" horiz-adv-x="595" unicode="¥" d="M84 207h172v89h-172v59h153l-210 359h92l183 -335l178 335h89l-208 -359h151v-59h-172v-89h172v-59h-172v-148h-84v148h-172v59z"/>
<glyph glyph-name="brokenbar" horiz-adv-x="465" unicode="¦" d="M200 172h65v-367h-65v367zM200 735h65v-368h-65v368z"/>
<glyph glyph-name="section" d="M299 371l-64 29q-36 -6 -61 -28.5t-25 -59.5q0 -39 23 -60t87 -50l70 -31q72 25 72 91q0 40 -26 64t-76 45zM86 -120l26 70q70 -36 147 -36q122 0 122 92q0 38 -29.5 63.5t-121.5 66.5q-86 37 -122.5 71t-36.5 99q0 96 104 132q-80 43 -80 127q0 85 60 123t148 38 q80 0 133 -24l-24 -72q-42 24 -110 24q-123 0 -123 -86q0 -40 30.5 -65t107.5 -59q84 -38 122.5 -74.5t38.5 -95.5q0 -94 -90 -135q77 -42 77 -129q0 -89 -60 -128.5t-150 -39.5q-41 0 -89.5 11t-79.5 27z" unicode="§"/>
<glyph glyph-name="dieresis" horiz-adv-x="465" unicode="¨" d="M364 720v-94h-85v94h85zM187 720v-94h-86v94h86z"/>
<glyph glyph-name="copyright" horiz-adv-x="800" unicode="©" d="M519 565l-16 -58q-39 17 -79 17q-72 0 -107.5 -47t-35.5 -120q0 -70 36 -116.5t106 -46.5q51 0 87 18l14 -58q-41 -21 -109 -21q-97 0 -153 62t-56 162q0 101 55.5 163.5t156.5 62.5q68 0 101 -18zM35 355q0 156 104 262t263 106q158 0 260.5 -106t102.5 -262 q0 -154 -102.5 -259t-260.5 -105q-159 0 -263 105.5t-104 258.5zM94 355q0 -131 86.5 -221t221.5 -90q133 0 219 90.5t86 220.5q0 132 -86 224t-219 92q-135 0 -221.5 -92t-86.5 -224z"/>
<glyph glyph-name="ordfeminine" horiz-adv-x="343" unicode="ª" d="M227 525h-11q-119 0 -119 -62q0 -47 50 -47q39 0 59.5 28t20.5 63v18zM228 571v9q0 63 -68 63q-44 0 -86 -21l-13 54q44 21 105 21q132 0 132 -116v-137q0 -48 4 -72h-63q-4 22 -4 41h-2q-29 -48 -103 -48q-42 0 -72 23t-30 71q0 64 53 88t147 24z"/>
<glyph glyph-name="guillemotleft" horiz-adv-x="528" unicode="«" d="M456 488l-120 -190l120 -191h-78l-119 188v5l122 188h75zM270 488l-120 -190l120 -191h-78l-119 188v5l122 188h75z"/>
<glyph glyph-name="logicalnot" d="M437 390h-397v59h459v-270h-62v211z" unicode="¬"/>
<glyph glyph-name="uni00AD" horiz-adv-x="400" unicode="­" d="M74 266v69h251v-69h-251z"/>
<glyph glyph-name="registered" horiz-adv-x="502" unicode="®" d="M212 616v-78h39q50 0 50 40q0 38 -47 38h-42zM168 404v243h97q78 0 78 -63q0 -46 -45 -59v-1q24 -6 35 -44q4 -15 12.5 -40.5t11.5 -35.5h-45q-4 11 -11 37t-8 29q-5 22 -15 29.5t-37 7.5h-29v-103h-44zM73 525q0 -76 49.5 -127.5t129.5 -51.5q79 0 128.5 51.5 t49.5 127.5q0 75 -49.5 126.5t-128.5 51.5q-80 0 -129.5 -51.5t-49.5 -126.5zM39 525q0 89 60 149.5t153 60.5t152 -60.5t59 -149.5q0 -90 -59 -150t-152 -60t-153 60t-60 150z"/>
<glyph glyph-name="macron" horiz-adv-x="465" unicode="¯" d="M361 702v-64h-257v64h257z"/>
<glyph glyph-name="degree" horiz-adv-x="372" unicode="°" d="M185 677q-37 0 -63 -26.5t-26 -64.5t26 -64.5t64 -26.5t64 26.5t26 65.5q0 38 -26.5 64t-64.5 26zM189 725q56 0 96 -41t40 -98q0 -58 -40.5 -99t-98.5 -41t-99 41t-41 100q0 58 42 98t101 40z"/>
<glyph glyph-name="plusminus" d="M238 203v152h-196v63h196v152h66v-152h194v-63h-194v-152h-66zM498 77h-456v62h456v-62z" unicode="±"/>
<glyph glyph-name="twosuperior" horiz-adv-x="381" unicode="²" d="M329 488v-60h-278v66q120 105 159 153.5t39 91.5q0 30 -18.5 47.5t-50.5 17.5q-51 0 -99 -34l-26 52q57 42 129 42q63 0 100 -32t37 -90q0 -41 -21 -78t-54 -69.5t-115 -105.5v-1h198z"/>
<glyph glyph-name="threesuperior" horiz-adv-x="381" unicode="³" d="M107 620v56h52q43 0 68 18t25 50q0 29 -21 45.5t-54 16.5q-49 0 -98 -26l-19 57q54 27 123 27q61 0 101 -28.5t40 -82.5q0 -77 -81 -100v-2q42 -9 67 -37t25 -64q0 -63 -44 -96t-113 -33q-76 0 -132 28l22 58q48 -26 108 -26q86 0 86 70q0 69 -103 69h-52z"/>
<glyph glyph-name="acute" horiz-adv-x="465" unicode="´" d="M367 768l-121 -164h-61l91 164h91z"/>
<glyph glyph-name="mu" horiz-adv-x="633" unicode="µ" d="M440 83h-1q-21 -45 -66 -70t-101 -25q-34 0 -63.5 9.5t-38.5 22.5h-2v-215h-85v723h85v-316q0 -78 27.5 -117.5t95.5 -39.5q60 0 102.5 44t42.5 130v299h85v-407q0 -36 10.5 -48.5t35.5 -12.5q13 0 21 2v-64q-22 -5 -44 -5q-93 0 -104 90z"/>
<glyph glyph-name="paragraph" horiz-adv-x="558" unicode="¶" d="M509 714v-831h-66v777h-124v-777h-66v441q-91 0 -149.5 53.5t-58.5 132.5q0 96 60.5 150t166.5 54h237z"/>
<glyph glyph-name="periodcentered" horiz-adv-x="279" unicode="·" d="M89 252v101h101v-101h-101z"/>
<glyph glyph-name="cedilla" horiz-adv-x="465" unicode="¸" d="M219 10l-13 -68q16 2 26 2q34 0 58 -19t24 -53q0 -42 -33 -64t-80 -22q-37 0 -62 6l5 45q17 -3 49 -3q60 0 60 34q0 33 -55 33q-18 0 -46 -2l15 111h52z"/>
<glyph glyph-name="onesuperior" horiz-adv-x="381" unicode="¹" d="M244 857v-429h-73v360l-87 -54l-26 52l116 71h70z"/>
<glyph glyph-name="ordmasculine" horiz-adv-x="376" unicode="º" d="M272 531q0 113 -84 113t-84 -113q0 -52 22.5 -82.5t61.5 -30.5q84 0 84 113zM344 531q0 -77 -42 -121.5t-114 -44.5q-71 0 -113 44.5t-42 121.5t42 121.5t113 44.5q72 0 114 -44.5t42 -121.5z"/>
<glyph glyph-name="guillemotright" horiz-adv-x="528" unicode="»" d="M73 107l120 191l-120 190h78l119 -188v-5l-123 -188h-74zM259 107l120 191l-120 190h78l119 -188v-5l-123 -188h-74z"/>
<glyph glyph-name="onequarter" horiz-adv-x="883" unicode="¼" d="M728 155v209h-2l-129 -209h131zM797 429v-274h56v-60h-56v-95h-69v95h-195v68l171 266h93zM244 717v-429h-73v360l-87 -54l-26 52l116 71h70zM692 714l-412 -714h-62l412 714h62z"/>
<glyph glyph-name="onehalf" horiz-adv-x="883" unicode="½" d="M831 60v-60h-278v66q120 105 159 153.5t39 91.5q0 30 -18.5 47.5t-50.5 17.5q-51 0 -99 -34l-26 52q57 42 129 42q63 0 100 -32t37 -90q0 -41 -21 -78t-54 -69.5t-115 -105.5v-1h198zM244 717v-429h-73v360l-87 -54l-26 52l116 71h70zM692 714l-412 -714h-62l412 714h62z "/>
<glyph glyph-name="threequarters" horiz-adv-x="883" unicode="¾" d="M107 480v56h52q43 0 68 18t25 50q0 29 -21 45.5t-54 16.5q-49 0 -98 -26l-19 57q54 27 123 27q61 0 101 -28.5t40 -82.5q0 -77 -81 -100v-2q42 -9 67 -37t25 -64q0 -63 -44 -96t-113 -33q-76 0 -132 28l22 58q48 -26 108 -26q86 0 86 70q0 69 -103 69h-52zM728 155v209 h-2l-129 -209h131zM797 429v-274h56v-60h-56v-95h-69v95h-195v68l171 266h93zM692 714l-412 -714h-62l412 714h62z"/>
<glyph glyph-name="questiondown" horiz-adv-x="464" unicode="¿" d="M307 528v-96h-101v96h101zM220 321v29h78v-35q0 -64 -20 -104t-68 -81l-31 -26q-64 -54 -64 -123q0 -107 132 -107q73 0 140 40l26 -66q-78 -46 -175 -46q-91 0 -149.5 41.5t-58.5 134.5q0 63 27 106t78 82q49 38 67 68t18 87z"/>
<glyph glyph-name="Agrave" horiz-adv-x="668" unicode="À" d="M225 897h96l76 -134h-64zM332 648l-133 -361h266zM177 214l-81 -214h-93l272 714h117l273 -714h-95l-84 214h-309z"/>
<glyph glyph-name="Aacute" horiz-adv-x="668" unicode="Á" d="M461 897l-111 -134h-63l78 134h96zM332 648l-133 -361h266zM177 214l-81 -214h-93l272 714h117l273 -714h-95l-84 214h-309z"/>
<glyph glyph-name="Acircumflex" horiz-adv-x="668" unicode="Â" d="M497 756h-70l-92 98l-91 -98h-71l118 146h87zM332 648l-133 -361h266zM177 214l-81 -214h-93l272 714h117l273 -714h-95l-84 214h-309z"/>
<glyph glyph-name="Atilde" horiz-adv-x="668" unicode="Ã" d="M347 857q37 -30 57 -30q35 0 40 65h61q-9 -127 -97 -127q-24 0 -41 7.5t-42 27.5q-37 30 -57 30q-37 0 -40 -65h-61q9 127 97 127q40 0 83 -35zM332 648l-133 -361h266zM177 214l-81 -214h-93l272 714h117l273 -714h-95l-84 214h-309z"/>
<glyph glyph-name="Adieresis" horiz-adv-x="668" unicode="Ä" d="M465 884v-94h-85v94h85zM288 884v-94h-86v94h86zM332 648l-133 -361h266zM177 214l-81 -214h-93l272 714h117l273 -714h-95l-84 214h-309z"/>
<glyph glyph-name="Aring" horiz-adv-x="668" unicode="Å" d="M334 906q-25 0 -42.5 -17.5t-17.5 -42.5t18 -42.5t43 -17.5t42 17.5t17 42.5t-17.5 42.5t-42.5 17.5zM336 948q41 0 70.5 -30.5t29.5 -71.5q0 -42 -29.5 -71.5t-71.5 -29.5q-43 0 -73 29.5t-30 71.5q0 43 30 72.5t74 29.5zM332 648l-133 -361h266zM177 214l-81 -214h-93 l272 714h117l273 -714h-95l-84 214h-309z"/>
<glyph glyph-name="AE" horiz-adv-x="879" unicode="Æ" d="M426 648l-193 -381h195v381h-2zM198 194l-99 -194h-96l366 714h450v-73h-305v-237h282v-73h-282v-258h313v-73h-399v194h-230z"/>
<glyph glyph-name="Ccedilla" horiz-adv-x="605" unicode="Ç" d="M571 691l-27 -69q-53 31 -135 31q-130 0 -198 -83.5t-68 -215.5q0 -125 69 -209t195 -84q82 0 147 34l25 -68q-71 -39 -177 -39h-13l-9 -46q16 2 26 2q34 0 58 -19t24 -53q0 -42 -33 -64t-80 -22q-37 0 -62 6l5 45q17 -3 49 -3q60 0 60 34q0 33 -55 33q-18 0 -46 -2 l12 94q-132 19 -207 117.5t-75 244.5q0 166 92.5 268.5t259.5 102.5q103 0 163 -35z"/>
<glyph glyph-name="Egrave" horiz-adv-x="540" unicode="È" d="M164 897h96l76 -134h-64zM88 0v714h392v-73h-305v-237h281v-73h-281v-258h313v-73h-400z"/>
<glyph glyph-name="Eacute" horiz-adv-x="540" unicode="É" d="M423 897l-111 -134h-63l78 134h96zM88 0v714h392v-73h-305v-237h281v-73h-281v-258h313v-73h-400z"/>
<glyph glyph-name="Ecircumflex" horiz-adv-x="540" unicode="Ê" d="M450 756h-70l-92 98l-91 -98h-71l118 146h87zM88 0v714h392v-73h-305v-237h281v-73h-281v-258h313v-73h-400z"/>
<glyph glyph-name="Edieresis" horiz-adv-x="540" unicode="Ë" d="M423 884v-94h-85v94h85zM246 884v-94h-86v94h86zM88 0v714h392v-73h-305v-237h281v-73h-281v-258h313v-73h-400z"/>
<glyph glyph-name="Igrave" horiz-adv-x="263" unicode="Ì" d="M0 897h96l76 -134h-64zM88 0v714h87v-714h-87z"/>
<glyph glyph-name="Iacute" horiz-adv-x="263" unicode="Í" d="M269 897l-111 -134h-63l78 134h96zM88 0v714h87v-714h-87z"/>
<glyph glyph-name="Icircumflex" horiz-adv-x="263" unicode="Î" d="M293 756h-70l-92 98l-91 -98h-71l118 146h87zM88 0v714h87v-714h-87z"/>
<glyph glyph-name="Idieresis" horiz-adv-x="263" unicode="Ï" d="M263 884v-94h-85v94h85zM86 884v-94h-86v94h86zM88 0v714h87v-714h-87z"/>
<glyph glyph-name="Eth" horiz-adv-x="699" unicode="Ð" d="M16 394h72v320h203q165 0 257.5 -95.5t92.5 -261.5t-93 -261.5t-257 -95.5h-203v341h-72v53zM302 341h-127v-268h103q135 0 205.5 74.5t70.5 209.5t-70.5 209.5t-205.5 74.5h-103v-247h127v-53z"/>
<glyph glyph-name="Ntilde" horiz-adv-x="701" unicode="Ñ" d="M363 857q38 -30 57 -30q35 0 40 65h61q-9 -127 -97 -127q-24 0 -41 7.5t-42 27.5q-37 30 -57 30q-37 0 -40 -65h-61q9 127 97 127q40 0 83 -35zM219 714l310 -622h2v622h82v-714h-128l-313 627h-2v-627h-82v714h131z"/>
<glyph glyph-name="Ograve" horiz-adv-x="754" unicode="Ò" d="M250 897h96l76 -134h-64zM607 356q0 130 -59 213.5t-171 83.5t-171 -83.5t-59 -213.5q0 -129 59 -212t171 -83t171 83t59 212zM694 356q0 -164 -84.5 -266t-232.5 -102t-232.5 102t-84.5 266q0 166 83.5 268t233.5 102t233.5 -102t83.5 -268z"/>
<glyph glyph-name="Oacute" horiz-adv-x="754" unicode="Ó" d="M499 897l-111 -134h-63l78 134h96zM607 356q0 130 -59 213.5t-171 83.5t-171 -83.5t-59 -213.5q0 -129 59 -212t171 -83t171 83t59 212zM694 356q0 -164 -84.5 -266t-232.5 -102t-232.5 102t-84.5 266q0 166 83.5 268t233.5 102t233.5 -102t83.5 -268z"/>
<glyph glyph-name="Ocircumflex" horiz-adv-x="754" unicode="Ô" d="M542 756h-70l-92 98l-91 -98h-71l118 146h87zM607 356q0 130 -59 213.5t-171 83.5t-171 -83.5t-59 -213.5q0 -129 59 -212t171 -83t171 83t59 212zM694 356q0 -164 -84.5 -266t-232.5 -102t-232.5 102t-84.5 266q0 166 83.5 268t233.5 102t233.5 -102t83.5 -268z"/>
<glyph glyph-name="Otilde" horiz-adv-x="754" unicode="Õ" d="M389 857q37 -30 57 -30q35 0 40 65h61q-9 -127 -97 -127q-24 0 -41 7.5t-42 27.5q-38 30 -57 30q-37 0 -40 -65h-61q9 127 97 127q40 0 83 -35zM607 356q0 130 -59 213.5t-171 83.5t-171 -83.5t-59 -213.5q0 -129 59 -212t171 -83t171 83t59 212zM694 356 q0 -164 -84.5 -266t-232.5 -102t-232.5 102t-84.5 266q0 166 83.5 268t233.5 102t233.5 -102t83.5 -268z"/>
<glyph glyph-name="Odieresis" horiz-adv-x="754" unicode="Ö" d="M506 884v-94h-85v94h85zM329 884v-94h-86v94h86zM607 356q0 130 -59 213.5t-171 83.5t-171 -83.5t-59 -213.5q0 -129 59 -212t171 -83t171 83t59 212zM694 356q0 -164 -84.5 -266t-232.5 -102t-232.5 102t-84.5 266q0 166 83.5 268t233.5 102t233.5 -102t83.5 -268z"/>
<glyph glyph-name="multiply" d="M500 493l-185 -185l185 -185l-45 -46l-185 185l-185 -185l-47 46l185 185l-185 185l47 46l185 -185l185 185z" unicode="×"/>
<glyph glyph-name="Oslash" horiz-adv-x="754" unicode="Ø" d="M147 356q0 -115 46 -192l332 431q-58 58 -148 58q-112 0 -171 -83.5t-59 -213.5zM607 356q0 117 -46 194l-334 -431q58 -58 150 -58q112 0 171 83t59 212zM694 356q0 -164 -84.5 -266t-232.5 -102q-120 0 -199 67l-65 -84l-43 34l70 90q-80 100 -80 261q0 166 83.5 268 t233.5 102q118 0 197 -67l60 78l45 -34l-65 -84q80 -102 80 -263z"/>
<glyph glyph-name="Ugrave" horiz-adv-x="675" unicode="Ù" d="M204 897h96l76 -134h-64zM600 714v-503q0 -99 -71 -161t-192 -62q-120 0 -191 62t-71 161v503h87v-494q0 -78 44.5 -118.5t129.5 -40.5q84 0 130.5 43.5t46.5 115.5v494h87z"/>
<glyph glyph-name="Uacute" horiz-adv-x="675" unicode="Ú" d="M465 897l-111 -134h-63l78 134h96zM600 714v-503q0 -99 -71 -161t-192 -62q-120 0 -191 62t-71 161v503h87v-494q0 -78 44.5 -118.5t129.5 -40.5q84 0 130.5 43.5t46.5 115.5v494h87z"/>
<glyph glyph-name="Ucircumflex" horiz-adv-x="675" unicode="Û" d="M497 756h-70l-92 98l-91 -98h-71l118 146h87zM600 714v-503q0 -99 -71 -161t-192 -62q-120 0 -191 62t-71 161v503h87v-494q0 -78 44.5 -118.5t129.5 -40.5q84 0 130.5 43.5t46.5 115.5v494h87z"/>
<glyph glyph-name="Udieresis" horiz-adv-x="675" unicode="Ü" d="M466 884v-94h-85v94h85zM289 884v-94h-86v94h86zM600 714v-503q0 -99 -71 -161t-192 -62q-120 0 -191 62t-71 161v503h87v-494q0 -78 44.5 -118.5t129.5 -40.5q84 0 130.5 43.5t46.5 115.5v494h87z"/>
<glyph glyph-name="Yacute" horiz-adv-x="611" unicode="Ý" d="M444 897l-111 -134h-63l78 134h96zM262 0v291l-261 423h103l203 -342l206 342h97l-261 -423v-291h-87z"/>
<glyph glyph-name="Thorn" horiz-adv-x="607" unicode="Þ" d="M175 518v-271h144q70 0 110.5 29.5t40.5 105.5q0 78 -41.5 107t-119.5 29h-134zM88 0v714h87v-123h151q105 0 168 -48.5t63 -156.5q0 -111 -63.5 -161t-166.5 -50h-152v-175h-87z"/>
<glyph glyph-name="germandbls" horiz-adv-x="664" unicode="ß" d="M334 735q100 0 162.5 -48.5t62.5 -142.5q0 -71 -43.5 -115t-118.5 -53v-2q85 -7 141 -50t56 -131q0 -105 -63 -155t-158 -50q-75 0 -126 23l16 65q48 -21 110 -21q64 0 100 34t36 100q0 65 -47.5 103.5t-151.5 38.5v73q164 9 164 131q0 64 -40 95.5t-102 31.5 q-164 0 -164 -182v-480h-85v491q0 66 21 114.5t57.5 76t79.5 40.5t93 13z"/>
<glyph glyph-name="agrave" horiz-adv-x="554" unicode="à" d="M270 604l-121 164h91l91 -164h-61zM387 268h-24q-231 0 -231 -117q0 -44 24 -70t73 -26q75 0 116.5 48.5t41.5 119.5v45zM387 329v15q0 129 -128 129q-68 0 -135 -31l-19 67q75 31 158 31q99 0 154 -47.5t55 -141.5v-231q0 -69 10 -120h-75q-9 33 -12 79h-2 q-51 -91 -169 -91q-72 0 -123 40t-51 119q0 44 18 77t48 53t75 32t91 16t105 4z"/>
<glyph glyph-name="aacute" horiz-adv-x="554" unicode="á" d="M408 768l-121 -164h-61l91 164h91zM387 268h-24q-231 0 -231 -117q0 -44 24 -70t73 -26q75 0 116.5 48.5t41.5 119.5v45zM387 329v15q0 129 -128 129q-68 0 -135 -31l-19 67q75 31 158 31q99 0 154 -47.5t55 -141.5v-231q0 -69 10 -120h-75q-9 33 -12 79h-2 q-51 -91 -169 -91q-72 0 -123 40t-51 119q0 44 18 77t48 53t75 32t91 16t105 4z"/>
<glyph glyph-name="acircumflex" horiz-adv-x="554" unicode="â" d="M440 604h-70l-92 116l-91 -116h-71l118 164h87zM387 268h-24q-231 0 -231 -117q0 -44 24 -70t73 -26q75 0 116.5 48.5t41.5 119.5v45zM387 329v15q0 129 -128 129q-68 0 -135 -31l-19 67q75 31 158 31q99 0 154 -47.5t55 -141.5v-231q0 -69 10 -120h-75q-9 33 -12 79h-2 q-51 -91 -169 -91q-72 0 -123 40t-51 119q0 44 18 77t48 53t75 32t91 16t105 4z"/>
<glyph glyph-name="atilde" horiz-adv-x="554" unicode="ã" d="M289 708q39 -31 57 -31q35 0 40 65h61q-4 -57 -28 -91.5t-69 -34.5q-24 0 -41 7.5t-42 26.5q-39 31 -57 31q-37 0 -40 -65h-61q4 57 28 91.5t69 34.5q39 0 83 -34zM387 268h-24q-231 0 -231 -117q0 -44 24 -70t73 -26q75 0 116.5 48.5t41.5 119.5v45zM387 329v15 q0 129 -128 129q-68 0 -135 -31l-19 67q75 31 158 31q99 0 154 -47.5t55 -141.5v-231q0 -69 10 -120h-75q-9 33 -12 79h-2q-51 -91 -169 -91q-72 0 -123 40t-51 119q0 44 18 77t48 53t75 32t91 16t105 4z"/>
<glyph glyph-name="adieresis" horiz-adv-x="554" unicode="ä" d="M410 720v-94h-85v94h85zM233 720v-94h-86v94h86zM387 268h-24q-231 0 -231 -117q0 -44 24 -70t73 -26q75 0 116.5 48.5t41.5 119.5v45zM387 329v15q0 129 -128 129q-68 0 -135 -31l-19 67q75 31 158 31q99 0 154 -47.5t55 -141.5v-231q0 -69 10 -120h-75q-9 33 -12 79h-2 q-51 -91 -169 -91q-72 0 -123 40t-51 119q0 44 18 77t48 53t75 32t91 16t105 4z"/>
<glyph glyph-name="aring" horiz-adv-x="554" unicode="å" d="M281 755q-25 0 -42.5 -17.5t-17.5 -41.5q0 -26 17.5 -43.5t43.5 -17.5q25 0 42 17.5t17 43.5q0 25 -17.5 42t-42.5 17zM283 797q41 0 70.5 -30t29.5 -71q0 -43 -29.5 -72.5t-71.5 -29.5q-43 0 -73 29.5t-30 72.5q0 42 30.5 71.5t73.5 29.5zM387 268h-24q-231 0 -231 -117 q0 -44 24 -70t73 -26q75 0 116.5 48.5t41.5 119.5v45zM387 329v15q0 129 -128 129q-68 0 -135 -31l-19 67q75 31 158 31q99 0 154 -47.5t55 -141.5v-231q0 -69 10 -120h-75q-9 33 -12 79h-2q-51 -91 -169 -91q-72 0 -123 40t-51 119q0 44 18 77t48 53t75 32t91 16t105 4z "/>
<glyph glyph-name="ae" horiz-adv-x="888" unicode="æ" d="M620 473q-65 0 -105.5 -42t-47.5 -117h290v6q0 69 -38.5 111t-98.5 42zM387 256h-24q-50 0 -87 -4t-72 -15.5t-53.5 -34.5t-18.5 -57q0 -90 105 -90q73 0 111.5 54.5t38.5 123.5v23zM646 55q80 0 143 26l14 -65q-65 -28 -159 -28q-157 0 -219 129h-2q-18 -56 -67 -92.5 t-130 -36.5q-76 0 -126 38t-50 115q0 44 18.5 76.5t47.5 51.5t74.5 30t91 14.5t105.5 3.5v27q0 129 -128 129q-68 0 -135 -31l-19 67q75 31 158 31q136 0 180 -93h2q26 41 71.5 67t102.5 26q99 0 157 -64.5t58 -182.5v-46h-369q6 -87 53 -139.5t128 -52.5z"/>
<glyph glyph-name="ccedilla" horiz-adv-x="490" unicode="ç" d="M448 518l-19 -67q-48 22 -104 22q-86 0 -135 -59.5t-49 -150.5q0 -90 49 -149t135 -59q57 0 106 22l14 -67q-58 -22 -121 -22h-19l-9 -46q16 2 26 2q34 0 58 -19t24 -53q0 -42 -33 -64t-80 -22q-37 0 -62 6l5 45q17 -3 49 -3q60 0 60 34q0 33 -55 33q-18 0 -46 -2l13 96 q-96 20 -147.5 92t-51.5 176q0 122 72.5 199.5t194.5 77.5q72 0 125 -22z"/>
<glyph glyph-name="egrave" horiz-adv-x="567" unicode="è" d="M284 604l-121 164h91l91 -164h-61zM295 473q-69 0 -109.5 -45t-47.5 -120h298v4q0 75 -38.5 118t-102.5 43zM513 241h-375q5 -86 54.5 -136t132.5 -50q79 0 142 26l14 -65q-65 -28 -158 -28q-127 0 -197 76.5t-70 198.5t64.5 199.5t173.5 77.5q108 0 163.5 -69t55.5 -189 v-41z"/>
<glyph glyph-name="eacute" horiz-adv-x="567" unicode="é" d="M431 768l-121 -164h-61l91 164h91zM295 473q-69 0 -109.5 -45t-47.5 -120h298v4q0 75 -38.5 118t-102.5 43zM513 241h-375q5 -86 54.5 -136t132.5 -50q79 0 142 26l14 -65q-65 -28 -158 -28q-127 0 -197 76.5t-70 198.5t64.5 199.5t173.5 77.5q108 0 163.5 -69t55.5 -189 v-41z"/>
<glyph glyph-name="ecircumflex" horiz-adv-x="567" unicode="ê" d="M460 604h-70l-92 116l-91 -116h-71l118 164h87zM295 473q-69 0 -109.5 -45t-47.5 -120h298v4q0 75 -38.5 118t-102.5 43zM513 241h-375q5 -86 54.5 -136t132.5 -50q79 0 142 26l14 -65q-65 -28 -158 -28q-127 0 -197 76.5t-70 198.5t64.5 199.5t173.5 77.5 q108 0 163.5 -69t55.5 -189v-41z"/>
<glyph glyph-name="edieresis" horiz-adv-x="567" unicode="ë" d="M431 720v-94h-85v94h85zM254 720v-94h-86v94h86zM295 473q-69 0 -109.5 -45t-47.5 -120h298v4q0 75 -38.5 118t-102.5 43zM513 241h-375q5 -86 54.5 -136t132.5 -50q79 0 142 26l14 -65q-65 -28 -158 -28q-127 0 -197 76.5t-70 198.5t64.5 199.5t173.5 77.5 q108 0 163.5 -69t55.5 -189v-41z"/>
<glyph glyph-name="igrave" horiz-adv-x="251" unicode="ì" d="M105 604l-121 164h91l91 -164h-61zM83 528h85v-528h-85v528z"/>
<glyph glyph-name="iacute" horiz-adv-x="251" unicode="í" d="M268 768l-121 -164h-61l91 164h91zM83 528h85v-528h-85v528z"/>
<glyph glyph-name="icircumflex" horiz-adv-x="251" unicode="î" d="M290 604h-70l-92 116l-91 -116h-71l118 164h87zM83 528h85v-528h-85v528z"/>
<glyph glyph-name="idieresis" horiz-adv-x="251" unicode="ï" d="M259 720v-94h-85v94h85zM82 720v-94h-86v94h86zM83 528h85v-528h-85v528z"/>
<glyph glyph-name="eth" horiz-adv-x="603" unicode="ð" d="M485 658l-66 -29q128 -125 128 -373q0 -123 -63.5 -195.5t-181.5 -72.5q-114 0 -180 68t-66 186t66 185.5t180 67.5q79 0 136 -42h2q-22 82 -103 145l-174 -73v63l115 46q-49 24 -112 32l27 69q103 -16 177 -66l115 51v-62zM464 242q0 85 -43 135.5t-119 50.5 t-118.5 -50.5t-42.5 -135.5q0 -86 42.5 -136.5t118.5 -50.5t119 50.5t43 136.5z"/>
<glyph glyph-name="ntilde" horiz-adv-x="598" unicode="ñ" d="M329 708q39 -31 57 -31q35 0 40 65h61q-4 -57 -28 -91.5t-69 -34.5q-24 0 -41 7.5t-42 26.5q-39 31 -57 31q-37 0 -40 -65h-61q4 57 28 91.5t69 34.5q39 0 83 -34zM83 528h82v-78h1q24 42 68 66t98 24q88 0 138.5 -52t50.5 -140v-348h-85v316q0 78 -28 117.5t-96 39.5 q-60 0 -102 -44t-42 -130v-299h-85v528z"/>
<glyph glyph-name="ograve" horiz-adv-x="602" unicode="ò" d="M289 604l-121 164h91l91 -164h-61zM461 265q0 95 -40 151.5t-120 56.5t-120 -56.5t-40 -151.5q0 -96 41 -153t119 -57q80 0 120 57t40 153zM546 265q0 -129 -66 -203t-179 -74t-179 74t-66 203t65.5 202t179.5 73t179.5 -73t65.5 -202z"/>
<glyph glyph-name="oacute" horiz-adv-x="602" unicode="ó" d="M432 768l-121 -164h-61l91 164h91zM461 265q0 95 -40 151.5t-120 56.5t-120 -56.5t-40 -151.5q0 -96 41 -153t119 -57q80 0 120 57t40 153zM546 265q0 -129 -66 -203t-179 -74t-179 74t-66 203t65.5 202t179.5 73t179.5 -73t65.5 -202z"/>
<glyph glyph-name="ocircumflex" horiz-adv-x="602" unicode="ô" d="M463 604h-70l-92 116l-91 -116h-71l118 164h87zM461 265q0 95 -40 151.5t-120 56.5t-120 -56.5t-40 -151.5q0 -96 41 -153t119 -57q80 0 120 57t40 153zM546 265q0 -129 -66 -203t-179 -74t-179 74t-66 203t65.5 202t179.5 73t179.5 -73t65.5 -202z"/>
<glyph glyph-name="otilde" horiz-adv-x="602" unicode="õ" d="M316 708q39 -31 57 -31q35 0 40 65h61q-4 -57 -28 -91.5t-69 -34.5q-24 0 -41 7.5t-42 26.5q-39 31 -57 31q-37 0 -40 -65h-61q4 57 28 91.5t69 34.5q39 0 83 -34zM461 265q0 95 -40 151.5t-120 56.5t-120 -56.5t-40 -151.5q0 -96 41 -153t119 -57q80 0 120 57t40 153z M546 265q0 -129 -66 -203t-179 -74t-179 74t-66 203t65.5 202t179.5 73t179.5 -73t65.5 -202z"/>
<glyph glyph-name="odieresis" horiz-adv-x="602" unicode="ö" d="M432 720v-94h-85v94h85zM255 720v-94h-86v94h86zM461 265q0 95 -40 151.5t-120 56.5t-120 -56.5t-40 -151.5q0 -96 41 -153t119 -57q80 0 120 57t40 153zM546 265q0 -129 -66 -203t-179 -74t-179 74t-66 203t65.5 202t179.5 73t179.5 -73t65.5 -202z"/>
<glyph glyph-name="divide" d="M316 537v-87h-84v87h84zM316 178v-87h-84v87h84zM498 284h-456v62h456v-62z" unicode="÷"/>
<glyph glyph-name="oslash" horiz-adv-x="602" unicode="ø" d="M141 265q0 -74 24 -125l243 291q-40 42 -107 42q-80 0 -120 -56.5t-40 -151.5zM461 265q0 77 -25 127l-245 -292q40 -45 110 -45q80 0 120 57t40 153zM546 265q0 -129 -66 -203t-179 -74q-95 0 -159 53l-59 -71l-35 30l63 75q-55 72 -55 190q0 129 65.5 202t179.5 73 q93 0 156 -51l55 66l35 -30l-58 -69q57 -72 57 -191z"/>
<glyph glyph-name="ugrave" horiz-adv-x="598" unicode="ù" d="M280 604l-121 164h91l91 -164h-61zM515 0h-82v78h-1q-24 -42 -68 -66t-98 -24q-88 0 -138.5 52t-50.5 140v348h85v-316q0 -78 28 -117.5t96 -39.5q60 0 102 44t42 130v299h85v-528z"/>
<glyph glyph-name="uacute" horiz-adv-x="598" unicode="ú" d="M440 768l-121 -164h-61l91 164h91zM515 0h-82v78h-1q-24 -42 -68 -66t-98 -24q-88 0 -138.5 52t-50.5 140v348h85v-316q0 -78 28 -117.5t96 -39.5q60 0 102 44t42 130v299h85v-528z"/>
<glyph glyph-name="ucircumflex" horiz-adv-x="598" unicode="û" d="M461 604h-70l-92 116l-91 -116h-71l118 164h87zM515 0h-82v78h-1q-24 -42 -68 -66t-98 -24q-88 0 -138.5 52t-50.5 140v348h85v-316q0 -78 28 -117.5t96 -39.5q60 0 102 44t42 130v299h85v-528z"/>
<glyph glyph-name="udieresis" horiz-adv-x="598" unicode="ü" d="M430 720v-94h-85v94h85zM253 720v-94h-86v94h86zM515 0h-82v78h-1q-24 -42 -68 -66t-98 -24q-88 0 -138.5 52t-50.5 140v348h85v-316q0 -78 28 -117.5t96 -39.5q60 0 102 44t42 130v299h85v-528z"/>
<glyph glyph-name="yacute" horiz-adv-x="512" unicode="ý" d="M402 768l-121 -164h-61l91 164h91zM100 528l157 -425h2l156 425h90l-288 -723h-89l83 204l-204 519h93z"/>
<glyph glyph-name="thorn" horiz-adv-x="618" unicode="þ" d="M472 265q0 90 -39 149t-111 59q-74 0 -116.5 -58.5t-42.5 -149.5t42.5 -150.5t116.5 -59.5q72 0 111 60t39 150zM167 73v-268h-84v930h84v-287h2q28 45 72 68.5t94 23.5q102 0 162 -78t60 -197t-61.5 -198t-164.5 -79q-107 0 -162 85h-2z"/>
<glyph glyph-name="OE" horiz-adv-x="960" unicode="Œ" d="M508 73v568h-85q-135 0 -206 -74.5t-71 -209.5t71 -209.5t206 -74.5h85zM59 357q0 166 93 261.5t258 95.5h490v-73h-305v-237h282v-73h-282v-258h313v-73h-498q-165 0 -258 96t-93 261z"/>
<glyph glyph-name="oe" horiz-adv-x="967" unicode="œ" d="M695 473q-69 0 -109.5 -45t-47.5 -120h298v4q0 75 -38.5 118t-102.5 43zM462 265q0 95 -40.5 151.5t-120.5 56.5t-120 -56.5t-40 -151.5q0 -96 41 -153t119 -57q80 0 120.5 57t40.5 153zM913 241h-375q5 -86 54.5 -136t132.5 -50q79 0 142 26l14 -65q-65 -28 -158 -28 q-155 0 -220 116q-60 -116 -202 -116q-113 0 -179 74t-66 203t65.5 202t179.5 73q142 0 201 -114q60 114 192 114q108 0 163.5 -69t55.5 -189v-41z"/>
<glyph glyph-name="Scaron" horiz-adv-x="542" unicode="Š" d="M123 901h70l92 -97l91 97h71l-118 -146h-87zM464 696l-21 -73q-75 30 -157 30q-59 0 -101.5 -26t-42.5 -83q0 -48 32.5 -79t116.5 -63q107 -41 156 -89t49 -128q0 -98 -70.5 -147.5t-169.5 -49.5q-113 0 -211 44l22 75q93 -46 191 -46q68 0 109.5 30t41.5 88 q0 51 -40.5 84t-130.5 70q-93 38 -138 86.5t-45 118.5q0 62 36.5 106.5t87 63t108.5 18.5q101 0 177 -30z"/>
<glyph glyph-name="scaron" horiz-adv-x="469" unicode="š" d="M84 767h70l92 -116l91 116h71l-118 -164h-87zM392 511l-20 -65q-57 27 -131 27q-42 0 -71 -17t-29 -56q0 -33 24 -54t88 -45q84 -31 124.5 -66.5t40.5 -97.5q0 -77 -56 -113t-137 -36q-100 0 -177 38l22 67q85 -38 157 -38q108 0 108 77q0 35 -30.5 58.5t-97.5 47.5 q-74 27 -111 63t-37 90q0 72 54.5 110.5t127.5 38.5q94 0 151 -29z"/>
<glyph glyph-name="Ydieresis" horiz-adv-x="611" unicode="Ÿ" d="M440 884v-94h-85v94h85zM263 884v-94h-86v94h86zM262 0v291l-261 423h103l203 -342l206 342h97l-261 -423v-291h-87z"/>
<glyph glyph-name="circumflex" horiz-adv-x="465" unicode="ˆ" d="M394 604h-70l-92 116l-91 -116h-71l118 164h87z"/>
<glyph glyph-name="tilde" horiz-adv-x="465" unicode="˜" d="M245 708q39 -31 57 -31q35 0 40 65h61q-4 -57 -28 -91.5t-69 -34.5q-24 0 -41 7.5t-42 26.5q-39 31 -57 31q-37 0 -40 -65h-61q4 57 28 91.5t69 34.5q39 0 83 -34z"/>
<glyph glyph-name="uni0394" horiz-adv-x="684" unicode="Δ" d="M340 648l-209 -575h422zM646 0h-608v73l249 641h113l246 -641v-73z"/>
<glyph glyph-name="uni03BC" horiz-adv-x="633" unicode="μ" d="M440 83h-1q-21 -45 -66 -70t-101 -25q-34 0 -63.5 9.5t-38.5 22.5h-2v-215h-85v723h85v-316q0 -78 27.5 -117.5t95.5 -39.5q60 0 102.5 44t42.5 130v299h85v-407q0 -36 10.5 -48.5t35.5 -12.5q13 0 21 2v-64q-22 -5 -44 -5q-93 0 -104 90z"/>
<glyph glyph-name="pi" horiz-adv-x="701" unicode="π" d="M520 458v-318q0 -49 11.5 -64.5t48.5 -15.5q20 0 40 4v-64q-30 -7 -60 -7q-67 0 -95 31t-28 105v329h-182l-45 -458h-87l52 458h-130v70h601v-70h-126z"/>
<glyph glyph-name="endash" horiz-adv-x="500" unicode="–" d="M473 329v-58h-446v58h446z"/>
<glyph glyph-name="emdash" horiz-adv-x="800" unicode="—" d="M773 329v-58h-746v58h746z"/>
<glyph glyph-name="quoteleft" horiz-adv-x="280" unicode="‘" d="M210 735l-45 -222h-95l83 222h57z"/>
<glyph glyph-name="quotesinglbase" horiz-adv-x="280" unicode="‚" d="M70 -138l45 222h95l-84 -222h-56z"/>
<glyph glyph-name="quotedblleft" horiz-adv-x="420" unicode="“" d="M210 735l-50 -223h-90l84 223h56zM350 735l-46 -223h-90l80 223h56z"/>
<glyph glyph-name="quotedblright" horiz-adv-x="420" unicode="”" d="M209 513l50 222h91l-85 -222h-56zM70 513l45 222h91l-80 -222h-56z"/>
<glyph glyph-name="dagger" horiz-adv-x="517" unicode="†" d="M299 668v-190h189v-74h-189v-530h-80v530h-190v74h190v190h80z"/>
<glyph glyph-name="daggerdbl" horiz-adv-x="517" unicode="‡" d="M299 668v-179h181v-74h-181v-289h181v-74h-181v-178h-80v178h-182v74h182v289h-182v74h182v179h80z"/>
<glyph glyph-name="ellipsis" horiz-adv-x="841" unicode="…" d="M649 0v101h101v-101h-101zM370 0v101h101v-101h-101zM91 0v101h101v-101h-101z"/>
<glyph glyph-name="perthousand" horiz-adv-x="1142" unicode="‰" d="M1009 186q0 129 -73 129t-73 -129q0 -128 73 -128t73 128zM1077 186q0 -87 -36.5 -136.5t-104.5 -49.5t-105 49.5t-37 136.5q0 88 37 137.5t105 49.5t104.5 -49.5t36.5 -137.5zM671 186q0 129 -73 129q-37 0 -55 -35.5t-18 -93.5q0 -57 18 -92.5t55 -35.5q73 0 73 128z M739 186q0 -87 -36.5 -136.5t-104.5 -49.5q-67 0 -104 49.5t-37 136.5q0 88 37 137.5t104 49.5q68 0 104.5 -49.5t36.5 -137.5zM280 528q0 58 -18 94t-56 36q-37 0 -54.5 -36t-17.5 -94q0 -57 17.5 -92.5t54.5 -35.5q38 0 56 35.5t18 92.5zM348 528q0 -87 -37 -136.5 t-105 -49.5q-67 0 -104 49.5t-37 136.5q0 88 37 137.5t104 49.5q68 0 105 -49.5t37 -137.5zM654 714l-448 -714h-60l450 714h58z"/>
<glyph glyph-name="guilsinglleft" horiz-adv-x="342" unicode="‹" d="M270 488l-120 -190l120 -191h-78l-119 188v5l122 188h75z"/>
<glyph glyph-name="guilsinglright" horiz-adv-x="342" unicode="›" d="M73 107l120 191l-120 190h78l119 -188v-5l-123 -188h-74z"/>
<glyph glyph-name="fraction" horiz-adv-x="121" unicode="⁄" d="M297 714l-412 -714h-62l412 714h62z"/>
<glyph glyph-name="Euro" horiz-adv-x="660" unicode="€" d="M47 321h65q-1 11 -1 34q0 19 2 55h-85l18 59h77q26 120 110 188.5t219 68.5q97 0 159 -32l-22 -72q-55 31 -135 31q-193 0 -242 -184h332l-17 -59h-326q-3 -27 -3 -56q0 -22 1 -33h312l-17 -59h-287q21 -91 82.5 -146t161.5 -55q82 0 148 34l24 -68q-71 -39 -177 -39 q-134 0 -219 73.5t-108 200.5h-90z"/>
<glyph glyph-name="trademark" horiz-adv-x="930" unicode="™" d="M779 714v-383h-55v322h-2l-102 -322h-55l-101 322h-2v-322h-56v383h96l91 -307h2l91 307h93zM354 714v-50h-103v-333h-60v333h-105v50h268z"/>
<glyph glyph-name="partialdiff" horiz-adv-x="612" unicode="∂" d="M308 425q-73 0 -116.5 -51t-43.5 -137q0 -84 44 -133t116 -49q71 0 115 51t44 138q0 84 -45.5 132.5t-113.5 48.5zM444 427q-30 88 -113 157t-183 101l51 50q166 -59 259 -183t93 -296q0 -119 -68 -193.5t-178 -74.5q-107 0 -174.5 68.5t-67.5 180.5q0 111 64 179.5 t166 68.5q93 0 148 -58h3z"/>
<glyph glyph-name="product" horiz-adv-x="729" unicode="∏" d="M637 714v-909h-86v836h-372v-836h-87v909h545z"/>
<glyph glyph-name="summation" horiz-adv-x="642" unicode="∑" d="M416 273l-283 -396h459v-72h-548v72l275 391l-266 372v74h526v-73h-426z"/>
<glyph glyph-name="minus" d="M498 284h-456v62h456v-62z" unicode="−"/>
<glyph glyph-name="radical" horiz-adv-x="601" unicode="√" d="M219 225l95 -351h2l187 840h74l-217 -909h-88l-109 358h-128v62h184z"/>
<glyph glyph-name="infinity" horiz-adv-x="857" unicode="∞" d="M463 242q54 -133 154 -133q54 0 86.5 38t32.5 99q0 60 -34 98.5t-88 38.5q-103 0 -151 -141zM418 180q-60 -144 -184 -144q-81 0 -132 59t-51 152q0 91 52 149t136 58q132 0 200 -143q58 143 183 143q82 0 133 -58.5t51 -152.5q0 -90 -52 -148.5t-136 -58.5 q-133 0 -200 144zM393 249q-54 132 -153 132q-54 0 -86 -38t-32 -99q0 -59 33 -97.5t88 -38.5q105 0 150 141z"/>
<glyph glyph-name="approxequal" d="M386 215q69 3 112 49v-69q-48 -43 -125 -43q-48 0 -112 31t-102 31q-72 0 -117 -49v69q46 43 125 43q48 0 113 -31t106 -31zM386 405q69 3 112 49v-69q-48 -43 -125 -43q-48 0 -112 31t-102 31q-72 0 -117 -49v69q46 43 125 43q48 0 113 -31t106 -31z" unicode="≈"/>
<glyph glyph-name="notequal" d="M498 379h-158l-66 -127h224v-62h-257l-76 -146h-73l76 146h-126v62h160l67 127h-227v62h259l78 147h71l-77 -147h125v-62z" unicode="≠"/>
<glyph glyph-name="lessequal" d="M498 77h-456v62h456v-62zM498 176l-456 145v89l456 146v-66l-395 -123v-2l395 -124v-65z" unicode="≤"/>
<glyph glyph-name="greaterequal" d="M498 77h-456v62h456v-62zM498 321l-456 -145v65l394 124v2l-394 123v66l456 -146v-89z" unicode="≥"/>
<glyph glyph-name="lozenge" horiz-adv-x="456" unicode="◊" d="M226 589l-126 -265l127 -265h2l125 264l-125 266h-3zM427 324l-162 -324h-74l-164 324l163 324h74z"/>
</font>
</defs>
</svg>
